<mxfile host="app.diagrams.net" modified="2023-06-17T15:18:17.378Z" agent="Mozilla/5.0 (Macintosh; Intel Mac OS X 10_15_7) AppleWebKit/605.1.15 (KHTML, like Gecko) Version/16.4 Safari/605.1.15" etag="Q2Pc6spq398hGconkFS9" version="21.4.0" type="device">
  <diagram name="Page-1" id="0UNVGdF-UX3vasDSDcIu">
    <mxGraphModel dx="882" dy="576" grid="1" gridSize="10" guides="1" tooltips="1" connect="1" arrows="1" fold="1" page="1" pageScale="1" pageWidth="827" pageHeight="1169" math="0" shadow="0">
      <root>
        <mxCell id="0" />
        <mxCell id="1" parent="0" />
        <mxCell id="zXSD_kcFRXYyIfpvOB7h-10" style="edgeStyle=orthogonalEdgeStyle;rounded=0;orthogonalLoop=1;jettySize=auto;html=1;entryX=0.5;entryY=0;entryDx=0;entryDy=0;" edge="1" parent="1" source="zXSD_kcFRXYyIfpvOB7h-5" target="zXSD_kcFRXYyIfpvOB7h-9">
          <mxGeometry relative="1" as="geometry" />
        </mxCell>
        <mxCell id="zXSD_kcFRXYyIfpvOB7h-5" value="gFaaS createFunctions" style="rounded=0;whiteSpace=wrap;html=1;" vertex="1" parent="1">
          <mxGeometry x="340" y="120" width="140" height="40" as="geometry" />
        </mxCell>
        <mxCell id="zXSD_kcFRXYyIfpvOB7h-7" value="" style="endArrow=classic;startArrow=classic;html=1;rounded=0;" edge="1" parent="1">
          <mxGeometry width="50" height="50" relative="1" as="geometry">
            <mxPoint x="490" y="140" as="sourcePoint" />
            <mxPoint x="660" y="140" as="targetPoint" />
          </mxGeometry>
        </mxCell>
        <mxCell id="zXSD_kcFRXYyIfpvOB7h-37" style="edgeStyle=orthogonalEdgeStyle;rounded=0;orthogonalLoop=1;jettySize=auto;html=1;entryX=0.5;entryY=0;entryDx=0;entryDy=0;" edge="1" parent="1" source="zXSD_kcFRXYyIfpvOB7h-9" target="zXSD_kcFRXYyIfpvOB7h-35">
          <mxGeometry relative="1" as="geometry" />
        </mxCell>
        <mxCell id="zXSD_kcFRXYyIfpvOB7h-9" value="&lt;span style=&quot;white-space: pre;&quot;&gt;&#x9;&lt;/span&gt;Create Tests" style="rounded=0;whiteSpace=wrap;html=1;align=center;" vertex="1" parent="1">
          <mxGeometry x="340" y="180" width="140" height="40" as="geometry" />
        </mxCell>
        <mxCell id="zXSD_kcFRXYyIfpvOB7h-12" value="" style="group" vertex="1" connectable="0" parent="1">
          <mxGeometry x="663" y="130" width="120" height="90" as="geometry" />
        </mxCell>
        <mxCell id="zXSD_kcFRXYyIfpvOB7h-3" value="" style="shape=note;whiteSpace=wrap;html=1;backgroundOutline=1;darkOpacity=0.05;size=19;strokeColor=#000000;fillColor=default;" vertex="1" parent="zXSD_kcFRXYyIfpvOB7h-12">
          <mxGeometry x="40" width="40" height="60" as="geometry" />
        </mxCell>
        <mxCell id="zXSD_kcFRXYyIfpvOB7h-4" value="functions.csv" style="text;html=1;align=center;verticalAlign=middle;resizable=0;points=[];autosize=1;strokeColor=none;fillColor=none;" vertex="1" parent="zXSD_kcFRXYyIfpvOB7h-12">
          <mxGeometry x="15" y="60" width="90" height="30" as="geometry" />
        </mxCell>
        <mxCell id="zXSD_kcFRXYyIfpvOB7h-45" value="&lt;b&gt;&lt;font color=&quot;#ffffff&quot;&gt;CSV&lt;/font&gt;&lt;/b&gt;" style="rounded=1;whiteSpace=wrap;html=1;fillColor=#330000;" vertex="1" parent="zXSD_kcFRXYyIfpvOB7h-12">
          <mxGeometry x="58" y="31" width="40" height="20" as="geometry" />
        </mxCell>
        <mxCell id="zXSD_kcFRXYyIfpvOB7h-14" value="" style="endArrow=classic;startArrow=classic;html=1;rounded=0;" edge="1" parent="1">
          <mxGeometry width="50" height="50" relative="1" as="geometry">
            <mxPoint x="490" y="199.5" as="sourcePoint" />
            <mxPoint x="660" y="199.5" as="targetPoint" />
          </mxGeometry>
        </mxCell>
        <mxCell id="zXSD_kcFRXYyIfpvOB7h-16" value="" style="group" vertex="1" connectable="0" parent="1">
          <mxGeometry x="678" y="270" width="175" height="90" as="geometry" />
        </mxCell>
        <mxCell id="zXSD_kcFRXYyIfpvOB7h-32" value="" style="group" vertex="1" connectable="0" parent="zXSD_kcFRXYyIfpvOB7h-16">
          <mxGeometry x="10" y="10" width="100" height="110" as="geometry" />
        </mxCell>
        <mxCell id="zXSD_kcFRXYyIfpvOB7h-31" value="" style="shape=note;whiteSpace=wrap;html=1;backgroundOutline=1;darkOpacity=0.05;size=19;strokeColor=#000000;fillColor=default;" vertex="1" parent="zXSD_kcFRXYyIfpvOB7h-32">
          <mxGeometry x="10" width="40" height="60" as="geometry" />
        </mxCell>
        <mxCell id="zXSD_kcFRXYyIfpvOB7h-30" value="" style="shape=note;whiteSpace=wrap;html=1;backgroundOutline=1;darkOpacity=0.05;size=19;strokeColor=#000000;fillColor=default;" vertex="1" parent="zXSD_kcFRXYyIfpvOB7h-32">
          <mxGeometry x="20" y="10" width="40" height="60" as="geometry" />
        </mxCell>
        <mxCell id="zXSD_kcFRXYyIfpvOB7h-18" value="summary.json" style="text;html=1;align=center;verticalAlign=middle;resizable=0;points=[];autosize=1;strokeColor=none;fillColor=none;" vertex="1" parent="zXSD_kcFRXYyIfpvOB7h-32">
          <mxGeometry y="80" width="100" height="30" as="geometry" />
        </mxCell>
        <mxCell id="zXSD_kcFRXYyIfpvOB7h-17" value="" style="shape=note;whiteSpace=wrap;html=1;backgroundOutline=1;darkOpacity=0.05;size=19;strokeColor=#000000;fillColor=default;" vertex="1" parent="zXSD_kcFRXYyIfpvOB7h-32">
          <mxGeometry x="30" y="20" width="40" height="60" as="geometry" />
        </mxCell>
        <mxCell id="zXSD_kcFRXYyIfpvOB7h-43" value="&lt;b&gt;&lt;font color=&quot;#ffffff&quot;&gt;JSON&lt;/font&gt;&lt;/b&gt;" style="rounded=1;whiteSpace=wrap;html=1;fillColor=#330000;" vertex="1" parent="zXSD_kcFRXYyIfpvOB7h-32">
          <mxGeometry x="50" y="50" width="40" height="20" as="geometry" />
        </mxCell>
        <mxCell id="zXSD_kcFRXYyIfpvOB7h-23" value="" style="endArrow=classic;html=1;rounded=0;entryX=0.5;entryY=0;entryDx=0;entryDy=0;" edge="1" parent="1" target="zXSD_kcFRXYyIfpvOB7h-5">
          <mxGeometry width="50" height="50" relative="1" as="geometry">
            <mxPoint x="410" y="70" as="sourcePoint" />
            <mxPoint x="490" y="230" as="targetPoint" />
          </mxGeometry>
        </mxCell>
        <mxCell id="zXSD_kcFRXYyIfpvOB7h-34" value="" style="shape=image;verticalLabelPosition=bottom;labelBackgroundColor=default;verticalAlign=top;aspect=fixed;imageAspect=0;image=data:image/png,iVBORw0KGgoAAAANSUhEUgAAAgAAAAIACAYAAAD0eNT6AAAACXBIWXMAAAsTAAALEwEAmpwYAAAgAElEQVR4nO2dCXgW1b3/41LtbpXMZCGU1pJ5X0LCFtvrv9d77b5e7e1taTXzhgAiiIDiAkhve9N7JTMBREUw875hld2wgyBb3jfsoCgibrijoogioqBsyfmfM4EWFZQk58xv5p3v53k+D9b6aJY5v+/vnHfOORkZAAAAAAAAAAAAAAAAAAAAAAAAAAAAAAAAAAAAAAAAAAAAAAAAAAAAAAAAAAAAAAAAAAAAAAAAAAAAAAAAAAAAAAAAAAAAAAAAAAAAAAAAAAAAAAAAAAD4mbZl5d8qKrEvFn7vz3e2yS+xLxW2MysKoiV2sTD/2sof5JfaPztpJGb/IVJqd4ua1i9O/j2jtPKKk/981Bze9eS/R3hpbJR+8r9x5ZXl51N/zwAAAEDgEYEauWZEbn7M7hQx7R8ZsYr/5AHdwzCtQUbMKud/fQ//68n8/1vA/3cqYlqP879+2YjZ7/H/j1HIv56D/GvZzb+WZ/ifm/j/Xh6JWQ8app3gX9sI7l/419ffKLVK+T9/VbS04sr80sr2kV4jvkH98wYAAACUU9Bt9CVusIsQjFkDToTjVB6OK3hwPsn/3MODs4EqyMmaB9Peyb/vNfxnMIM3EXfzv3cr/9+maBSMayuiBd3Kv079uwMAAADOCA+qC6KllmGUVP6aB/tAHmxj+J9LedA9LYKOOmyDrPvzc1cY7CVukxCr7BeNVf48UmZ/J6NbzXnUv3sAAAAhQMxII6UjLouaVpmYxbuhFLNf4rPW49RBGUpN6zD/81n+e1jE/xwdKbVucN9tEM1Befm51M8LAACAACJeeHNn9DH7r+7n7qb1StiW6QOtaX/M3cybhHGiYWvfvbIDmgIAAACfQIR9fqn1Gx7yf+OBsZAHyGvkAQaly3+/HximXcf/+q9il0NGBjuH+tkDAADgIeItdHep2LQrjZi9FTP7sGq9w5+BmmjM7lNQNjKb+rkEAAAgGbFH3iixf2fErHt5wd+OwIefljeCx9x3Okrtbvx5+TL1MwsAAKCZREutVvkxu7so6twj1AEDg6T1vtimKVaJ8DEBAAAEgILSym+Lg3PE3nK8mQ8l+Wx+ScX1WBUAAACfkddt9Fci4sS8mLUJS/tQlY2HNdl/FStL1M88AACEGnGkrPhMn/IoXBg+T5xgODa/+/DW1GMAAABCgzgv3yix/uyehY/ZPiSUNwGHePM5HPcaAACAQsRRu+4Lfe7Z8fTFH8KT8mfyXd4IDG03cMyF1OMEAADSh2415/GZfs8IDuaBPlc0p0bM+hX1kAEAgMATKa38JS+qO6gLO4RN0YjZU4pK7Iupxw8AAASOyDUjcsUebOpCDmFzdXcMmBV/pB5LAAAQENg5hmndiOtzYfpoPWhce1cm9cgCAADfImb9PPiX0xdsCOXKn+td+ddW/oB6jAEAgO8wzIqfRkzrbepCHXhLK1mk+0jXaNldrH2P0a4FPe9h7Xvd61pw3b2sQ++x/7RPlWvBKX+v4Lr7/vHPu5749wjFv9f995eOoP9+g6RpHRarW9RjDQAAfEM0Zg3Dkb2fNNp9FA9tEdTjWGHfKlZ4Q4IV3TiBdRwwmXW6aSrrNGgG63zrLNbl9hrWdfA8Vjx0Abts2GJ22V8e8t47FrGuQ+azLoPnsC63Psg6D5rJOt08nXUa+AD/eiexon4TWBH/+hubDN5Y9Lybf38jyX/GdFrTOsZGfY163AEAABnFfRJfMkx7En1B9lA+axYBKGbYhX2dxlDnQdmZB3qX22pOBPkSmiD3Wt6wdB3MG4fbHnQbmo4DprjNgvi5/KNRSNdVBtPe3s6szKMegwAA4DnFfcq/asTsFeSFWImVPLzucWe8IuA73zzNnakXD11EH7oBVPzcutw2x11V6Nh/UmODcN29LFoW7FUE/vy/alxbEaUeiwAA4BkF3cq/zmf+ddQFuKW6y/S9x7rL82L2KpbkxVJ4sQ9CMyy6zQFvrk42Bx1Ec9Dr3sZ3IXzwjHyx1juGaX2fekwCAIByxMw/Ylrr6Atv02zf4y7W4fr7WREPmc63zOTBs5A8/ODnOGwJbwzmuO9LFPaNs/bixUUfPEen04jZH0ZjlT+nHpsAAKAM9xIf01pMXXC/2EpWcN2YxuV7PqsvvgNhnw6KlyU7DZji7nKIkj9jn2kCjvDG+GrqMQoAAEowTNuhLrRnDvz73CXkLrfOpnubHnqmWMERuxTa80aP/vk7oWkdjprWL6jHKQAASIXPuPqQF9hT7T7S/bxYvH1efAdezguzYidC0Y3jfbE1UVwvnG9W/Bv1eAUAAClEzcrLxeyGuriK0C/qV31ilh+SrXbwrC0etthdFYj2GE3bBMSsfdgdAAAIPOKNf17UXqIsqOJN/c43T3cLPHXIQP8rdnF0unkaa19G2AiY9suF11RkUY9fAABoNoZpJygKqDhARhwq4x6s44NQgQF02BL3kKYo0Q4CI2YnM7rVnEc9hgEAoMnwAvaTSMxq8DT4xTJ//0nu8bTkAQLTQrFyJN4RoDhbwDCtO6nHMQAANInGY36tpzyd8bvBj2V+qEZx10FBL493DZh2PW88fkk9ngEA4Kzh4T/IqyIpLswRJ/C1pLh3u6eO2Qt3sDmbX2Ubd+5lT7++nz3zxvvsyV3vsbXP7mHT1r7E/lazjf3KXkUeRJBWcSGTp6sBpr03v/vw1tRjGgAAvhD3xT9etJTP+stGupfoNLeQizBPrN7J3th3iDWFJ1/bz6yFT7Iryh8mDyNIozhlsH1PD18SNK11eB8AAOB7DLPyDtUFUZz33txZ/0/uXMFmbXyFHTlW36Tg/zT7Dh5hdz30NPuXvy4lDyToveLdAHExkYcrATdTj20AADgj7ln/MesdlYWwsE+cF9/m7eO/ffpWtu/Dwy0K/k+z880D7M9j1pAHEqRRnCDpURNwIHLNiFzqMQ4AAKclYlb2VRr+NySaVaR/8N9L2dS1L7GGBqnZ/w8+Pnqc/ffsx8nDCNIoPoqKlI7woAmwHqQe4wAAcBrYOSrf/G92+P91KVu27Q01yX8KorkQHwlQhxGkscttNd4cJ4xdAQAAvxGJVf5QWfj3qWpWUf7+fz/EFjz6mvLwP5WRi58iDyNIY5fb1TcBhmm/0Las/MvU4x0AAP6Bqtv+xNnszb2w595lz3ga/oL6+gZ2w4RN5GEEafSiCcALgQAA3+Ae/BOz9skvdpWs6+1zmlWIS+9fx44eb9mb/s1l74GP2c+GryQPI0ij+DhAPLvKVgFi1u52A8dcSD3uAQAgQ1xhqqLQdRwwqVkFWLz099Tr+0nC/yTiowfqIIJ0dho0TekqgBGr7Ec97gEAIIPPSCpkF7ho2Sh2WTNv8PufOdtIw19Q39DASsauJQ8iSGfRjRPUNQCmtaugW/kF1GMfABByjJi9VXaB63TT1GYVXfHi38tvf0id/y6rdrxJHkKQ1oLr71e3EmDavajHPgAgxFwaG6W7l5ZInf3f5V7H2pyC23f8Jurc/wfihcBf4v6AUFs8dCGLdh+laBXA3im231LXAABASOFFKCa7sInT1ZpbcL3e9vdFjMbZAKG386CZ6j4KiNk/oa4BAICQomL7X3ELbvd7a/9H1Jn/CTY+v5c8gCC9yu4NMK1Z1DUAABBSeAOwUWZBK+g9ttlF9nd3Janz/jN8dOS4exohdQBBWsVZFkrOBzCtw23Lyr9FXQcAAGGjvPxcI2Z/KHX5f8DkZhfZW6c9Sp33p+U/eWNCHUCQXvFsK/oooAd1KQAAhIyIOSIiu5g19+Af4T1LvT/572wYOHkLefhAesUtlu173KVgFcB+mLoWAABChlFi/VlmIYuWjWxRgR2ffJ4660/LsFm4KRA22ulm+QcEGTH7iLiKm7oeAABCBC88w2UWsg69x7WouE5b9xJ11p+Wv899gjx4oF9comRbYNS0fkFdDwAAIcIw7ekyi5g4Oa0lxdWvKwB3zHzMB8ED/WJR/4kqPgaopK4HAIAQEYlZa2QWMXF+eksK691Ln6bO+tPSb+Jm8tCB/lEcDqTgsqBHqOsBACBEREzrRZlFrCUvAApvmerPXQD/MbKWPHSgv+wg/Yhg63hRiX0xdU0AAIQCdo7YgyyziIm90i0pqleNqqXO+s/wwcdH3dsJqQMH+svOKl4GLLF/R10VAAAhoPCaiiy5BaxSSmF98z1/nQSYevot8rCB/rPxYwC5DQD3/6jrAgAgBERjFYUyi1f7HqOlFNaaTa9SZ/4nGD5/O3nYQH9acN29chsA01pIXRcAACGAz9h/KLN4FfQaI6Wo9nDWU2f+PzhyrJ79+P9WkAcN9KdF/SdJbgDsl6nrAgAgBBgllb+WWbw6XD9OWmHdvus96ux3mbdlF3nIQP/a+dZZkj8CsI4X90l8ibo2AADSHNmnABb2rZJWWAc98Ah19ruz/9/hDgD4ORYPXSC5AbBZfol9KXVtAACkOfklFdfLbQASUovruufeJm0AJqVeIA8Y6H9l3xBomBU/pa4NAIA0x4jZt8gsXEX9qqUW1qtG1rIDHx0lCf+X3v6AXVH+MHm4QP9bcN19UhuAqGldS10bAABpjhGrGCK1AWjhMcCn87Zpj7L6hgZPw//Q4WPsT/euIQ8WGAwL+zpyG4CYNYC6NgAA0hxeaIZJbQD6T1RSYCsX7fAs/I8db8DVv7BJFt6QkPsRQMwqp64NAIA0xzDt/5FZuDoqagCEIxc/pXwl4OOjx92XD6kDBQZLsfIlcxxFYpZNXRsAAGkOLzT/K3cFYJLSQjt05mPs4OFjSsL/zf0fse5V68nDBAbPjgMmy20ATOtu6toAAEhzjJg9XO4KgNoGQPj70Sn26EvvSgt+saiw5LHX2U/uxGE/sHl2vOkBySsA9v3UtQEAkOYYMasiaA2A8Pv//RC7Y9Zj7IU9H7Qo/B958R12XWIDeYDAYNvppqmyVwCqqGsDACDNCWoDcFLRCPSbsMmdwe87eOSsQv+NfYfYjPUvs5Kxa8mDA6aHaAAAAIEj6A3AqYpmQGzdGzbrceaseo5NXfuSe4zvlDUvsvuWP8tun77VvWqYOixg+okGAAAQONKpAYCQSjQAAIDAgQYAwpaLBgAAEDjQAEDYctEAAAACBxoACFsuGgAAQOBAAwBhy0UDAAAIHGgAIGy5aAAAAIEDDQCELRcNAAAgcKABgLDlogEAAAQO2Q1AtGwka99jNCTxblZw3X3u3fSdbp7GiocuIg/GsIgGAAAQOGQ3ANA/Rksr3Wtqi+9AI4AGAAAAPgUagPS3fc/RrOvgeeQhmc6iAQAABA40AOEw2n0U6zp0PnlQpqtoAAAAgQMNQHhs3/MedtmwJeRhmY6iAQAABA40AOGy08AHyMMyHUUDAAAIHGgAwmW07C7ysExH0QAAAAIHGoDw2eW2GvLATDfRAAAAAgcagPDZceBk8sBMN9EAAAACBxqA8FnUr5o8MNNNNAAAgMBhmNbfqAMJeqs4KZA6MNNNNAAAgMBhmHZv6kCC3ooGAA0AAABkRM3Ky6kDCXorGgA0AAAAkJFRXn6uEbPfpA4l6J1oANAAAACAi2Ha/0MdStA70QCgAQAAAJeCbuVfN2LWbupggt6IBgANAAAA/INoqfX/eNE5TB1OUL1oANAAAADAJ+CF5yojZn9IHVBQrWgA0AAAAMBniMYqCg3T3kgdUlCdaADQAAAAwBlg5/AidBUvQrOMmP0edWBBuaIBQAMAAABnRaTXiG/kl9iXQhojMet2NAD+Fg0AAAAA6URNqwwNgL9FAwAAAEA6aAD8LxoAAAAA0kED4H/RAAAAAJAOGgD/iwYAAACAdNAA+F80AAAAAKSDBsD/ogEAAAAgHTQA/hcNAAAAAOmgAfC/aAAAAABIBw2A/0UDAAAAQDpoAPwvGgAAAADSQQPgf9EAAAA+QTuz/Jvidr18s/K3Rqyyn2HaViRmTYuYdo0Rs1fwQV7L/9xqxKwn+aB/CcLTatp7I2gAfC0aAABCSnGfxJfyS4Z3NmIV1/HBez8v2Jt50L8vtSBAKEk0AGgAAADNJK/b6K8YJZW/5jP6MXywPsIH62Hqog7h2YoGAA0AAKAJiGtZozG7j7t8b1ofUBdxCJsrGgA0AACALyBqDs8xYhVD+IB8mrpoQyhLNABoAAAAp6HdwDEX8gF41YmZ/lHqYg2hbNEAoAEAAJyCO9s37VFGzNpHXaAhVCkaADQAAABO+5I72za+zGd9RF2YIfRCNABoAAAINe26j/weD/4Elvlh2EQDgAYAgFBS0G30JSdm/MepCzGEFKIBQAMAQKi48sry8yOmPdCI2e9RF2AIKS28IUEemOkmGgAAfAoP/h9xt1MXXgj9YMcBk8gDM91EAwCAzxBn8fMZ/xTqgguhn+w8aCZ5YKabaAAA8BH511b+wDDtF6iLLYS+snQEu2zYYvLATDfRAADgB7rVnMdn/UPxdj+En7Ww33jysExH0QAAQEykzP4OD/4N1EUWQl/afSQrvmMheVimo2gAACAkv8T+dz5o3iYvshD60Ci3862zyIMyXfVjA1BennFuKq79KuloDveRVFx/IxnX3/O1jv56ytF38q91azKupfifS1OONpt/H/fyvx5UG9f+q7Y6q8PWRMaXZOQGSAMipn2zEbOPURdZCP1otLSSdbp5BnlIprN+awDqHP3nPDS389Bk6ShvFI7ypuZJ/uekVELvvdrJLpCVJyAolJefa5j2WOoCC6FfLeg1hnW9fQ55QKa7fmkAGMs4hwfkX3kwNlCHtOc6+m7+58SUo/1xcSLnq7LjBviItmXlXzZMay51gYXQb0a7j3JP++t8C5b8w9YAJON6OXkQ+0FHO5iMazOTiczf1tRknCc7fwAhHWOjvsYHSC11oT2rYlw6grXveQ/rcP04VnRDNes4cDLrdPN01uXW2a5idtZ18FzWdch8CFtk8dAFPIyWkIdhGPVDA1CXyPx1KGf+X9wM7OI/l/9eUZWlq8gj4CGRXiO+wQfIWupgP1PYF1w3hhX1q3ZDvuvgeeSFCUKoXuoGQMxyU3HtafKw9bXa4WRcn5oap7VTlU9AIWLm77dtftGyu9yz1d3lVhywAmEopW4A6hz99/QBGxAd7Yi7qyCRk6kqq4BkCrqVX2DE7BXUgd8Y+qNY4Y3j3aV76sIDIaSXugHgwfYAebAGTUd/P5nQb0uVZ5yvKreADMTb/jF7DnXwd+g9js/0xXYqfM4KIfyn1A1A0tGfJQ/U4PpEqkq/XFV8gRYSMe1K0uDvU4XP8yGEZ5S6AeAhdsAHQRpYk3G9PuXoY2pqCi5QlWOgGUTMij9GYlYDgh9C6FepGwC8/S9JR39sVXWmoSrPQBNoV2p3MUz7kNfBX3Ddffh8H0J41qIBSB/5z/KDZJX2B1W5Bs6CgrKR2Xzm/7qXwR8tG+kOZOpiAiEMlmgA0kvx8xSHKomTFVVlHDgD7QaOuZDP/Dd6Gf4d+sbZZXcsIi8kEMLgiQYgbX0AFw95TMS0R3g26y+tZB0x64cQtkA0AGnt8o2j876iKu/AKURLrf8XiVnHvQj/9j3vxmf9EMIWiwYgvU3G9bXrJ7T6hqrcA5ziPuVfNWLW816Ev3jDv3gY9vNDCFsuGoAQ6OhrcMugQry62rewXzV5wYAQpo9oAMJh0tFWLRvT7kJVGRhajJj9Ey/2+3fsP4m8WEAI00s0ACHS0WZgd4BE8rqN/ophWq+oDv9ON08jLxQQwvQTDUDITOh/U5WHoYOH/9+Uz/wHTCEvEhDC9DTdGoCjm9qwY5vyPPfIhjz20bo89uGaPPZ+sjXbs7w1e2VRLnu2Joc9Ni2L1SWy6MM/3nh0cG2VfrWqTAwNhddUZPEH/oDS8MeyP4RQoenWALBH2vjS45vbsP21eezVxbls69Rs6kbgQN392e1VZWMoiJj2BJXhX3TjePLiACFMb9EA0HhorVghyGGbJhOtDDj6zmVjLvmmqnxMa/JjdieVe/479B7Lin1QHCCE6S0aAFobtrRhe1fmskemeN8IJOP6ZFUZmdbw2f8qVeEf7TGaFQ/F0b4QQvWiAfCHohF4e3lrtmGit41AnaP/XlVOpiWR0spfKgv/0krWZfAc8qIAIQyHaAD8pXih8IV5uazOq1UAR3snNU7LVpWXaQd/wGtVNQCdbsJ2Pwihd6IB8KdiJ8FGj1YDeBOwWFVephWR0hGXqQr/DtePIy8GEMJwiQbAvx7d2IY9McOjHQOO9kdVuZk2RGLWg0qW/ruPZF2HLCAvBhDCcIkGwN+KdwN2zsvxogHYhfsCPgcjdud3jZh9TM3SP671hRB6LxqAYPjifPVNQNLR7lSVn4HHiFn3KVn6730feRGAEIZTNADBUZwboLYJ0A7XOZn5qjI0sLQtK/+WYVoHVTQAXW7HW/8QQhrRAARLsUNAcROwUFWOBpaIWdlXyey/r0NeACCE4RUNQLAU7wTsmK32xcBkIutfVGVpIOEP9nrpDUBpJes6ZD55AYAQhlc0AMFT3Cvw6APqtgjy38nDqrI0cLTrPvJ7kZjVILsBKOpXTT74IYThFg1AMBU3D64br64JqE1oP1SVqYEiYtp/VzH7Lx6KbX8QQlrRAATXt5arex8gGddWqsrUQGGY9k7ZDUBh3zj5wIcQQjQAwfbpBxXuDEhoV6jK1UBglFT8q/TZfwxv/kMI/SEagGAr7g5QdYFQMq7NV5WtgcCIWffKDv+C3mPJBz2EEArRAARfVR8FJON6/aoq/VJV+ep7+AP9rOwGoPMts8gHPYQQCtEApIfbpivaGuhoo1Xlq69pX3JnW9nhHy0bxS4btoR80EMIoRANQHp4cE0eq0soaADi+oFlYy75pqqc9S3RmN1HdgNQ2G88+YCHEMKTdhwwRWqNM0x7TFPqLBoAeT43R80qQDKu9VeVs76FP8jzZDcAXW7Dy38QQv9Y1H+i7AZgVFPqLBoAeX68Po+tUbAKwBuAHapy1pdceWX5+ZGY9b7U5f8eo8kHO4QQnmrhjePlNgAxe3hTai0aALnunKtmW2CyKrNYVd76DqO08grZs3/RaVMPdgghPNXCGxJS61w0Zg1rSq1FAyB7FaANW1OtoAFw9PtU5a3vMEz7f2Q3AF1vqyEf7BBCeKod+lRJrXP5JRXXN6XWogGQr4p3AZKO9k5NTcEFqjLXVximtVJqA9B9JCv2wWCHEMJTbd/rHrkNgGn/vim1Fg2AfA+uzVPyMUCdozfpdxtMutWcxx/kAzIHheiyqQc6hBB+2mhppdQGQHx82pRyiwZAjdumqzgdUFuoKnZ9Q7tSu4vs5X+x15Z6oEMI4akWD5kvtc65KwDdh7duSr1FA6DGd1a2VvAxgH40Nfmib6nKXl9gxOz+sgcFbv6DEPrNLrfOltsAmNbhjPLyc5tSb9EAqLGBu2mSglUAR79WVfb6At4AzJQ5KKJld5EPdAgh/LRFN0o/A2BnU+stGgB1vrJI/pZA/vuqUZG7voE/yK/JHBSFffH5P4TQfxZcN0Z2AzCvqfUWDYA6xcFA0huAuP7hxtF5X1GRveR87893tpG9/C+O2qQe6BBC+AmHLWYRyS8ARkz7702tuWgA1Pq4gkuC6uJZVymIX3oiZsUfZTcAXW7H/n8Iob+U/vl/o39oas1FA6DW3UvlXxXMf2eTVOQvOUbMGil3QFTywYbb/yCE/rKwr9wTAIVN3QEgQAOg1mOb8qSfDJh0tL3l5RlNetkzEPAGICVzQIjP2KgHOoQQnmrxsMUs2n2k7OX/l5tTc9EAqPfJmfJfBlydyOwqO39pKS8/NyL5AKCiG3H9L4TQX3YeNEP67N8w7enNKbtoANT75sMKzgSIa0NlRzAp7cyKAtmDQgw06sEOIYSn2uH6+6U3AFHTKmtqzd2ayPiSzFCqS2SRh60fPbIxj9VJbgBSjrZaRQ6TwR/iHrIHRVccAAQh9JFdh8xnUcl1LhKzGqLm8Jym1tz1E1p9Q2YorR2PFYAzKX83gHZ4xdSsr6nIYhIipjVO5qBo3wMHAEEI/aXs639PuK05NXdFVZYuM5TWT0ADcCZfe0j+bgDeBPxKdg6TYcSsTTIHBS4AghD6SbEiKXYmyW4ADNP6W3NqbirRKiozkDZOxEcAZ/KQihsCHW207Bymobz8XP4QH5Q5KDoOxAFAEEL/WNhvvIrZPzOurYg2p+zWxjP/XWYgPfoAGoDPc9Mk2Q2A/pjsKCYhWmoZsgcFDgCCEPrFroPnKZn9R0zriebW3Von808yA2nbDDQAn+dzcyVvB3T048vGXPJNmVlMgvwTAHEAEITQPxb0Hqtm9m9ag5pbd5OO/j8yA+mp2TnkIetn316uYDtglfZLmVlMghGzh8scFAW97iUf8BBCKOx0s/x9/274x+wj7XpWaM2tu8m4NlNmGD0/Dw3A53l0YxuWSkhuABztTplZTAJ/kBfJHBiFN8TJBz2EEBYPXeheSa6oAZjZkrqbdPRtMsPotSW55CHrd7dOlbwd0NHrJMUwHYZp7ZI5MDoNfIB84EMIYYfrxykJf2HUHN7s42DFWfIpRzskM4z2rmhNHrB+94X5ct8DSMa1j2pqCi6Qmceecmm3yovEQRYyB0bnWx8kH/gQwnDbccBkZeHPa+ZDLam7q6r0S6XORLkf1KEB+CL3rpT/HkBtQvuhrDz2nPxrK38ge3AU37GIfPBDCMNrl9tqmJK3/k8u/5dU/GtL6m6to3WXHUTi5jvqgPW74lhg2T/3pKMNkZXHnpMfs7vLHBjte4wmH/wQwvAqtvxFyyTf9ndq+MesVEvrbjKuT5UZQpsmYQvg2bplSpbkJkBbJCOLSZC9A0BctEFdACCE4bR46AIW5ZMQdUv/3NLKFm/94sHxhswQ2jE7mzxYg+Jzc+S+CMibubdkZDEJhmnNlTk4im6cQF4EIIThU3z0KLYgKw3/mLWmpTW3tjqrg+xl6AV6cfEAACAASURBVFcWYQvg2frWcvn3AqxK5HxbRh57jmHaO2QOkE43TycvBBDCcClm/u173qM2/E27PlI64rKW1lweGINkB9C7q/AC4Nn60Tol9wL8UUYee0u3mvP4Q/2xzEHS5bY55MUAQhgeuw6Zp37ZPyZO/bMnySi7SUdLSg2fBF4AbKobJsp9DyDp6CNlPBueYsTu/K7sQYIdABBCr+xy24MsWjZKefhHYtY7xrV3Zba05taOy26bjOv1MsMHlwA13R2zcCBQRqSk4scyB0n7srvICwKEMBx2HPgAU7nV71SjplUmo+by2frfZC8/Pz8fn/831V1LZB8IpH9YU5NxnoxnxDP4g91D5iARF25QFwUIYXpbPHSR0hP+PqNpL83IYOe0tN4ylnEOnym+KLsBwOf/TXd/Uv57AHUJvUhGLnsGf7D/LnOgFN6QIC8OEML0tfOgGR4t+TdqxOw9BWUjs2XU27qqzH+THTprEjo7vpk+UIOm+JnJvhgoFdd6ynhOPMMwrckyB4s4epO6QEAI08/iIfOVXen7OTP/esOs+KmsessDYrrsBmD7DOz/b66PyD4QyNHHyHpWPEGcaCVzwHTi3Tl1oYAQpo8i+Av7jWfR0hHehn9jA/B3WbW2zsnM5wFxXHYD8MZS3ADYXJ+bK/1ioBafEOkp/AF/WeaA6XpbDXnBgBAG366D57vXinv1kt+nNUy7TmyTllVrk44+SXb413HF2fbUQRpUdy+TeyBQMq6/J+t58QB2jhGzj8gcNOLuberCASEMpsXDFrNON01jBdfdRxL6/wx/65WoOTxHVqUVW/9SjnZEdgPwxEws/7fED+rkvwgYmBMBC7qNvkTqwCkdQV5AIITBsuuQ+Tz0p7LCPlVuDaEM/katdyLmiIjMWsvDPyE7aIRvPoy3/1ti/eY24s19yasyWVfJfHaUkV9a2V7mwGnfE7cAQgjP4LAl7rJ+51tmuS8LF/aNuzeH0gf+qTN/+1DUrLxcZp2trWoVUTH7Xzsep//JUPqLgHH9rzKfH2VETPtHMgePWLYjLzIw0HYdusC9x73ToGms48AprKj/RHdraQc+OxSKt8A7wEAo6oE4m98N+e7ial6az/LPOvxj9rFoifUfsussD//VKmb/4kY76vBMB5+pkX4z4BzZz5ASDLPyTzIHkCjQ1AECg2HxHQv5THDmiZlgFQ+Ku8UVq+QhAEOquOTHtHvJrrGpqqxrVIS/8EAKs38ZvrZE9ouA2jOynyMl8Ad+oMxBVNivmjxYoD8VN7V1unla47KvCHvqgg/hCQ3TOhopqSyRXV+Xjbnkm0lHf1NF+G+ditm/LN+rbS339yM+7inPOF/28yQdI2YPlzmQOg6YRB400D92uX0OK7pxAivoqfp+dgibp/jM3yip/LWK+pqKa/eqmv2/vRwv/8ny6MY20n8/q6ozDRXPlFQipjVO5mASb/JShw6ktevguW7o++3lLgg/LZ8AvReJVf5QRW2tS2T9WMWhP8JNk7JYwxb64EwnN0yQ+zuqrdKvVvFcSSVi2lNlDqjOt+AUwFAq9m7fPI0V9BpDXtQhPDut16OxikIVdTU1TstOOdoeVbP/15fi5j/ZbpshdydA0tGGqHi2pBIxrYUyB1XnW2fThxH0TPHGvpjtR903vKkLOoRnp2FaKy+NjdJV1NTy8oxzk3Ftparw3zAxy927Th2Y6eZOyUcCp+LaBBXPl1SMmJ2UObDEZ77UoQQ9CP7B81hhX4f5fVsXhJ9QXOwTs8p5Sp+rqqYm43q5qvAXiqNrqcMyHX39Ibk7AbjrVT1j0uANwFaZA0wc8kEdTlBh8A+d7+7Jj1IXcgibrPVOpLTylyrraa2T+RtVn/sLxWf/9fjsX4n7ZO8EiGvvqnzWpGCY9k6Zg0zs7aYOKShfcb9DEQ9+7NOHwdR6KHLNiFyVtbQukf19Pvv/UOXsH2/+q/Pwevl3AohtoCqfuRZjxKzdMgda8bAl5GEFJcp/n+KgHnzGD4Op9Xq0tOK/VNdRcc1v0tH2qgz/x6dj379qxdHKMn9ndQm9SPWz1yIipr1X5oAjDywozc63PogDe2AgFUf6Rkzr7kivEd9QXUPXTszW+Mz/eZXhn0ro7q111AGZ7j76gOQ7AaqypB8rLZXGfbCyBl4leWjBllt8xyL3c37qIg5hszSt2vyY3cmL+umGv6NvUxr+XPGGOnU4hsEds+XeCZBytAFePIfNhjcAH8oaeNFSNABBt8uts1n7HnfRF3EImyivZSuM0sorvKqdK8e2yk3GtR2qw19s+8ONf974wny5WwF5czjSq+exWfBu+bCsASg+J6YOMNhMxWf9/Sfh7X4YPE17lezre7+IVKJVlM/udqkOf+E7K/Hin1fK3grIG4AaL5/LJhOJWcdlDUQ0AMFUbO0r6IWz+mFwPLFyWd2u1O7idc1MVmUWq37h76RPP4gX/7xUNFtyGwDtEa+fzybAzpE5KKNlo8jDDDZNseSPN/xhIHQP8bGThmn39uLlvtORjGf9WfVWv5NunKRj6d9jP1wjeSugo++meE7PmkjMapA1QNEABMuOAydjyR/6XOsjHvwP8+DvHzWH51DVya2JjC/xYj7Gi+B3Tehsfy3C32tFwyV1BSCuHxNHQ1M9t1+Iew+2rMGKjwAC4hJW2Bdv+UMfatof8z/XimvKjZj1q7xuo79CXSNT1ZfkJR1to2fhz315Id76p3JttexmLieT+hk+I26HLWvwdh/hg3CDn6fY4lfQeyx9oYfhVSzlm9Zb/M/NEdOaxYO+Ij9WeU07s6LgyivLz6euiadS5+i/9+rz/pNun5GNq34J3TxZ7lkAtdVZHaif4zPCB+QBeYMb2wD9rDimuaBnQF724yHB/3zJPcLVtO7mgfE3Piu8xf38t9TuFjWtX+SX2j+D/jZSUvHjaIldLIyYIyLRUqsVdc07G9YkMnPEG9xeBr9w0ySdHd1IH4Jh9vFpcs8CqK3K+gn183xGeEF9V1bRFp8nU4ccPEP4D13Aw/8e+mA/s8/ymeB9PNivFW92+2HpF4QP8XmtOLyFF+4DXoe/OIb2wzps+aP2KemHAenXUj/XZ4TPqvbILOTFPgg7+Nnwj/YYTR3wn5CH/T7+7M3kM/ye3/vznW2oxwEAybj+01Rc2+J18AvruO+uQvj7wefnyT0MiDuI+tk+I4Zp7ZLaANyxiDzw4Knhv9BH4S/OnLCWGWbln9oNHHMh9bMPgCCZyLySz9LWUAT/Sd9YmksefLDRVxfLPQwo5WgV1M/4GTFMe4fUBoDPNqlDD54If/czfx8s+5v2y9GYNSy/+/DW1M87ACdpDH5tNWXwC/HGv7/cvUzyaYBxfSz1s35GDNPaILPYdx08lzz44Im3/Ylf+OPN5Qtiib+4T+JL1M85AIJ1VRddzAtyn1Rc204d/EKx3EwdePCT7lkh9zTAlKNPoX7uzwhvAJbLLPpdbqshD7+wK97DKLj+fsrwfykas/v4bUsXCCeLEzlfra3Sr07GtflJRz9KHfonfbYmB9v9fOi7q2XfB6AtoB4DZyRi2jUyi3/nW2aRB2DYpbrK171a2qzsm9Gt5jzq5xqEm1VV+qVips9DfwkvwB9Th/2nfW4O9vr71feTslcAtNXU4+GM8AZggswQ6DRoBnkAhtmOA6YQzfqtaYXXVGRRP88gXKyf0Oobq52sH6TiWk9x9SovuEt58L9FHfCfJ5b9/e1ByfcB+PpCIHHIitQGYOAU8hAMq+Jin0hppbezftPeyWf+/j3oIqPx3vZUQrui8SIXrT8PiPKUo1fyzjwBg6I+xT2Yx9Hn8d9hirvD70F/OvHCn//9eH0b2b/356hr4BmJmPZfZAZC0Y0TyIMwjHYdssC9jMnTWb9pTy3uU/5V6mf4JMvGtLtQBD0fcINOBMY2Py7/wvBZl9DZmw9jn38QlH4hkKO/Tl0bz4gRq7hOZigU3hAnD8PQOWwJK+g1xrtZv3sXu2VSP7uMZZyTire67MSMfg3CHvrRdeOz2L7VCP+geHyz5BUAR9tDXSvPCC/oV8kMhw69x9EHYsjs2H+ih7N+65lorKKQ6nkVR7XWxjP/nYe9E8QlYBgut0zJZofWIvyDpHg5U+pz4Gj7qOrlF5J/beUPZAZE+173kgdimOxye42Hn/tb86nO6F9z/8VteOjfmYxrr1EXdQjPxh2zs93lZOpAg003lZD3HCQd/QOKmnlWtC+5s63MkBCfQ1OHYmgctpi19+6Y32qK7X1itp+KawtTjn6cuqBDeDau4eHx+hIc7Rtk11TLex74pOUjr+vmWdO2rPzLssPisr8soQ/HEFh443hvwt+0KzMy2DlePZPis33eNf+OD5xN1MUcwqYo7pL/ADf6Bd61UhsA/ZhXtbNZ8AK/X2ZgdB08nzwc090ut89xr19WHPz10Zg1wMtnkfJGNgibbaJxf//xTfThBVvu+vFynw8xqfGyjjYJXui3ywwOsR+dOiDTWfeo314enPNv2gO9egbXVGd9l8/6l5EXcgib6JYpWe7pcdShBeUpdm7IfEbEy8te1dImY5jWYpnB0fGmqeQhmc524j9fD8L/7148e1sTGV9KxrWhKUc7RF3IIWyKYplYXB1bjyN9006ZHwGI95e8qKXNxohZ98kMDxwGpE5xy5/yA39Mq8qL5642of0w6WhPUhdyCJvqUw/muCfGUQcVVGNdQt4KgK9fAhRESuzbZAZIYZ8q8qBMV5W/+GdaszLKy5UuV4kT+5KOfl8yrtdTF3IIm+K26dlY7g+BUp8bR39fZT1tMRGz4o8yQwRnAaixeOgCFlW559+0t6s+2vfEZ/2PUhdyCJvi1qk4zS8sNmyRfhnQOypraouJlI64TGqQlI4gD8t0VOU1v4ZpfRAxR0RUPmd18ayr+Kz/PepiDuHZ+sSMbPZeLYI/TMo/CljfrbKutpiCbqMvkR0oYrZKHZjpZPGQ+QpP/LMaoqUV/6Xq+UqVZ5wvbt/jM/8G6oIO4RcpXgB7bk429vOH1CMbJK8AxLVXVNVWafAQeEdmqGAroFyLbqhWt/Qfs0ereq4WJ3K+iu19MAhunZrN3liai+N7Q+6hdXIbgFRce1pVfZVGxLTWyQyVTgOnkIdmulg8dJH7sYqapX97R0G38gtUPFPrqi66mA+A9dSFHcIzuWVyFntlUQ47tBahDxv9oE5yA+DoG1TUV6lETHuCzGAp6ldNHpzpYsf+k9TM/E273iip+FcVz1NqnJbNO9/t1AUewlMV5/SLz/VfeyjXnelRhw30n+KdD8nP3VIVNVYqPAwGywyXDr3vIw/O9HAJi5bdpWb2H7PiKp6lVVX6pbzrfZG62EMoTnQTgf/Koly2vzaP1W+mDxjob/eukNsAJOPaTBV1VioR07paZrhEu4/0QXgG3863zFC09G+9VVRiXyz7Oaodl92WP/RvUBd+GB7ruJsm6WzbjCz35b1di3PYu6ta46Ae2CzfXJYr9flMOronB6u1CLEFTHbIdB2KS4Faaofe45Q0AFHTulb2M7RqbG4r/rA/Sx0Ipw2JRBZ7ZEqWe4LbC/Ny2csLc9iuJTlsNx/s0P/ueTiX7V2Z687OxBKtOIzn0NrW7OhG+sCA6aU43llqAxDXLdm1VjpXXll+fsS0DssMmc63zCQP0CDrbv1TEP789/yE7Ot93bf9fXR970Y+I3x2Tg7bs7wxKMThHtSFBULof8WtjnJXALQhMmutMngwPC4zaMTLa9QhGmQ7DpispAHIN+3fy3xuTuzzf4g69MUM/7UluW7gUxcRCGEw3TE7W24DkNDKZNZbZRimNVlm0HS4/n7yEA2yBT3vkR7+Ytuf7LP++UM+kSr0147X2XNzs9mBFGb4EMKW+9g0uVcB1zn6z2XWW2UYMfsWmWHTvsdo8hANql0HzwvE7D8Z1/tQBb/4LF+c2kVdMCCE6ePGiXIbgNVOdoHMmqsM3gD8RHbgFA9dSB6mQVTF8r87+5f42X9dQi8SV116GfxrqnX3BT68/AUhlG3DI3KvAnadfNG3ZNVcpURLrVayQ6fzLbPIwzSIFlw3RsEKgHWTrGdlxdSsr/Hwf8bL8BdXseLzfQihKj+SfQywox2SVXM9wYhZu2WGTtGNE8jDNHDesUj6xT9GzD5iXHtXpqznJBnXJ3sV/Osn6O42MOriACFMb/dJPgWQ18kXZNVcT4iY9lKZwVPQeyx9oAbMToNUHP5jPSjrGUk6uulV+D/OZ/2H8Tk/hNADxWVQUhsAR0vKqruewBuAv0sNntIR7LJhS8hDNUiKexRkNwBR0/qFjOdDXPDDH+q9XoT/zrk52L8PIfTMF+bLPQMg5WgJGXXXM/LNyt/KDp8ut88hD9UgKX37n2m/IWvrXyquxVUHv7iwZe8KLPlDCL31yVmSzwAIyiFAJ2nXs0KT3QB0umkqeagGxeI7FrGo5J+/EbMmyng2VjtZP0jG9XqV4b+2WnePeqUuBBDC8Ll5ivQzAKRuu/YEI2a/KjOAOvSNkwdrUOx862zpy//5scprWvpMlJdnnMtn/1tUhr+4uQ0H+kAIKTy2SfIOAGFVVqGMTPYU3gDMkRlA7XvcTR6sQVH6/n/TrherOi19JlIJrZ/q8D+4BuEPIaRRXDAld/lfbxB3pMjIZE8xYhVDZM9Ci4cuIg/XIFjYJy55+d/e2tLnYePovK8k4/pbqsJffOa/P4llfwghnfJ3AOivy8hjz4mUVPxYdgPQ+VYcCHQ2KngBsLKlz0PK0QYom/3jhT8IoQ98bo7cFwC5S2Xksed0jI36Gp85HpMZREX9J5KHaxCMdB8hdwWgxPpzS56FrYmML/EGYJeqBkDc3kc98CGEcOtUyTsA4rolK5M9hzcAj8kMog44EOgLFfcmyF55iZRUFrXkOUg6WdepCv/tM7PJBz2EENZvbuN+FCmzvtU6mX+SlceeY8Ss+2QGUbT7SPKA9btdb6uR3ABYx9uWlX+5uc9ATU3GeSlH36ki/MWNW7jQB0LoB2W/AChcVZ1pyMxkTxFLx7Jno11xINDnKvsIYN7EPd+SZ6AuoXVTMvvHS38QQh+5a4ncFwBTjnZQbJ2Wlceek999eGvZDYDY4kYdsn6208AH5K4AmPaCljwDqbhWq6IBeG4ulv4hhP5xx2zJLwA6+gZZWUyGYVq7ZAZSh+vHkYesnxUvSkpeAbivub/7OiczX+xjlR3+4mY/LP1DCP2kqEsy61wyro+VmcUkGDF7ptQZafcRPOhwMdCZLJR8CRD//Q1v7u8+5WgVKmb/by7D0j+E0D8eWqvgBEBHv1ZmFpNgmNaNsj8G6HLrbPKg9auFfWUfAlTR7Iso+AP8ouxB8egDWaxhC/2AhxDCk8o+AEhYOy67rcwsJiFijojIbgCKbhxPHrR+tUNfR+rPOlJq3dCc33tdIvv7Kmb/b6/A7B9C6C+lf/4f19+QncVkyH4PoH2P0eRB61c7XF8ltwEoqSxpzu9cHGAhO/y3TOazfx8MdgghPKlYkRT3kEiudw/KzmEyxFWy0j8GGDyXPGz9qHhJUurP2rSubs7vnD/AT8huAN56GCf+QQj9pYr9/8lE5k2yc5gMcZWs9I8B+k8iD1s/WnD9/VJ/ztES6z+a+vteObZVruy3/8UbtvX47B9C6DNfWZQjvQFIxVtdpiKLSTCuvStTXCkr9WOAnrge2K8NQK2jdZc9IJ6fl0M+0CGE8NM+Nk3y8r+j7RMnqKrIYjJ4mGyT/zEATgX0YwOQjGvVshuAA6k88oEOIYSneni9/O1/SUevUZHBpERMe4T0jwH6TSAPXL/pkwbgGZkDQrz8Rz3QIYTw0+5eJn/7X8rRr1eRwaREzcrLZTcA0e6jGA4F8lcDsGzMJd+U/fn/Swvw8h+E0H+K20jlNwBZ31EUw5Swc4yY/arsJqDzoBnkoesnqRuAuqrMf5M9IN5bjb3/EEJ/eWxTnvTrf8XNqaoSmBwjZt0luwHo0Hsseej6SeoGIOVoA2QOCDHAjm+mH+wQQniqe1bI3/7HG4BxqvKXnPyY9S+yGwBh1yHzyIPXL1I3AElHr5I5ILZNx61/EEL/+dSD8pf/a53M36jKXx/AzjFM6xXZDUDhDQny4PWL1A0Af4iXyxwQ+PwfQug33eX/arnhzydPHywb0+5CVenrC1R8DBCJVbLioQvIw9cPkjcAjr5T5qDA6X8QQr/51nIVb/9rs1Xlrm+IlI64TMXHAEU3YkugHxqApKN9LHNQYP8/hNBvPjlLwfJ/Qm/WvSuBI2Jaj8tuAKLdR7LiOxaRBzC1lA2A2AIoe1Ac3UQ/2CGE8KRHN7ZhdQm5p/8lHf1oavJF31KZu75BXDGLVYD0awDWVGd9V+agEDdsUQ92CCE8VRWH/yTj2kqVmesrCrqVf52HywHpqwClI0L/LgBlA5CsyiyWOSg2TUIDACH0l2JnkuwGgHuDysz1HYZpOypWATr0jZOHcFgbgFRCu0LmoHjkATQAEEL/+LE4+1/y4T/u8n8iJ1Nl3vqO/JLhnVU0AMKut4f3kiDKBqC2KusnMgfG49NwBgCE0D++skjJ8v8SlVnrW4yYtUlFA9C+173ssmHhvCOAdAUgrv1K5sDYPgMNAITQP26eLPnq38YVAFNlzvqWaGnFf6laBeg4YDJ5GIetARCnWMkcGGKrDfWAhxBC4f6kiqN/tUOpcdrXVeasjxEXBFlPqmgAoqWVrHjIfPJARgOABgBCGHyfm5ujogGYoTJhfU9+rPIaVasABdfdx8J2XTAaAAghlKu4kGyt5KN/hXXxrKtU5qv/6VZznhGznlPVBITtbAA0ABBCKFcVe//57H9fTU3BBSrjNRBETatMVQMg7DRoJnkwowFAAwAhDKaPPqDi5T/NUZmrgeHKK8vPj5jWi8qaAHFMcEjeB0ADACGE8nxfxct/3Np45r+rzNVAoXJHgLB9j9Gs+I6F5AGNBgANAIQwOD7zoPyT/5Jx7bXy8oxzVWZq4DBi9gqlTUCve9L+wiA0ABBCKMcjG/PYGgUv/3FHqMzSQBKNVRTyJuCYyiagQ++xrHjYYvKgRgOABgBC6G9fXqhg6x+37v7s9iqzNLAYpj1WZQPgrgRcNyZtVwLQAEAIYcsVW//WT1Aw+3f0NSozNNAUldgXR2LWO8qbgJ53s65peHMgGgAIIWy5ry9VM/vnxlRmaODhwdNDdQPgNgE9RrMug+eShzYaADQAEEL/2PCIsnP/9y9O5HxVZX6mBUbMnuNFEyCODO448AHy4EYDgAYAQugP9yxXs/UvGdfHqszNtMG49q5Mw7Te8qIJEHboU5UW7wWgAYAQwubbsIXP/qcomf03pKqyClXmZloRMa2rvWoAhOIjgaCfGogGAEIIm6+SY3/d2b+2UmVepiUR057gZRMgLOg9NrDvBqABgBDC5lnPZ/8bJ8kPf7cBSGT+VmVWpiUF3cq/bpj2Dq+bgCi38IY463p7sBoBNAAQQtg8X3tI1exffx4n/zWTSJn9nYhp7/W6CThp+173sk43T2eXDfP/1cJoACCEsOmKU//WjZf/2X+j2kCVGZn28AbgR4ZpHaVqAtxGoOwuVnhDgnW+ZSZvBvx5miAaAAghbLrP1qjZ9y+2/q2f0OobKvMxFERKrRsoG4BPBGNpJevQexzrOGAybwhmsa4+uW0QDQCEEDZNVTf+uTra3xXGYriImNY46vA/o6UjWEGve1kHHsKFfR1WdEM1K7pxgtskdLppqieKC4/QAEAI4dlZv7kNe/QBVUv/+oHl4/MuUZmJIYOdw4OpmjzsQyIaAAhhOvviAmVH/orZf4XKNAwn3WrOi8SsadThGAbRAEAI01Wx9F+nLvwPrp2YramMwvDCmwAjZs2gDsh0Fw0AhDAdPbpJ3Z5/YdLRR6qMwNBz5ZXl5xumNZc6JNNZNAAQwnSzYUsee2JGtrrwj+vvrRqb20pl/gGB+DjAtCupgzJdRQMAIUw3d85V+Ll/4+z/ZpWxBz5FfknF9dTnBKSjaAAghOmkqtP+Tpn9v1BTU3CByrwDpyEaq/x5xLT3U4dmOokGAEKYLr6xVG34C+sc/fcqcw58Du3MigIeXE9TB2e6iAYAQpgO7lqidtnf1dHXqMw3cBa0LSv/svtegGnXUwdo0EUDACEMsuKGv+fnexD+ce1w3f3Z7VVmG2gChlnxUx5ir1GHaJA1Sip/fbY/bzQAEEI/eXhDHnt8mrq3/U81Gdf/ojLPQDNoW1b+LSNmT4nErAbqMA2i0RK7+Gx/1mgAIIR+cc/DuWzDBPXB74a/o2/bmsj4ksosAy3AMK3v80BbSx2owdJqaNez4qxPskIDACGk9sM1fNY/3ZtZ/4mZ/7HVicyuKvMLSIIH21WGab9AH67+14jZjzXlZ4sGAEJIpTjWd8dsHvwJb4L/n7N/7U5VeQUUUNCt/AIjVtmPNwI7qUPWzxqxiiFN+bmiAYAQeunH6/Pcff1bpyq7ze+Lwj9ZU5NxnqqsAkph5+SX2j/jM90leEfg0+Fv7e4YG/W1pvw00QBACFXZsKUNO7S2tfvZ/vPzclRe4XuW4a+/mRqnZatKJ+Ah0VhFYcS0qrhvU4cvuWL7pGld3dSfIRqA4HtwTR7bs7y1O6sS+6Yh9NJXF+eylxbkshfn57jH9T5Tk+1+nr9pUhZb4/HS/ueGf1w/lkxkXqkiiwAl3WrOi5ZWXMlnwPfxIHyDPIw912rg3/fg5vzo0AAE0/rNjcejiiJLXVghDIJJR2vSx6MgkLBzombl5dGYNcwwrcU8HN+hD2h1GqZ9KFJSWdLcnxYagOAp3pjePBnBD+HZq8VlpgwIENFSy4iaVhkPy7F8prw0YlrP8D8/pg7vFgd/zK7O7z68dUt+NmgAguV7ta3Z2mrqYgphcEzG9Tl46Q98hqg5PMcoqfjXiFnxR9EgRGN2HyNmDzViVlhojwAAEsBJREFUVrk4lpiHrMNN+EUe+KP513eLOOo3r9vor8j4GaABCI6H1uWxdeMx84fwbE062qplY9pdKKNWApB2oAEIjtumI/whPFt5+D+SGqd9nbrGAuBb0AAEw/dWtyYvqBAGR6122ZhLvkldXwHwNWgAguGzNV7cjAZhWjg3Nbntl6lrKwC+Bw1AMNwwAcv/EH6hjjaasYxzqOsqAIEADYD/FXv+yQsrhD426ehHk4nMm6jrKQCBAg2A//14XR55gYXQrybj2mu1Ce2H1LUUgMCBBsD/foQGAMLTysN/1vLxeZdQ11EAAgkaAP+LBgDCT5qM628lq7Q/UNdPAAINGgD/iwYAwkbFhT4pRx+zKnHxRdS1E4DAgwbA/6IBgGGXB399Mq7NXFWdaVDXTADSBjQA/hcNAAytjnYk6WjT6hJ6EXWtBCDtQAPgf9EAwLAp3uznwf9/K8e2yqWukQCkLWgA/C8aABgGeeDvTTr6pGRc/2l5eca51LURgLQHDYD/RQMA01PtMA/7tTz47+T+K67sBcBj0AD4XzQAMPA6+m4+u1+XcrREKqH1E4G/cXSelCvNAQDNBA2A/5XdAPBCvJ8X5EoIZchn8VYyrg11dfSba6sye/E/f8eD/opUolUUF/MA4FPQAPhf+SsA2kvUzx0AAABi0AD4XzQAAAAApIMGwP+iAQAAACAdNAD+Fw0AAAAA6aAB8L9oAAAAAEgHDYD/RQMAAABAOmgA/C8aAAAAANJBA+B/0QAAAACQDhoA/4sGAAAAgHTQAPhfNAAAAACkgwbA/6IBAAAAIB00AP5X+l0Ace2VdVUXXQxpxK13AABfgAbA/+I2wPQyGdfrU46+m//1g6mqrGtS5RnnU9cBAEAIQQPgf9EApLdJR3+2NqH9groWAABCBhoA/4sGIP0VqwJJRxtCXQ8AACECDYD/RQMQHpNxrT91TQAAhAQ0AP4XDUB4TDr60dWJzK7UdQEAEALQAPhfNAAh09HrqOsCACAEoAHwv2gAwmddQi+irg0AgDQHDYD/RQMQSv9KXRsAAGkOGgD/iwYglM6lrg0AgDQHDYD/RQMQPpOOtpG6NgAA0hw0AP736MY25IEEvVbbTl0bAABpDhqAYLimmjqQoLeiAQAAKAYNQDB8fHq2D0IJeicaAACAYtAABMPXHsr1QShB70QDAABQDBqAYHh8cxu2YQJ1KEHvRAMAAFAMGoDguHspVgHCIxoAAIBi0AAEy+fm4l2AcIgGAACgGDQAwbKB+9ICrASkv2gAAACKQQMQTPeuyGWbJ2f5IKigGtEAAAAUgwYguNZvacPeWdmaPTcnmz02LYttnJjF1o2HVKIBAAAECjQAELbcg2tkH9eMBgAAoBg0ABC2XDQAAIDAgQYAwpaLBgAAEDjQAEDYctEAAAACBxoACFsuGgAAQOBAAwBhy0UDAAAIHGgAIGy5aAAAAIEDDQCELRcNAAAgcKABgLDlogEAAAQONADQF25tx9hTv2TsuRLGXryBsRf68L++hrHt/8bYo9+l//q+QDQAAIDAgQYAkvn0fzD2VoKxQ08xxurZGak/zNiBDYy9bjP2xOX0X/dpRAMAAAgcqYT+M5mFa/sMNADw82zLZ/j9eeg/febA/1zqGdu/mjcPV/vge/mnH9S1ltwA6FupawMAIM1JVemXyyxcj09HAwDP4NO/Yezg9mYG/2l4dwFj27rQf1/c/Um5KwBJR19HXRsAAGlOqiqrUGbhenQqGgD4ab/N2K5yxhqOyQv/kxzbx9jOGPn3+O4quSsASUdbRV0bAABpzprqrO/KLFwbJmaRF2PoI8ULfO/MkR/8p9JwnLFXh5F+n3uWS24A4toS6toAAEhz1k7M1mQWrlRCZw1b8uiDB/rAtoztW6I2/E9l1/+Sfa+vLs6V2gCkHH0KdW0AAKQ5y8a0uzAZ1+tlFq+Da9EAQO6eSd6Fv0sDYy8OIPlen63JkbwCoFvUtQEAEAJSjrZLZvHauzKXPnwgrS/09Tj8T1B/iLEdP/b8+31sWpbkFQBtAHVdAACEgFRcq5VZvF5ckEMfQJDObZ0ZO/Y+TQMgOPgkY49+x7Pvt4G7brzcBiBZpf2Bui4AAEIAn20kZBYvMRsiDyFI595ZdOF/klf/4tn3q+AMAJaq1jpT1wUAQAhIxbXBMotXXUJnRzf5IIig927/oZrtfk3l6N7G44U9+J53LZH7AmAyrh9LTW77Zeq6AAAIAUlH/53sGcxby/EeQCj1/MW/z+GVwZ58z9tnZktuALRnqGsCACAkrKjK0nkT0CCziOFOgBAq9vyLg3n8wgdblH/PRze2YXUJyS8AxvUHqWsCACBE8AbgWdkfAxzegO2AofK5a6kj/1M0MLatq9Lv+fWlcrf/nVgBGEpdDwAAIYIXnWrZheyVRdgNECrfHEed+J9F8bkAW6fKXf4XrnayfkBdDwAAIYIXnpjsQia2Rh3bhFWA0HhgHXXcf5Y945V9vwdSsq8A1sUJgO/X1GScR10PAAAhYs39F7eR/R6A8OWFWAUIjUfepI77z/J+Utn3K/vlv0a1RdS1AAAQQlKOtll2QVtbrbsvSpGHE1Tst/2x/e/THHpKyferZPbPTSYyb6KuAwCAEMIL0CAVRe35eVgFSHu3Rqij/vQcflXJ97ttuvQ3/8X+//qVY1vlUtcBAEAISY3TslOOflxFE7CvtjV9SEF1bjWoo/70fPyS9O/1rYcl3/x3UkdbTV0DAAAhRhQhFcVt06QsdnyzD4IKKlJ8BHCcOu4/i7gXQOL3KT7OWj9BQfiLFQAn6zrq8Q8ACDG8AeihZHbD3TkXHwWktUfeoI77z/Lew1K/x6dmy9/336h2eF3VRRdTj38AQIhZNqbdhSlH362qCdi9DEcEp63vr6GO+8/yZpW07+91yWf+f3L2r0+iHvsAAJCRSmh3qCp04tjU/UmcDZCW7r6bOu4/y/O9pHxv4q3/NQk1Y0JY62idqMc9AABkpCZf9C1elA6oKnbiM9SP1qIJSDuf/QN13H8SsS3xsYIWf18fr89jGybKf+v/FJdTj3kAAPgHybg+SmHBY5snZ/HC6oPQghJty9iR3dSx/0/2r2rx93SYh794VlWOhVRC/xn1eAcAgH+wJpGZk3T0D1QWPrEzQMyu6IMLSnP3PdSx/09e6N2i70W88f/IFLXhn4xrm6jHOgAAfIakow1ROvNxmwB8HJBWPt6RsfqD1NHP2EcvMHdFopnfh5j5P/qA4vAXR29X6ZdTj3MAAPgMNTUFF6QcfafqJkB8vipesiIPLyhHP7wM+HzPZn/9B3lDKhpT1c99ytFmUI9xAAA4I7VO5m+UF0KueMN6z3KcFpgWbs1n7OOX6cJ//8pmf+37k63dWyw9CP9D4gIu6vENAACfi7ihzIsmQPjSglzWQB1gsOU+/RvGGo54H/5H32FsW9dmfc2vPZTrblP14jlPxvVy6nENAABfyIqqLJ0XrLe8agIem5bFPlqHjwQC78u38ERu8C786w/xxuPqJn+dxzblsaceVHXC3+lm//pj4uM16nENAABnRTKR+Vv3pSWPiqRYht2zAh8JBN5d/+tNE1D/MWM7S5v89Yklf7EbxavnOhnXPqq7P7s99XgGAIAmwWcuYzybJZ3w6ZpsdmQjVgMC7cu38x7gqLrwP/Ze4yFETfiaxKx/5zwPZ/3/mP1rA6jHMQAANJnU5LZf5kXsCa+LplgNEHcINGzxQZjB5imW5g+/Lj/8P9zK2BOXN+lreWdla7ZR7cl+Z3I5YxnnUI9jAABoFqlxWruko+0lKJ7uuwEf1GE1ILBujTRezlN/uOXBf2wfY6/+hTVlr/+Ha/LYEzOzKYJfvPT3wqqxua2oxy8AALSIukT298U2JopCKhRXsuIlwQC7rZixt5zGN/abyscvMfbacN5MRM/6vycO9RFXUdcRPa98rOyrrWoVoR63AAAghWSV9gc+q6mnagLEdq3n5+W4xZ080GDzfPS7jD13DWNv3s/YgQ28IXj7U2lfz9jh1xh7v5ax10cw9vRvm/TvP7whj70wP4etrSYK/sbwP5Jysn5EPV4BAEAqyYR+G1lhPaE4QOiZOTnsEFYE0kdxg18TZvifVtwv8cK8XKXX956tvEnuQz1OAQBACXyGU0FdZBtXBHgjUJPNPqjD1sGwKrb0iY+H6nwQ/K6Odjv1+AQAAKUk49pQ8mJ7ilunZrO3lotdA1gVSHePb27j7hBRfXFPUzxxXsYg6nEJAACe4MXNgU1VXDIkjhY+hNsG00qxHXR/bR57bk62N+f2NzH8+Vi4kXo8AgCAp/Did7OXpwU2xcenZbszRRwqFFzFLX2iofPkpr7mhL94KdbRr6cehwAAQEJtQi8Rx51SF+MzKbaCbZuRxd54KBc7CAKgeKfj5YU57JEp/prpf0ZHO1TrZP6JevwBAAApjecE6LvJi/IXmdDZ49Oz2eu8GcC5Av6wfksb9l5ta/b8/By20acz/dOE/666qswu1OMOAAB8wcqxrXJTcW0LeXFugpsnZ7kHxuxdmeueFU8dhmFRNF/i4xnxBj/pnv3muT41TsumHm8AAOArNo7O+wpvAqb7oEg3WbGHXHxUsGtxDns/1Ro7CiQHvtil8WxNjvuiJvXvutk6WgLX+gIAwOdQ62jdecE8QF6wW6CYmT4xI5u9sijXfQO9fjN9kAZB8cb+wTV57I2lue7NjkSX8EgOfv39ZEIrox5XAAAQCFJO1neSjr6OvHhLUqwQiMuJxGfVYjYrthritkJxCl8btndla/bSwlz34h2/bdNruVrtqkTOt6nHEwAABIqamozzknH9L7wROEpfyOUrwm7b9Cz24oLGpkC8wZ6uKwXiZT1xu97byxvD/smZOWzDhHQL+38qdrYkE5k34TpfAABoAeKN6ZSjbaYu6l4oth1unpLFnpqd7W5ne+vhXPfIWrEF0e8rBuLrEzN68ZHHm8ty3a//qQdz2JYp2f45btcL+bOK2/wAAEAS5eUZ54pDU1Jx7V3yAk/kmmrdDdPtM7PZs3Ny3IAVn5XvXdGavc+bBPGy3NGNbaS/gChWJcSBSOJjC9GMiFm82AopDtkRL+aJpXuxI8IPl+nQqr2ddPS+YuWKerwAAEDasWpsbquko42nvFo4CIpmQSyxb+HBLO46EIqXEk+6Y3a2u43uyVn//HtiF8PJf1YE+voJOkL9bHS0I/x5HLUqcfFF1OMDAADSnmQi61940V1LXvxhqOXN6ILUOK0d9XgAAIDQkazSfsmL8CPUQQDDpraltirrJ9TPPwAAhJ5UQv9ZMq4/Th8MMM1dXxfPuor6eQcAAHAK7ouCVVnXpBz9MR8EBUwTG2+s1BalqvTLqZ9xAAAAX0AqoV3BC3cNbwaOUwcIDKbiRdNkXFuSrMospn6eAQAANJHahPY93gSMSTnaQepAgYHxDf7MVIrTKKmfXwAAAC1k+fi8S8TJbElH3+aDgIF+s3Er3xzxUqn4KIn6eQUAAKCA2uqsDmKGl3S0veTBA0nlof98Mq4NXT1ez6J+LgEAAHjEsjHtLuQzvz+Kz3lTce0wdRhBr9ReSjr6SPFSH87qBwCAkLM4kfNVsb2Lzwin8nD4gD6koOzQd98FSWhXIPQBAACclo2j876SSuj/6TYDcf09+vCCzfHEuRB/rbs/uz31MwUAACBguFcSV2UWi8+Jk462Kl2vJk4HxTsdYusnD/4+qxI536Z+dgAAAKQRYjdBXULrJi4kSjnaLurQC7O8KfuosSnThqSqtc5Y2gcAAOAZK8e2yhUNAW8GEqm49nTjqXH04ZiO8pn9hyLw+c/67+Lo59Tktl+m/v0DAAAALqIhOHEc8TjeDDyKjwxaoKO/yGf5s3hjNbDW0Tphfz4AAIDAkCrPOF+cO8ADrLv7Fnpc34rjiT8rb5TedLdj8tm92I2xdmK2Rv27AwAAAKSSGqd9fbWT9YOkk3UdD727uStFAFKHsDezem1fMq6vTTqaw7/v/nWJrB+nEjmZ1L8TAAAAgAz3BcOqzH/jIdmDB+T/peLadP7nRv6/95AHd5Nm89o7/Gvfwr/u2TzsrZSjX8///OmaRGYO9c8YAAAACBQrpmZ9TXyUIII0VaWV8nC9Xawe8D9n8ICt43+9Q+xKSDr6fkVL9Pzfq73Kw/1J8d8T/13+1/fwvzdYfD11jv7zVFVW4foJrb5B/bMCAAAAQktq8kXfEnvhRSi75xi4Zxnw5kG8Pc+trdKvdncvVGX9x8m/J5bjT/6zotlYc//FbVYlLr6I+nsBAAAAAAAAAAAAAAAAAAAAAAAAAAAAAAAAAAAAAAAAAAAAAAAAAAAAAAAAAAAAAAAAAAAAAAAAAAAAAAAAAAAAAAAAAAAAAAAAAAAAAAAAAAAAAAAAAKBZ/H9Hdffbd0M2UwAAAABJRU5ErkJggg==;" vertex="1" parent="1">
          <mxGeometry x="350" y="185" width="30" height="30" as="geometry" />
        </mxCell>
        <mxCell id="zXSD_kcFRXYyIfpvOB7h-40" style="edgeStyle=orthogonalEdgeStyle;rounded=0;orthogonalLoop=1;jettySize=auto;html=1;entryX=0.5;entryY=0;entryDx=0;entryDy=0;" edge="1" parent="1" source="zXSD_kcFRXYyIfpvOB7h-35" target="zXSD_kcFRXYyIfpvOB7h-38">
          <mxGeometry relative="1" as="geometry" />
        </mxCell>
        <mxCell id="zXSD_kcFRXYyIfpvOB7h-35" value="&lt;span style=&quot;white-space: pre;&quot;&gt;&#x9;&lt;/span&gt;Run Tests" style="rounded=0;whiteSpace=wrap;html=1;align=center;" vertex="1" parent="1">
          <mxGeometry x="340" y="270" width="140" height="40" as="geometry" />
        </mxCell>
        <mxCell id="zXSD_kcFRXYyIfpvOB7h-36" value="" style="shape=image;verticalLabelPosition=bottom;labelBackgroundColor=default;verticalAlign=top;aspect=fixed;imageAspect=0;image=data:image/png,iVBORw0KGgoAAAANSUhEUgAAAgAAAAIACAMAAADDpiTIAAAC3FBMVEUAAAAAAAAAAAAAAAAAAAAAAAAAAAAAAAAAAAAAAAAAAAAAAAAAAAAAAAAAAAAAAAAAAAAAAAAAAAAAAAAAAAAAAAAAAAAAAAAAAAAAAAAAAAAAAAAAAAAAAAAAAAAAAAAAAAAAAAAAAAAAAAAAAAAAAAAAAAAAAAAAAAAAAAAAAAAAAAAAAAAAAAAAAAAAAAAAAAAAAAAAAAAAAAAAAAAAAAAAAAAAAAAAAAAAAAAAAAAAAAAAAAAAAAAAAAAAAAAAAAAAAAAAAAAAAAAAAAAAAAAAAAAAAAAAAAAAAAAAAAAAAAAAAAAAAAAAAAAAAAAAAAAAAAAAAAAAAAAAAAAAAAAAAAAAAAAAAAAAAAAAAAAAAAAAAAAAAAAAAAAAAAAAAAAAAAAAAAAAAAAAAAAAAAAAAAAAAAAAAAAAAAAAAAAAAAAAAAAAAAAAAAAAAAAAAAAAAAAAAAAAAAAAAAAAAAAAAAAAAAAAAAAAAAAAAAAAAAAAAAAAAAAAAAAAAAAAAAAAAAAAAAAAAAAAAAAAAAAAAAAAAAAAAAAAAAAAAAAAAAAAAAAAAAAAAAAAAAAAAAAAAAAAAAAAAAAAAAAAAAAAAAAAAAAAAAAAAAAAAAAAAAAAAAAAAAAAAAAAAAAAAAAAAAAAAAAAAAAAAAAAAAAAAAAAAAAAAAAAAAAAAAAAAAAAAAAAAAAAAAAAAAAAAAAAAAAAAAAAAAAAAAAAAAAAAAAAAAAAAAAAAAAAAAAAAAAAAAAAAAAAAAAAAAAAAAAAAAAAAAAAAAAAAAAAAAAAAAAAAAAAAAAAAAAAAAAAAAAAAAAAAAAAAAAAAAAAAAAAAAAAAAAAAAAAAAAAAAAAAAAAAAAAAAAAAAAAAAAAAAAAAAAAAAAAAAAAAAAAAAAAAAAAAAAAAAAAAAAAAAAAAAAAAAAAAAAAAAAAAAAAAAAAAAAAAAAAAAAAAAAAAAAAAAAAAAAAAAATP81jAAAA83RSTlMAAx4sOERUVRBPh63V+dSGOYnL/MqIHHfZ2IAiL6L+szY7t7UYqhcCXuzvbxa6wBpC5+pIf/18l54EB6mvCQa4BQGhp46VbTX63uASqEvd3AiE9vcZjBPy9BSB4+RHpQz1C84RPzxnZIuyz8zb6Ob77tebYC1RxNp+JWG7xVArnyaTWPBOIcmrMJpllKyY8+mSfZEVkKaNhYqDQ4JqtnYze3V5dA5yc19xaGZjYllXVlNS+EpJRkU+PWvGoG7Q7Sldw+EjCh0NsKQqo5ac8XA35dJaXFsfx4/I1jI6ub1sQU3iICS803rNJ760sQ+/65kxGzQjSfC5AAAQNElEQVR42u3dC4PUVRnH8bO4LBddRVcDVxhRxEXAJBBxVXBXBQlElNVcEQxULiaymHg3EVApJNNQ8YKZ5p1MxcTULDNR826FmZlaWJnZdd5Awy7KCnuZmfM85/ecOb/PKzjnPN+ZnZmd+f+dIyIiIiIiIiIiIiIiIiIiIiIiIiIiIiIiIiIiIiIiIiIiIiIiIiIiIiKiWJR12a68a0U3ikRF1/LtupTJzL57j57b71CZpehU7rj9Tj26+02/1867VKH3QT6qdt2tvNjpf6F3H/TyScLu1XsUMf6+/arQCycpmT37Fzj+vfZGr5lEZQb0KmD8+/TLoBdM4gbum+f4awbth14raRg8JK93hkP3Ry+UtHzxgM7nP+xL6FWSnuEjOpv/gSPRayRNIw/qcPxlo9ALJG0H17Y//0MORa+O9B02ur35jzkcvTYKYe+6tudffwR6ZRTGkTVtBnAUel0Uyti25j8EvSoKZ9y28z+a//NPyPht/kfc/cvoNVFIEyZuFcBA9IoorGM+P/8R6PVQaJNaz3/0sejlUGiTj2sVwPHo1VB41Vvmv88U9GIovIYTPgvgRPRaCGG3T+f/lZPQSyGExpM3BzAVvRLCOLBl/jWnoBdCGNNaviM4Hb0OQunaHMCp6GUQyhGb5v/VGehlEErjzFwAk9CrIJzp/BAgbTvnAjgNvQjC2cW5ifwhQMKqTndnoNdASLPcbPQSCGkOvwuctrluAHoJhHSm+xp6CYR0lpuHXgIh9XFno5dASPMd/xOQtEbHy0ElLePQKyAsBpA4BpA4BpA4BpA4BpA4BpA4BpA4BpA4BpA4BpA4BpA4BpA4BpA4BpA4BpA4BpA4BpA4BpA4BpA4BpA4BpA4BpA4BpA4BpA4BpA4BpA4BpA4BpA4BpA4BpA4BpA4BpA4BpA4BpA4BpC4YAE0LZiwH69IZk+IAM75+rnlLbeoG73wvJ7nV6L3TK2oB3DBhRdtdaf67hdfwmvTmaEcwKXfqHFtuGzRePTGqYVqAKcMcu25fAB659RMMYDM4tGuA0uWovdOWc0AFlzhOnblVejNk2IA8/u6zhyyDL17UgtgXpdO5+9c7cHo7ZNSAMMvymP+ztWPRe8/eToBzPhmXvN3ruZb6ANInU4Ay/Ocf+454Gr0CSROJYAVec8/V8C30UeQNo0ArjmggABc/WL0GSRNI4DehcyfrwSxFAL4zujCAnD116JPIWEKAVxX4PxzBXwXfQzpkg9g/MqCA+BzAI58AAMKn3+ugOvRB5Eq+QAGFRMAC0CRD6Cg94Ct9EQfRZrEA5hc5Pyd2wl9FkkSD+CGogNwN6IPI0XiAUwtPgC3Cn0aCRIPoLjXgJvdhD6O9IgHMMknAHc8+jySIx7AGV4BuJvRB5Ia8QB6+QXAd4OBiQdwi2cA7lb0kaRFPIAevgHwvUBQ4gGs9g7ATUUfSkrEA7jRPwBXjT6VhIgHcJtAAHwOCEc8gKVlEgX0Rp9LMuT/G9j5T8LycSD6YFIhH0Dh3wjjcwCQfADnyATgvoc+mjQofCn0dqECvo8+myQoBHCkUADuDvThpEAhgKY9pAq4E306CdD4ZdAyqQDcD9DHU/pUfhw6TKwAvhfQphLAsXeJFXA3+oBKnc71AQ4VC4AFKFO6RMzdcgXcgz6i0qYUQOZeuQLuQ59RSdO6Slil/xdDWEAIatcJHP8NuQLu58Wl1ehdKVSygNksQIvitYJZQAw0rxYuWcADLECH6uXiWYB9ujeMkCxg+Uj0WZUk5TuGsADrtO8ZJFnAHBYgT/2mUSzANv3bxkkWsIYFSAtw30AWYFmIG0dKFvBDFiAryK1jWYBdYe4dLFnAxSxAUqCbR7MAq0LdPVyygAer0KdWQoLdPl6ygCVN6GMrHcECYAE2hQtAtIAfsQAhAQNgARaFDEC0gIdYgIigAbAAe8IGwALMCRyAaAHdWIC/0AGIFlDBArwFD0C2gPHo84te+ABYgCmAAEQLeJgF+EEEIFrAIyzACyQA0QImrUWfYdQwAbAAM0ABsAArUAGIFvAoCygaLADRAn7MAoqFC0C2gAb0QcYKGAALsAAZgGgBIxrQRxknaAAsAA8bAAuAAwcgWsD0BvRpRggdgGgBjzWgdxMfeACyBUxB7yY6+ABYAJSBAEQLWMcCCmMhANECHm9E7yYuJgKQLeAa9G6iYiMAFgBjJADRAn7CAvJnJQAWAGImABaAYScA0QJmnYTeTSwMBcACECwFIHqnKX4ekB9TAYg+Bwzj9wTzYSsA2avJ8XqCeTAWgGgBT6A3EwNrAYi+DrgevZkImAtA8jmg7kn0ZuyzF4BkAV0WoDdjnsEAJAuoQO/FPIsBSL4OeAq9F+tMBiD4HDB0MHovxtkMQLCAn6K3YpzRAOQKKHsavRXbrAYg9zrgFvRObDMbgNxzAD8M6IjdAMQKOA+9EdMMByBVQP0O6I1YZjkAqdcBc9D7sMx0AELPATP53ZD22Q5AqIBj0NswzHgAMgX0QO/CMOsBiBQw5mfoXdhlPgCRV4I3oDdhl/0AJJ4DZqP3YFcEAQgU8HP0FuyKIQD/AurPRm/BrCgC8H8dsAK9A7PiCMD7OeBW9AbMiiQA3wKeQa/frFgC8CygHL18s6IJwK+AiejVmxVPAH6vBGegV29VRAF4PQfwfWA7YgrAp4DJ6LVbFVUAHgXwu8HtiCuAbOUVRQbwC/TKrYotgGKfAq5Cr9yquAIoev6OXwxtR1QBFD9/9yx67VbFFIDH/B0vFNCOiALw+SCotgm9eqviCcDn8e9+iV69WdEE4DV/NwK9fLNiCcBv/rxKQLsiCcD3K0HXojdgVhwBeD7++RPx9kURgPf8n6tEb8GsGALwnr/rit6CXREE4D9/dzN6D3bZD0Dip2GXojdhl/kABB7/bn0GvQu7rAcgMX/XG70Lw4wHIDJ/fh2oA7YDkLlIEH8a2gHTAcg8/t0o9D4ssxyA0PyH8o7yHTAcgND83Sr0RkyzG4DU/J/nBeM7YjYAsYtFT0XvxDarAUg9/l0X/iqwQ0YDEJu/ewG9FeNsBiA3/3XorVhnMgC5m0bddSx6L9ZZDEDu8e9eRO/FPIMBCM5/OXov9tkLQHD+v+I7gE6ZC0DwppErL0BvJgLWAhB8/D/HrwLnwVgAgvOv2xu9mSjYCkDw+b/mJfRm4mAqAMHHfz2/BJAfSwFw/gCGAuD8EewEwPlDmAmA88ewEgDnD2IkAM4fxUYAnD+MiQA4fxwLAQjdJp7zL4aBADh/JHwAnD8UPADOHwsdAOcPBg6A80fDBsD5w0ED4PzxkAFw/gYAA+D8LcAFwPmbAAuA87cBFQDnbwQoAM7fCkwAnL8ZkAA4fzsQAXD+hgAC4PwtCR8A529K8AA4f1tCB8D5GxM4AM7fmrABcP7mBA2A87cnZACcv0EBA+D8LQoXAOdvUrAAOH+bQgXA+RsVKADO36owAXD+ZgUJgPO3K0QAnL9hAQLg/C3TD4DzN009AM7fNu0AOH/jlAOQnP/L6LMqSboBcP7mqQbA+dunGQDnHwHFADj/GOgFIHn/n1c81/Lq/le/trxbRJa/dvUlJ8UdgJ35T5vbv0xsLQHVvn7iG/EGYGb+b/66Fj1JjwZ+s2OkAWR+a2P+C1ZH+eDfomzc0igDuEPsBLzmf/569AD9bXgrwgAGim3fa/6vRPzsv0XdU9EFMKG71Oa95n9iPXp2Mup/F1sA06W27vf4L5H55wpYFFcAL4ht3Ofzn7fr0HOTU3t+TAFUXS60bb/X/yXw+m+LDUsjCmCZ0Kb9Pv9djZ6ZrCERBdBLZsuen/9E/v5/a7W/jyaA3WV27Pn/nwfRE5M2KJoAqkX26/v5f0l8AtBa7fxYAnhHYru+//+bi56XvKMiCeBViT++3v//7Y8el7w/RBLAuwJ79f//f8n9BXCuTuf7AeIBXO+/Ve/5Zy9BT0vDH+MI4D3vjQp8/2sxelgadL4WJx7Aeb779H/8Z7N3o4el4Z44AljnuU2R73+uQQ9Lw5w4AtjLb5cSj/9sdgl6WBqWxBHA+16bFPr+973oYWk4N44APvDZo8zjP5t9Aj0sDePiCOBijy1KzT/bEz0sDTvHEcDNxe9Q7vc/K9DD0nBYHAEcWvQGxR7/2ewE9LA0/CmOAIo+e9Hf//0ZPS15G1Xmr/DfwC7F7U/w8Z8zDj0ueffFEsDyorYnO//sVehxydsllgA+LGZ3wvPPZm9Hz0taf535KwRQdYCB+Zfe+4AXogmgiDfhCtd/yDyOnpisWZl4Ahj8fIGbk3/85zxdh56ZpDF/UZq/yi+Dbi1sc0rXfymprwXq/TpQI4ApBb0LV3n852QeQk9NzhKtPwBKPw4dUMDPMrXmn82uvQU9NynrKtXmr3R9gPw/h9G8/tfaCvTkZPSYondGSgE09M9zb3qP/02aepfAL8Rr/lqleUZKl4gZvtHA/HPe3QM9P18bP9Q9Ia2rhE3ekMfmahUvfLDZlFUno0foY2XPBuUDUrtO4BsLO93dzD2VN9escWyvSP8Q1O81qlH9ePSuFLq0s5dgG/+mvrvNpvWb/f6G09HzLMTpG4bd/1KAy0TqXix61MyO9vhMmEuhUsdULxf/xqB2n3w/Ohy9c2qmfMeQXR+uaWv8C19sQm+cWqjfNGpy9Udb/31b83e9TzapQCFuHDnvlXPLW96MjV74SM8n+eC3JNjt45sWPLvfDPRuaRvBAiCbGEDiGEDiGEDiGEDiGEDiGEDiGEDiGEDiGEDiGEDiGEDiGEDiGEDiGEDiGEDiGEDiGEDiGEDiGEDiGEDiGEDiGEDiGEDiGEDiGEDiGEDiGEDiGEDiGEDiGEDiGEDiGEDiGEDiGEDiGEDiHK/YlrSM45W7ktbozkYvgZDmu3noJRBSH3caegmEdJb7GL0EQvqHuxG9BEK6yT2AXgIhrXFnoJdASLPcxJHoNRBOVXfHtwEp29U5Nxe9CMLZLRfAo+hFEM5juQBm6t+ckIy65rlNN/J5Cb0MQlnUfCenx9DLIJRhzQHUnIJeB2FMK2u5kV81eiGEceHmOzlO5F18k/TqZ/fTvgm9FEJY9dnNXPedgl4Lhde4csvtfKeiF0PhXdfqfs6H9EGvhkKbd1zrO3rzs4DkPPr5e7ofiV4PhXXq5+fvnucfgaRM/mSrAFzfBvSaKJy177htvIdeFIWz2rWB3w9OxuK25u/qF6HXRWGcWtNmAK7uNvTKKIQBda4dY45Br430HXaca1fZy+jVkbaxNa4jB/FnAiWt6k7Xiffno9dIeoZP72z+zg19F71K0vLPEzqfv3M1g/6FXihpGDykLJ/550z8Ny8dVXIy/YbmOf5Nyj9mAiUlc+bRBYx/k/+s4PuBkjFyYN8Cx7/Jf4c8jV44STin+soixt+s/05vV6GXTz6a3lr1v2Kn3+KTD1Yte3Mteh9UuLVvLjv+g7v8pv+psvWXvd61ohtFoqLr65etr/GfOxERERERERERERERERERERERERERERERERERERERERERERERERERERERBfJ/hkhCXPg/fcoAAAAASUVORK5CYII=;" vertex="1" parent="1">
          <mxGeometry x="350" y="275" width="30" height="30" as="geometry" />
        </mxCell>
        <mxCell id="zXSD_kcFRXYyIfpvOB7h-56" style="edgeStyle=orthogonalEdgeStyle;rounded=0;orthogonalLoop=1;jettySize=auto;html=1;exitX=0.5;exitY=1;exitDx=0;exitDy=0;" edge="1" parent="1" source="zXSD_kcFRXYyIfpvOB7h-38">
          <mxGeometry relative="1" as="geometry">
            <mxPoint x="410.33333333333337" y="400" as="targetPoint" />
          </mxGeometry>
        </mxCell>
        <mxCell id="zXSD_kcFRXYyIfpvOB7h-38" value="&lt;span style=&quot;white-space: pre;&quot;&gt;&#x9;&lt;/span&gt;Plot Tests" style="rounded=0;whiteSpace=wrap;html=1;align=center;" vertex="1" parent="1">
          <mxGeometry x="340" y="330" width="140" height="40" as="geometry" />
        </mxCell>
        <mxCell id="zXSD_kcFRXYyIfpvOB7h-39" value="" style="shape=image;verticalLabelPosition=bottom;labelBackgroundColor=default;verticalAlign=top;aspect=fixed;imageAspect=0;image=data:image/png,iVBORw0KGgoAAAANSUhEUgAAAgAAAAIACAYAAAD0eNT6AAAACXBIWXMAAAsTAAALEwEAmpwYAAAgAElEQVR4nO2dCXgW1b3/41LtbpXMZCGU1pJ5X0LCFtvrv9d77b5e7e1taTXzhgAiiIDiAkhve9N7JTMBREUw875hld2wgyBb3jfsoCgibrijoogioqBsyfmfM4EWFZQk58xv5p3v53k+D9b6aJY5v+/vnHfOORkZAAAAAAAAAAAAAAAAAAAAAAAAAAAAAAAAAAAAAAAAAAAAAAAAAAAAAAAAAAAAAAAAAAAAAAAAAAAAAAAAAAAAAAAAAAAAAAAAAAAAAAAAAAAAAAAAAAD4mbZl5d8qKrEvFn7vz3e2yS+xLxW2MysKoiV2sTD/2sof5JfaPztpJGb/IVJqd4ua1i9O/j2jtPKKk/981Bze9eS/R3hpbJR+8r9x5ZXl51N/zwAAAEDgEYEauWZEbn7M7hQx7R8ZsYr/5AHdwzCtQUbMKud/fQ//68n8/1vA/3cqYlqP879+2YjZ7/H/j1HIv56D/GvZzb+WZ/ifm/j/Xh6JWQ8app3gX9sI7l/419ffKLVK+T9/VbS04sr80sr2kV4jvkH98wYAAACUU9Bt9CVusIsQjFkDToTjVB6OK3hwPsn/3MODs4EqyMmaB9Peyb/vNfxnMIM3EXfzv3cr/9+maBSMayuiBd3Kv079uwMAAADOCA+qC6KllmGUVP6aB/tAHmxj+J9LedA9LYKOOmyDrPvzc1cY7CVukxCr7BeNVf48UmZ/J6NbzXnUv3sAAAAhQMxII6UjLouaVpmYxbuhFLNf4rPW49RBGUpN6zD/81n+e1jE/xwdKbVucN9tEM1Befm51M8LAACAACJeeHNn9DH7r+7n7qb1StiW6QOtaX/M3cybhHGiYWvfvbIDmgIAAACfQIR9fqn1Gx7yf+OBsZAHyGvkAQaly3+/HximXcf/+q9il0NGBjuH+tkDAADgIeItdHep2LQrjZi9FTP7sGq9w5+BmmjM7lNQNjKb+rkEAAAgGbFH3iixf2fErHt5wd+OwIefljeCx9x3Okrtbvx5+TL1MwsAAKCZREutVvkxu7so6twj1AEDg6T1vtimKVaJ8DEBAAAEgILSym+Lg3PE3nK8mQ8l+Wx+ScX1WBUAAACfkddt9Fci4sS8mLUJS/tQlY2HNdl/FStL1M88AACEGnGkrPhMn/IoXBg+T5xgODa/+/DW1GMAAABCgzgv3yix/uyehY/ZPiSUNwGHePM5HPcaAACAQsRRu+4Lfe7Z8fTFH8KT8mfyXd4IDG03cMyF1OMEAADSh2415/GZfs8IDuaBPlc0p0bM+hX1kAEAgMATKa38JS+qO6gLO4RN0YjZU4pK7Iupxw8AAASOyDUjcsUebOpCDmFzdXcMmBV/pB5LAAAQENg5hmndiOtzYfpoPWhce1cm9cgCAADfImb9PPiX0xdsCOXKn+td+ddW/oB6jAEAgO8wzIqfRkzrbepCHXhLK1mk+0jXaNldrH2P0a4FPe9h7Xvd61pw3b2sQ++x/7RPlWvBKX+v4Lr7/vHPu5749wjFv9f995eOoP9+g6RpHRarW9RjDQAAfEM0Zg3Dkb2fNNp9FA9tEdTjWGHfKlZ4Q4IV3TiBdRwwmXW6aSrrNGgG63zrLNbl9hrWdfA8Vjx0Abts2GJ22V8e8t47FrGuQ+azLoPnsC63Psg6D5rJOt08nXUa+AD/eiexon4TWBH/+hubDN5Y9Lybf38jyX/GdFrTOsZGfY163AEAABnFfRJfMkx7En1B9lA+axYBKGbYhX2dxlDnQdmZB3qX22pOBPkSmiD3Wt6wdB3MG4fbHnQbmo4DprjNgvi5/KNRSNdVBtPe3s6szKMegwAA4DnFfcq/asTsFeSFWImVPLzucWe8IuA73zzNnakXD11EH7oBVPzcutw2x11V6Nh/UmODcN29LFoW7FUE/vy/alxbEaUeiwAA4BkF3cq/zmf+ddQFuKW6y/S9x7rL82L2KpbkxVJ4sQ9CMyy6zQFvrk42Bx1Ec9Dr3sZ3IXzwjHyx1juGaX2fekwCAIByxMw/Ylrr6Atv02zf4y7W4fr7WREPmc63zOTBs5A8/ODnOGwJbwzmuO9LFPaNs/bixUUfPEen04jZH0ZjlT+nHpsAAKAM9xIf01pMXXC/2EpWcN2YxuV7PqsvvgNhnw6KlyU7DZji7nKIkj9jn2kCjvDG+GrqMQoAAEowTNuhLrRnDvz73CXkLrfOpnubHnqmWMERuxTa80aP/vk7oWkdjprWL6jHKQAASIXPuPqQF9hT7T7S/bxYvH1efAdezguzYidC0Y3jfbE1UVwvnG9W/Bv1eAUAAClEzcrLxeyGuriK0C/qV31ilh+SrXbwrC0etthdFYj2GE3bBMSsfdgdAAAIPOKNf17UXqIsqOJN/c43T3cLPHXIQP8rdnF0unkaa19G2AiY9suF11RkUY9fAABoNoZpJygKqDhARhwq4x6s44NQgQF02BL3kKYo0Q4CI2YnM7rVnEc9hgEAoMnwAvaTSMxq8DT4xTJ//0nu8bTkAQLTQrFyJN4RoDhbwDCtO6nHMQAANInGY36tpzyd8bvBj2V+qEZx10FBL493DZh2PW88fkk9ngEA4Kzh4T/IqyIpLswRJ/C1pLh3u6eO2Qt3sDmbX2Ubd+5lT7++nz3zxvvsyV3vsbXP7mHT1r7E/lazjf3KXkUeRJBWcSGTp6sBpr03v/vw1tRjGgAAvhD3xT9etJTP+stGupfoNLeQizBPrN7J3th3iDWFJ1/bz6yFT7Iryh8mDyNIozhlsH1PD18SNK11eB8AAOB7DLPyDtUFUZz33txZ/0/uXMFmbXyFHTlW36Tg/zT7Dh5hdz30NPuXvy4lDyToveLdAHExkYcrATdTj20AADgj7ln/MesdlYWwsE+cF9/m7eO/ffpWtu/Dwy0K/k+z880D7M9j1pAHEqRRnCDpURNwIHLNiFzqMQ4AAKclYlb2VRr+NySaVaR/8N9L2dS1L7GGBqnZ/w8+Pnqc/ffsx8nDCNIoPoqKlI7woAmwHqQe4wAAcBrYOSrf/G92+P91KVu27Q01yX8KorkQHwlQhxGkscttNd4cJ4xdAQAAvxGJVf5QWfj3qWpWUf7+fz/EFjz6mvLwP5WRi58iDyNIY5fb1TcBhmm/0Las/MvU4x0AAP6Bqtv+xNnszb2w595lz3ga/oL6+gZ2w4RN5GEEafSiCcALgQAA3+Ae/BOz9skvdpWs6+1zmlWIS+9fx44eb9mb/s1l74GP2c+GryQPI0ij+DhAPLvKVgFi1u52A8dcSD3uAQAgQ1xhqqLQdRwwqVkFWLz099Tr+0nC/yTiowfqIIJ0dho0TekqgBGr7Ec97gEAIIPPSCpkF7ho2Sh2WTNv8PufOdtIw19Q39DASsauJQ8iSGfRjRPUNQCmtaugW/kF1GMfABByjJi9VXaB63TT1GYVXfHi38tvf0id/y6rdrxJHkKQ1oLr71e3EmDavajHPgAgxFwaG6W7l5ZInf3f5V7H2pyC23f8Jurc/wfihcBf4v6AUFs8dCGLdh+laBXA3im231LXAABASOFFKCa7sInT1ZpbcL3e9vdFjMbZAKG386CZ6j4KiNk/oa4BAICQomL7X3ELbvd7a/9H1Jn/CTY+v5c8gCC9yu4NMK1Z1DUAABBSeAOwUWZBK+g9ttlF9nd3Janz/jN8dOS4exohdQBBWsVZFkrOBzCtw23Lyr9FXQcAAGGjvPxcI2Z/KHX5f8DkZhfZW6c9Sp33p+U/eWNCHUCQXvFsK/oooAd1KQAAhIyIOSIiu5g19+Af4T1LvT/572wYOHkLefhAesUtlu173KVgFcB+mLoWAABChlFi/VlmIYuWjWxRgR2ffJ4660/LsFm4KRA22ulm+QcEGTH7iLiKm7oeAABCBC88w2UWsg69x7WouE5b9xJ11p+Wv899gjx4oF9comRbYNS0fkFdDwAAIcIw7ekyi5g4Oa0lxdWvKwB3zHzMB8ED/WJR/4kqPgaopK4HAIAQEYlZa2QWMXF+eksK691Ln6bO+tPSb+Jm8tCB/lEcDqTgsqBHqOsBACBEREzrRZlFrCUvAApvmerPXQD/MbKWPHSgv+wg/Yhg63hRiX0xdU0AAIQCdo7YgyyziIm90i0pqleNqqXO+s/wwcdH3dsJqQMH+svOKl4GLLF/R10VAAAhoPCaiiy5BaxSSmF98z1/nQSYevot8rCB/rPxYwC5DQD3/6jrAgAgBERjFYUyi1f7HqOlFNaaTa9SZ/4nGD5/O3nYQH9acN29chsA01pIXRcAACGAz9h/KLN4FfQaI6Wo9nDWU2f+PzhyrJ79+P9WkAcN9KdF/SdJbgDsl6nrAgAgBBgllb+WWbw6XD9OWmHdvus96ux3mbdlF3nIQP/a+dZZkj8CsI4X90l8ibo2AADSHNmnABb2rZJWWAc98Ah19ruz/9/hDgD4ORYPXSC5AbBZfol9KXVtAACkOfklFdfLbQASUovruufeJm0AJqVeIA8Y6H9l3xBomBU/pa4NAIA0x4jZt8gsXEX9qqUW1qtG1rIDHx0lCf+X3v6AXVH+MHm4QP9bcN19UhuAqGldS10bAABpjhGrGCK1AWjhMcCn87Zpj7L6hgZPw//Q4WPsT/euIQ8WGAwL+zpyG4CYNYC6NgAA0hxeaIZJbQD6T1RSYCsX7fAs/I8db8DVv7BJFt6QkPsRQMwqp64NAIA0xzDt/5FZuDoqagCEIxc/pXwl4OOjx92XD6kDBQZLsfIlcxxFYpZNXRsAAGkOLzT/K3cFYJLSQjt05mPs4OFjSsL/zf0fse5V68nDBAbPjgMmy20ATOtu6toAAEhzjJg9XO4KgNoGQPj70Sn26EvvSgt+saiw5LHX2U/uxGE/sHl2vOkBySsA9v3UtQEAkOYYMasiaA2A8Pv//RC7Y9Zj7IU9H7Qo/B958R12XWIDeYDAYNvppqmyVwCqqGsDACDNCWoDcFLRCPSbsMmdwe87eOSsQv+NfYfYjPUvs5Kxa8mDA6aHaAAAAIEj6A3AqYpmQGzdGzbrceaseo5NXfuSe4zvlDUvsvuWP8tun77VvWqYOixg+okGAAAQONKpAYCQSjQAAIDAgQYAwpaLBgAAEDjQAEDYctEAAAACBxoACFsuGgAAQOBAAwBhy0UDAAAIHGgAIGy5aAAAAIEDDQCELRcNAAAgcKABgLDlogEAAAQO2Q1AtGwka99jNCTxblZw3X3u3fSdbp7GiocuIg/GsIgGAAAQOGQ3ANA/Rksr3Wtqi+9AI4AGAAAAPgUagPS3fc/RrOvgeeQhmc6iAQAABA40AOEw2n0U6zp0PnlQpqtoAAAAgQMNQHhs3/MedtmwJeRhmY6iAQAABA40AOGy08AHyMMyHUUDAAAIHGgAwmW07C7ysExH0QAAAAIHGoDw2eW2GvLATDfRAAAAAgcagPDZceBk8sBMN9EAAAACBxqA8FnUr5o8MNNNNAAAgMBhmNbfqAMJeqs4KZA6MNNNNAAAgMBhmHZv6kCC3ooGAA0AAABkRM3Ky6kDCXorGgA0AAAAkJFRXn6uEbPfpA4l6J1oANAAAACAi2Ha/0MdStA70QCgAQAAAJeCbuVfN2LWbupggt6IBgANAAAA/INoqfX/eNE5TB1OUL1oANAAAADAJ+CF5yojZn9IHVBQrWgA0AAAAMBniMYqCg3T3kgdUlCdaADQAAAAwBlg5/AidBUvQrOMmP0edWBBuaIBQAMAAABnRaTXiG/kl9iXQhojMet2NAD+Fg0AAAAA6URNqwwNgL9FAwAAAEA6aAD8LxoAAAAA0kED4H/RAAAAAJAOGgD/iwYAAACAdNAA+F80AAAAAKSDBsD/ogEAAAAgHTQA/hcNAAAAAOmgAfC/aAAAAABIBw2A/0UDAAAAQDpoAPwvGgAAAADSQQPgf9EAAAA+QTuz/Jvidr18s/K3Rqyyn2HaViRmTYuYdo0Rs1fwQV7L/9xqxKwn+aB/CcLTatp7I2gAfC0aAABCSnGfxJfyS4Z3NmIV1/HBez8v2Jt50L8vtSBAKEk0AGgAAADNJK/b6K8YJZW/5jP6MXywPsIH62Hqog7h2YoGAA0AAKAJiGtZozG7j7t8b1ofUBdxCJsrGgA0AACALyBqDs8xYhVD+IB8mrpoQyhLNABoAAAAp6HdwDEX8gF41YmZ/lHqYg2hbNEAoAEAAJyCO9s37VFGzNpHXaAhVCkaADQAAABO+5I72za+zGd9RF2YIfRCNABoAAAINe26j/weD/4Elvlh2EQDgAYAgFBS0G30JSdm/MepCzGEFKIBQAMAQKi48sry8yOmPdCI2e9RF2AIKS28IUEemOkmGgAAfAoP/h9xt1MXXgj9YMcBk8gDM91EAwCAzxBn8fMZ/xTqgguhn+w8aCZ5YKabaAAA8BH511b+wDDtF6iLLYS+snQEu2zYYvLATDfRAADgB7rVnMdn/UPxdj+En7Ww33jysExH0QAAQEykzP4OD/4N1EUWQl/afSQrvmMheVimo2gAACAkv8T+dz5o3iYvshD60Ci3862zyIMyXfVjA1BennFuKq79KuloDveRVFx/IxnX3/O1jv56ytF38q91azKupfifS1OONpt/H/fyvx5UG9f+q7Y6q8PWRMaXZOQGSAMipn2zEbOPURdZCP1otLSSdbp5BnlIprN+awDqHP3nPDS389Bk6ShvFI7ypuZJ/uekVELvvdrJLpCVJyAolJefa5j2WOoCC6FfLeg1hnW9fQ55QKa7fmkAGMs4hwfkX3kwNlCHtOc6+m7+58SUo/1xcSLnq7LjBviItmXlXzZMay51gYXQb0a7j3JP++t8C5b8w9YAJON6OXkQ+0FHO5iMazOTiczf1tRknCc7fwAhHWOjvsYHSC11oT2rYlw6grXveQ/rcP04VnRDNes4cDLrdPN01uXW2a5idtZ18FzWdch8CFtk8dAFPIyWkIdhGPVDA1CXyPx1KGf+X9wM7OI/l/9eUZWlq8gj4CGRXiO+wQfIWupgP1PYF1w3hhX1q3ZDvuvgeeSFCUKoXuoGQMxyU3HtafKw9bXa4WRcn5oap7VTlU9AIWLm77dtftGyu9yz1d3lVhywAmEopW4A6hz99/QBGxAd7Yi7qyCRk6kqq4BkCrqVX2DE7BXUgd8Y+qNY4Y3j3aV76sIDIaSXugHgwfYAebAGTUd/P5nQb0uVZ5yvKreADMTb/jF7DnXwd+g9js/0xXYqfM4KIfyn1A1A0tGfJQ/U4PpEqkq/XFV8gRYSMe1K0uDvU4XP8yGEZ5S6AeAhdsAHQRpYk3G9PuXoY2pqCi5QlWOgGUTMij9GYlYDgh9C6FepGwC8/S9JR39sVXWmoSrPQBNoV2p3MUz7kNfBX3Ddffh8H0J41qIBSB/5z/KDZJX2B1W5Bs6CgrKR2Xzm/7qXwR8tG+kOZOpiAiEMlmgA0kvx8xSHKomTFVVlHDgD7QaOuZDP/Dd6Gf4d+sbZZXcsIi8kEMLgiQYgbX0AFw95TMS0R3g26y+tZB0x64cQtkA0AGnt8o2j876iKu/AKURLrf8XiVnHvQj/9j3vxmf9EMIWiwYgvU3G9bXrJ7T6hqrcA5ziPuVfNWLW816Ev3jDv3gY9vNDCFsuGoAQ6OhrcMugQry62rewXzV5wYAQpo9oAMJh0tFWLRvT7kJVGRhajJj9Ey/2+3fsP4m8WEAI00s0ACHS0WZgd4BE8rqN/ophWq+oDv9ON08jLxQQwvQTDUDITOh/U5WHoYOH/9+Uz/wHTCEvEhDC9DTdGoCjm9qwY5vyPPfIhjz20bo89uGaPPZ+sjXbs7w1e2VRLnu2Joc9Ni2L1SWy6MM/3nh0cG2VfrWqTAwNhddUZPEH/oDS8MeyP4RQoenWALBH2vjS45vbsP21eezVxbls69Rs6kbgQN392e1VZWMoiJj2BJXhX3TjePLiACFMb9EA0HhorVghyGGbJhOtDDj6zmVjLvmmqnxMa/JjdieVe/479B7Lin1QHCCE6S0aAFobtrRhe1fmskemeN8IJOP6ZFUZmdbw2f8qVeEf7TGaFQ/F0b4QQvWiAfCHohF4e3lrtmGit41AnaP/XlVOpiWR0spfKgv/0krWZfAc8qIAIQyHaAD8pXih8IV5uazOq1UAR3snNU7LVpWXaQd/wGtVNQCdbsJ2Pwihd6IB8KdiJ8FGj1YDeBOwWFVephWR0hGXqQr/DtePIy8GEMJwiQbAvx7d2IY9McOjHQOO9kdVuZk2RGLWg0qW/ruPZF2HLCAvBhDCcIkGwN+KdwN2zsvxogHYhfsCPgcjdud3jZh9TM3SP671hRB6LxqAYPjifPVNQNLR7lSVn4HHiFn3KVn6730feRGAEIZTNADBUZwboLYJ0A7XOZn5qjI0sLQtK/+WYVoHVTQAXW7HW/8QQhrRAARLsUNAcROwUFWOBpaIWdlXyey/r0NeACCE4RUNQLAU7wTsmK32xcBkIutfVGVpIOEP9nrpDUBpJes6ZD55AYAQhlc0AMFT3Cvw6APqtgjy38nDqrI0cLTrPvJ7kZjVILsBKOpXTT74IYThFg1AMBU3D64br64JqE1oP1SVqYEiYtp/VzH7Lx6KbX8QQlrRAATXt5arex8gGddWqsrUQGGY9k7ZDUBh3zj5wIcQQjQAwfbpBxXuDEhoV6jK1UBglFT8q/TZfwxv/kMI/SEagGAr7g5QdYFQMq7NV5WtgcCIWffKDv+C3mPJBz2EEArRAARfVR8FJON6/aoq/VJV+ep7+AP9rOwGoPMts8gHPYQQCtEApIfbpivaGuhoo1Xlq69pX3JnW9nhHy0bxS4btoR80EMIoRANQHp4cE0eq0soaADi+oFlYy75pqqc9S3RmN1HdgNQ2G88+YCHEMKTdhwwRWqNM0x7TFPqLBoAeT43R80qQDKu9VeVs76FP8jzZDcAXW7Dy38QQv9Y1H+i7AZgVFPqLBoAeX68Po+tUbAKwBuAHapy1pdceWX5+ZGY9b7U5f8eo8kHO4QQnmrhjePlNgAxe3hTai0aALnunKtmW2CyKrNYVd76DqO08grZs3/RaVMPdgghPNXCGxJS61w0Zg1rSq1FAyB7FaANW1OtoAFw9PtU5a3vMEz7f2Q3AF1vqyEf7BBCeKod+lRJrXP5JRXXN6XWogGQr4p3AZKO9k5NTcEFqjLXVximtVJqA9B9JCv2wWCHEMJTbd/rHrkNgGn/vim1Fg2AfA+uzVPyMUCdozfpdxtMutWcxx/kAzIHheiyqQc6hBB+2mhppdQGQHx82pRyiwZAjdumqzgdUFuoKnZ9Q7tSu4vs5X+x15Z6oEMI4akWD5kvtc65KwDdh7duSr1FA6DGd1a2VvAxgH40Nfmib6nKXl9gxOz+sgcFbv6DEPrNLrfOltsAmNbhjPLyc5tSb9EAqLGBu2mSglUAR79WVfb6At4AzJQ5KKJld5EPdAgh/LRFN0o/A2BnU+stGgB1vrJI/pZA/vuqUZG7voE/yK/JHBSFffH5P4TQfxZcN0Z2AzCvqfUWDYA6xcFA0huAuP7hxtF5X1GRveR87893tpG9/C+O2qQe6BBC+AmHLWYRyS8ARkz7702tuWgA1Pq4gkuC6uJZVymIX3oiZsUfZTcAXW7H/n8Iob+U/vl/o39oas1FA6DW3UvlXxXMf2eTVOQvOUbMGil3QFTywYbb/yCE/rKwr9wTAIVN3QEgQAOg1mOb8qSfDJh0tL3l5RlNetkzEPAGICVzQIjP2KgHOoQQnmrxsMUs2n2k7OX/l5tTc9EAqPfJmfJfBlydyOwqO39pKS8/NyL5AKCiG3H9L4TQX3YeNEP67N8w7enNKbtoANT75sMKzgSIa0NlRzAp7cyKAtmDQgw06sEOIYSn2uH6+6U3AFHTKmtqzd2ayPiSzFCqS2SRh60fPbIxj9VJbgBSjrZaRQ6TwR/iHrIHRVccAAQh9JFdh8xnUcl1LhKzGqLm8Jym1tz1E1p9Q2YorR2PFYAzKX83gHZ4xdSsr6nIYhIipjVO5qBo3wMHAEEI/aXs639PuK05NXdFVZYuM5TWT0ADcCZfe0j+bgDeBPxKdg6TYcSsTTIHBS4AghD6SbEiKXYmyW4ADNP6W3NqbirRKiozkDZOxEcAZ/KQihsCHW207Bymobz8XP4QH5Q5KDoOxAFAEEL/WNhvvIrZPzOurYg2p+zWxjP/XWYgPfoAGoDPc9Mk2Q2A/pjsKCYhWmoZsgcFDgCCEPrFroPnKZn9R0zriebW3Von808yA2nbDDQAn+dzcyVvB3T048vGXPJNmVlMgvwTAHEAEITQPxb0Hqtm9m9ag5pbd5OO/j8yA+mp2TnkIetn316uYDtglfZLmVlMghGzh8scFAW97iUf8BBCKOx0s/x9/274x+wj7XpWaM2tu8m4NlNmGD0/Dw3A53l0YxuWSkhuABztTplZTAJ/kBfJHBiFN8TJBz2EEBYPXeheSa6oAZjZkrqbdPRtMsPotSW55CHrd7dOlbwd0NHrJMUwHYZp7ZI5MDoNfIB84EMIYYfrxykJf2HUHN7s42DFWfIpRzskM4z2rmhNHrB+94X5ct8DSMa1j2pqCi6Qmceecmm3yovEQRYyB0bnWx8kH/gQwnDbccBkZeHPa+ZDLam7q6r0S6XORLkf1KEB+CL3rpT/HkBtQvuhrDz2nPxrK38ge3AU37GIfPBDCMNrl9tqmJK3/k8u/5dU/GtL6m6to3WXHUTi5jvqgPW74lhg2T/3pKMNkZXHnpMfs7vLHBjte4wmH/wQwvAqtvxFyyTf9ndq+MesVEvrbjKuT5UZQpsmYQvg2bplSpbkJkBbJCOLSZC9A0BctEFdACCE4bR46AIW5ZMQdUv/3NLKFm/94sHxhswQ2jE7mzxYg+Jzc+S+CMibubdkZDEJhmnNlTk4im6cQF4EIIThU3z0KLYgKw3/mLWmpTW3tjqrg+xl6AV6cfEAACAASURBVFcWYQvg2frWcvn3AqxK5HxbRh57jmHaO2QOkE43TycvBBDCcClm/u173qM2/E27PlI64rKW1lweGINkB9C7q/AC4Nn60Tol9wL8UUYee0u3mvP4Q/2xzEHS5bY55MUAQhgeuw6Zp37ZPyZO/bMnySi7SUdLSg2fBF4AbKobJsp9DyDp6CNlPBueYsTu/K7sQYIdABBCr+xy24MsWjZKefhHYtY7xrV3Zba05taOy26bjOv1MsMHlwA13R2zcCBQRqSk4scyB0n7srvICwKEMBx2HPgAU7nV71SjplUmo+by2frfZC8/Pz8fn/831V1LZB8IpH9YU5NxnoxnxDP4g91D5iARF25QFwUIYXpbPHSR0hP+PqNpL83IYOe0tN4ylnEOnym+KLsBwOf/TXd/Uv57AHUJvUhGLnsGf7D/LnOgFN6QIC8OEML0tfOgGR4t+TdqxOw9BWUjs2XU27qqzH+THTprEjo7vpk+UIOm+JnJvhgoFdd6ynhOPMMwrckyB4s4epO6QEAI08/iIfOVXen7OTP/esOs+KmsessDYrrsBmD7DOz/b66PyD4QyNHHyHpWPEGcaCVzwHTi3Tl1oYAQpo8i+Av7jWfR0hHehn9jA/B3WbW2zsnM5wFxXHYD8MZS3ADYXJ+bK/1ioBafEOkp/AF/WeaA6XpbDXnBgBAG366D57vXinv1kt+nNUy7TmyTllVrk44+SXb413HF2fbUQRpUdy+TeyBQMq6/J+t58QB2jhGzj8gcNOLuberCASEMpsXDFrNON01jBdfdRxL6/wx/65WoOTxHVqUVW/9SjnZEdgPwxEws/7fED+rkvwgYmBMBC7qNvkTqwCkdQV5AIITBsuuQ+Tz0p7LCPlVuDaEM/katdyLmiIjMWsvDPyE7aIRvPoy3/1ti/eY24s19yasyWVfJfHaUkV9a2V7mwGnfE7cAQgjP4LAl7rJ+51tmuS8LF/aNuzeH0gf+qTN/+1DUrLxcZp2trWoVUTH7Xzsep//JUPqLgHH9rzKfH2VETPtHMgePWLYjLzIw0HYdusC9x73ToGms48AprKj/RHdraQc+OxSKt8A7wEAo6oE4m98N+e7ial6az/LPOvxj9rFoifUfsussD//VKmb/4kY76vBMB5+pkX4z4BzZz5ASDLPyTzIHkCjQ1AECg2HxHQv5THDmiZlgFQ+Ku8UVq+QhAEOquOTHtHvJrrGpqqxrVIS/8EAKs38ZvrZE9ouA2jOynyMl8Ad+oMxBVNivmjxYoD8VN7V1unla47KvCHvqgg/hCQ3TOhopqSyRXV+Xjbnkm0lHf1NF+G+ditm/LN+rbS339yM+7inPOF/28yQdI2YPlzmQOg6YRB400D92uX0OK7pxAivoqfp+dgibp/jM3yip/LWK+pqKa/eqmv2/vRwv/8ny6MY20n8/q6ozDRXPlFQipjVO5mASb/JShw6ktevguW7o++3lLgg/LZ8AvReJVf5QRW2tS2T9WMWhP8JNk7JYwxb64EwnN0yQ+zuqrdKvVvFcSSVi2lNlDqjOt+AUwFAq9m7fPI0V9BpDXtQhPDut16OxikIVdTU1TstOOdoeVbP/15fi5j/ZbpshdydA0tGGqHi2pBIxrYUyB1XnW2fThxH0TPHGvpjtR903vKkLOoRnp2FaKy+NjdJV1NTy8oxzk3Ftparw3zAxy927Th2Y6eZOyUcCp+LaBBXPl1SMmJ2UObDEZ77UoQQ9CP7B81hhX4f5fVsXhJ9QXOwTs8p5Sp+rqqYm43q5qvAXiqNrqcMyHX39Ibk7AbjrVT1j0uANwFaZA0wc8kEdTlBh8A+d7+7Jj1IXcgibrPVOpLTylyrraa2T+RtVn/sLxWf/9fjsX4n7ZO8EiGvvqnzWpGCY9k6Zg0zs7aYOKShfcb9DEQ9+7NOHwdR6KHLNiFyVtbQukf19Pvv/UOXsH2/+q/Pwevl3AohtoCqfuRZjxKzdMgda8bAl5GEFJcp/n+KgHnzGD4Op9Xq0tOK/VNdRcc1v0tH2qgz/x6dj379qxdHKMn9ndQm9SPWz1yIipr1X5oAjDywozc63PogDe2AgFUf6Rkzr7kivEd9QXUPXTszW+Mz/eZXhn0ro7q111AGZ7j76gOQ7AaqypB8rLZXGfbCyBl4leWjBllt8xyL3c37qIg5hszSt2vyY3cmL+umGv6NvUxr+XPGGOnU4hsEds+XeCZBytAFePIfNhjcAH8oaeNFSNABBt8uts1n7HnfRF3EImyivZSuM0sorvKqdK8e2yk3GtR2qw19s+8ONf974wny5WwF5czjSq+exWfBu+bCsASg+J6YOMNhMxWf9/Sfh7X4YPE17lezre7+IVKJVlM/udqkOf+E7K/Hin1fK3grIG4AaL5/LJhOJWcdlDUQ0AMFUbO0r6IWz+mFwPLFyWd2u1O7idc1MVmUWq37h76RPP4gX/7xUNFtyGwDtEa+fzybAzpE5KKNlo8jDDDZNseSPN/xhIHQP8bGThmn39uLlvtORjGf9WfVWv5NunKRj6d9jP1wjeSugo++meE7PmkjMapA1QNEABMuOAydjyR/6XOsjHvwP8+DvHzWH51DVya2JjC/xYj7Gi+B3Tehsfy3C32tFwyV1BSCuHxNHQ1M9t1+Iew+2rMGKjwAC4hJW2Bdv+UMfatof8z/XimvKjZj1q7xuo79CXSNT1ZfkJR1to2fhz315Id76p3JttexmLieT+hk+I26HLWvwdh/hg3CDn6fY4lfQeyx9oYfhVSzlm9Zb/M/NEdOaxYO+Ij9WeU07s6LgyivLz6euiadS5+i/9+rz/pNun5GNq34J3TxZ7lkAtdVZHaif4zPCB+QBeYMb2wD9rDimuaBnQF724yHB/3zJPcLVtO7mgfE3Piu8xf38t9TuFjWtX+SX2j+D/jZSUvHjaIldLIyYIyLRUqsVdc07G9YkMnPEG9xeBr9w0ySdHd1IH4Jh9vFpcs8CqK3K+gn183xGeEF9V1bRFp8nU4ccPEP4D13Aw/8e+mA/s8/ymeB9PNivFW92+2HpF4QP8XmtOLyFF+4DXoe/OIb2wzps+aP2KemHAenXUj/XZ4TPqvbILOTFPgg7+Nnwj/YYTR3wn5CH/T7+7M3kM/ye3/vznW2oxwEAybj+01Rc2+J18AvruO+uQvj7wefnyT0MiDuI+tk+I4Zp7ZLaANyxiDzw4Knhv9BH4S/OnLCWGWbln9oNHHMh9bMPgCCZyLySz9LWUAT/Sd9YmksefLDRVxfLPQwo5WgV1M/4GTFMe4fUBoDPNqlDD54If/czfx8s+5v2y9GYNSy/+/DW1M87ACdpDH5tNWXwC/HGv7/cvUzyaYBxfSz1s35GDNPaILPYdx08lzz44Im3/Ylf+OPN5Qtiib+4T+JL1M85AIJ1VRddzAtyn1Rc204d/EKx3EwdePCT7lkh9zTAlKNPoX7uzwhvAJbLLPpdbqshD7+wK97DKLj+fsrwfykas/v4bUsXCCeLEzlfra3Sr07GtflJRz9KHfonfbYmB9v9fOi7q2XfB6AtoB4DZyRi2jUyi3/nW2aRB2DYpbrK171a2qzsm9Gt5jzq5xqEm1VV+qVips9DfwkvwB9Th/2nfW4O9vr71feTslcAtNXU4+GM8AZggswQ6DRoBnkAhtmOA6YQzfqtaYXXVGRRP88gXKyf0Oobq52sH6TiWk9x9SovuEt58L9FHfCfJ5b9/e1ByfcB+PpCIHHIitQGYOAU8hAMq+Jin0hppbezftPeyWf+/j3oIqPx3vZUQrui8SIXrT8PiPKUo1fyzjwBg6I+xT2Yx9Hn8d9hirvD70F/OvHCn//9eH0b2b/356hr4BmJmPZfZAZC0Y0TyIMwjHYdssC9jMnTWb9pTy3uU/5V6mf4JMvGtLtQBD0fcINOBMY2Py7/wvBZl9DZmw9jn38QlH4hkKO/Tl0bz4gRq7hOZigU3hAnD8PQOWwJK+g1xrtZv3sXu2VSP7uMZZyTire67MSMfg3CHvrRdeOz2L7VCP+geHyz5BUAR9tDXSvPCC/oV8kMhw69x9EHYsjs2H+ih7N+65lorKKQ6nkVR7XWxjP/nYe9E8QlYBgut0zJZofWIvyDpHg5U+pz4Gj7qOrlF5J/beUPZAZE+173kgdimOxye42Hn/tb86nO6F9z/8VteOjfmYxrr1EXdQjPxh2zs93lZOpAg003lZD3HCQd/QOKmnlWtC+5s63MkBCfQ1OHYmgctpi19+6Y32qK7X1itp+KawtTjn6cuqBDeDau4eHx+hIc7Rtk11TLex74pOUjr+vmWdO2rPzLssPisr8soQ/HEFh443hvwt+0KzMy2DlePZPis33eNf+OD5xN1MUcwqYo7pL/ADf6Bd61UhsA/ZhXtbNZ8AK/X2ZgdB08nzwc090ut89xr19WHPz10Zg1wMtnkfJGNgibbaJxf//xTfThBVvu+vFynw8xqfGyjjYJXui3ywwOsR+dOiDTWfeo314enPNv2gO9egbXVGd9l8/6l5EXcgib6JYpWe7pcdShBeUpdm7IfEbEy8te1dImY5jWYpnB0fGmqeQhmc524j9fD8L/7148e1sTGV9KxrWhKUc7RF3IIWyKYplYXB1bjyN9006ZHwGI95e8qKXNxohZ98kMDxwGpE5xy5/yA39Mq8qL5642of0w6WhPUhdyCJvqUw/muCfGUQcVVGNdQt4KgK9fAhRESuzbZAZIYZ8q8qBMV5W/+GdaszLKy5UuV4kT+5KOfl8yrtdTF3IIm+K26dlY7g+BUp8bR39fZT1tMRGz4o8yQwRnAaixeOgCFlW559+0t6s+2vfEZ/2PUhdyCJvi1qk4zS8sNmyRfhnQOypraouJlI64TGqQlI4gD8t0VOU1v4ZpfRAxR0RUPmd18ayr+Kz/PepiDuHZ+sSMbPZeLYI/TMo/CljfrbKutpiCbqMvkR0oYrZKHZjpZPGQ+QpP/LMaoqUV/6Xq+UqVZ5wvbt/jM/8G6oIO4RcpXgB7bk429vOH1CMbJK8AxLVXVNVWafAQeEdmqGAroFyLbqhWt/Qfs0ereq4WJ3K+iu19MAhunZrN3liai+N7Q+6hdXIbgFRce1pVfZVGxLTWyQyVTgOnkIdmulg8dJH7sYqapX97R0G38gtUPFPrqi66mA+A9dSFHcIzuWVyFntlUQ47tBahDxv9oE5yA+DoG1TUV6lETHuCzGAp6ldNHpzpYsf+k9TM/E273iip+FcVz1NqnJbNO9/t1AUewlMV5/SLz/VfeyjXnelRhw30n+KdD8nP3VIVNVYqPAwGywyXDr3vIw/O9HAJi5bdpWb2H7PiKp6lVVX6pbzrfZG62EMoTnQTgf/Koly2vzaP1W+mDxjob/eukNsAJOPaTBV1VioR07paZrhEu4/0QXgG3863zFC09G+9VVRiXyz7Oaodl92WP/RvUBd+GB7ruJsm6WzbjCz35b1di3PYu6ta46Ae2CzfXJYr9flMOronB6u1CLEFTHbIdB2KS4Faaofe45Q0AFHTulb2M7RqbG4r/rA/Sx0Ipw2JRBZ7ZEqWe4LbC/Ny2csLc9iuJTlsNx/s0P/ueTiX7V2Z687OxBKtOIzn0NrW7OhG+sCA6aU43llqAxDXLdm1VjpXXll+fsS0DssMmc63zCQP0CDrbv1TEP789/yE7Ot93bf9fXR970Y+I3x2Tg7bs7wxKMThHtSFBULof8WtjnJXALQhMmutMngwPC4zaMTLa9QhGmQ7DpispAHIN+3fy3xuTuzzf4g69MUM/7UluW7gUxcRCGEw3TE7W24DkNDKZNZbZRimNVlm0HS4/n7yEA2yBT3vkR7+Ytuf7LP++UM+kSr0147X2XNzs9mBFGb4EMKW+9g0uVcB1zn6z2XWW2UYMfsWmWHTvsdo8hANql0HzwvE7D8Z1/tQBb/4LF+c2kVdMCCE6ePGiXIbgNVOdoHMmqsM3gD8RHbgFA9dSB6mQVTF8r87+5f42X9dQi8SV116GfxrqnX3BT68/AUhlG3DI3KvAnadfNG3ZNVcpURLrVayQ6fzLbPIwzSIFlw3RsEKgHWTrGdlxdSsr/Hwf8bL8BdXseLzfQihKj+SfQywox2SVXM9wYhZu2WGTtGNE8jDNHDesUj6xT9GzD5iXHtXpqznJBnXJ3sV/Osn6O42MOriACFMb/dJPgWQ18kXZNVcT4iY9lKZwVPQeyx9oAbMToNUHP5jPSjrGUk6uulV+D/OZ/2H8Tk/hNADxWVQUhsAR0vKqruewBuAv0sNntIR7LJhS8hDNUiKexRkNwBR0/qFjOdDXPDDH+q9XoT/zrk52L8PIfTMF+bLPQMg5WgJGXXXM/LNyt/KDp8ut88hD9UgKX37n2m/IWvrXyquxVUHv7iwZe8KLPlDCL31yVmSzwAIyiFAJ2nXs0KT3QB0umkqeagGxeI7FrGo5J+/EbMmyng2VjtZP0jG9XqV4b+2WnePeqUuBBDC8Ll5ivQzAKRuu/YEI2a/KjOAOvSNkwdrUOx862zpy//5scprWvpMlJdnnMtn/1tUhr+4uQ0H+kAIKTy2SfIOAGFVVqGMTPYU3gDMkRlA7XvcTR6sQVH6/n/TrherOi19JlIJrZ/q8D+4BuEPIaRRXDAld/lfbxB3pMjIZE8xYhVDZM9Ci4cuIg/XIFjYJy55+d/e2tLnYePovK8k4/pbqsJffOa/P4llfwghnfJ3AOivy8hjz4mUVPxYdgPQ+VYcCHQ2KngBsLKlz0PK0QYom/3jhT8IoQ98bo7cFwC5S2Xksed0jI36Gp85HpMZREX9J5KHaxCMdB8hdwWgxPpzS56FrYmML/EGYJeqBkDc3kc98CGEcOtUyTsA4rolK5M9hzcAj8kMog44EOgLFfcmyF55iZRUFrXkOUg6WdepCv/tM7PJBz2EENZvbuN+FCmzvtU6mX+SlceeY8Ss+2QGUbT7SPKA9btdb6uR3ABYx9uWlX+5uc9ATU3GeSlH36ki/MWNW7jQB0LoB2W/AChcVZ1pyMxkTxFLx7Jno11xINDnKvsIYN7EPd+SZ6AuoXVTMvvHS38QQh+5a4ncFwBTjnZQbJ2Wlceek999eGvZDYDY4kYdsn6208AH5K4AmPaCljwDqbhWq6IBeG4ulv4hhP5xx2zJLwA6+gZZWUyGYVq7ZAZSh+vHkYesnxUvSkpeAbivub/7OiczX+xjlR3+4mY/LP1DCP2kqEsy61wyro+VmcUkGDF7ptQZafcRPOhwMdCZLJR8CRD//Q1v7u8+5WgVKmb/by7D0j+E0D8eWqvgBEBHv1ZmFpNgmNaNsj8G6HLrbPKg9auFfWUfAlTR7Iso+AP8ouxB8egDWaxhC/2AhxDCk8o+AEhYOy67rcwsJiFijojIbgCKbhxPHrR+tUNfR+rPOlJq3dCc33tdIvv7Kmb/b6/A7B9C6C+lf/4f19+QncVkyH4PoH2P0eRB61c7XF8ltwEoqSxpzu9cHGAhO/y3TOazfx8MdgghPKlYkRT3kEiudw/KzmEyxFWy0j8GGDyXPGz9qHhJUurP2rSubs7vnD/AT8huAN56GCf+QQj9pYr9/8lE5k2yc5gMcZWs9I8B+k8iD1s/WnD9/VJ/ztES6z+a+vteObZVruy3/8UbtvX47B9C6DNfWZQjvQFIxVtdpiKLSTCuvStTXCkr9WOAnrge2K8NQK2jdZc9IJ6fl0M+0CGE8NM+Nk3y8r+j7RMnqKrIYjJ4mGyT/zEATgX0YwOQjGvVshuAA6k88oEOIYSneni9/O1/SUevUZHBpERMe4T0jwH6TSAPXL/pkwbgGZkDQrz8Rz3QIYTw0+5eJn/7X8rRr1eRwaREzcrLZTcA0e6jGA4F8lcDsGzMJd+U/fn/Swvw8h+E0H+K20jlNwBZ31EUw5Swc4yY/arsJqDzoBnkoesnqRuAuqrMf5M9IN5bjb3/EEJ/eWxTnvTrf8XNqaoSmBwjZt0luwHo0Hsseej6SeoGIOVoA2QOCDHAjm+mH+wQQniqe1bI3/7HG4BxqvKXnPyY9S+yGwBh1yHzyIPXL1I3AElHr5I5ILZNx61/EEL/+dSD8pf/a53M36jKXx/AzjFM6xXZDUDhDQny4PWL1A0Af4iXyxwQ+PwfQug33eX/arnhzydPHywb0+5CVenrC1R8DBCJVbLioQvIw9cPkjcAjr5T5qDA6X8QQr/51nIVb/9rs1Xlrm+IlI64TMXHAEU3YkugHxqApKN9LHNQYP8/hNBvPjlLwfJ/Qm/WvSuBI2Jaj8tuAKLdR7LiOxaRBzC1lA2A2AIoe1Ac3UQ/2CGE8KRHN7ZhdQm5p/8lHf1oavJF31KZu75BXDGLVYD0awDWVGd9V+agEDdsUQ92CCE8VRWH/yTj2kqVmesrCrqVf52HywHpqwClI0L/LgBlA5CsyiyWOSg2TUIDACH0l2JnkuwGgHuDysz1HYZpOypWATr0jZOHcFgbgFRCu0LmoHjkATQAEEL/+LE4+1/y4T/u8n8iJ1Nl3vqO/JLhnVU0AMKut4f3kiDKBqC2KusnMgfG49NwBgCE0D++skjJ8v8SlVnrW4yYtUlFA9C+173ssmHhvCOAdAUgrv1K5sDYPgMNAITQP26eLPnq38YVAFNlzvqWaGnFf6laBeg4YDJ5GIetARCnWMkcGGKrDfWAhxBC4f6kiqN/tUOpcdrXVeasjxEXBFlPqmgAoqWVrHjIfPJARgOABgBCGHyfm5ujogGYoTJhfU9+rPIaVasABdfdx8J2XTAaAAghlKu4kGyt5KN/hXXxrKtU5qv/6VZznhGznlPVBITtbAA0ABBCKFcVe//57H9fTU3BBSrjNRBETatMVQMg7DRoJnkwowFAAwAhDKaPPqDi5T/NUZmrgeHKK8vPj5jWi8qaAHFMcEjeB0ADACGE8nxfxct/3Np45r+rzNVAoXJHgLB9j9Gs+I6F5AGNBgANAIQwOD7zoPyT/5Jx7bXy8oxzVWZq4DBi9gqlTUCve9L+wiA0ABBCKMcjG/PYGgUv/3FHqMzSQBKNVRTyJuCYyiagQ++xrHjYYvKgRgOABgBC6G9fXqhg6x+37v7s9iqzNLAYpj1WZQPgrgRcNyZtVwLQAEAIYcsVW//WT1Aw+3f0NSozNNAUldgXR2LWO8qbgJ53s65peHMgGgAIIWy5ry9VM/vnxlRmaODhwdNDdQPgNgE9RrMug+eShzYaADQAEEL/2PCIsnP/9y9O5HxVZX6mBUbMnuNFEyCODO448AHy4EYDgAYAQugP9yxXs/UvGdfHqszNtMG49q5Mw7Te8qIJEHboU5UW7wWgAYAQwubbsIXP/qcomf03pKqyClXmZloRMa2rvWoAhOIjgaCfGogGAEIIm6+SY3/d2b+2UmVepiUR057gZRMgLOg9NrDvBqABgBDC5lnPZ/8bJ8kPf7cBSGT+VmVWpiUF3cq/bpj2Dq+bgCi38IY463p7sBoBNAAQQtg8X3tI1exffx4n/zWTSJn9nYhp7/W6CThp+173sk43T2eXDfP/1cJoACCEsOmKU//WjZf/2X+j2kCVGZn28AbgR4ZpHaVqAtxGoOwuVnhDgnW+ZSZvBvx5miAaAAghbLrP1qjZ9y+2/q2f0OobKvMxFERKrRsoG4BPBGNpJevQexzrOGAybwhmsa4+uW0QDQCEEDZNVTf+uTra3xXGYriImNY46vA/o6UjWEGve1kHHsKFfR1WdEM1K7pxgtskdLppqieKC4/QAEAI4dlZv7kNe/QBVUv/+oHl4/MuUZmJIYOdw4OpmjzsQyIaAAhhOvviAmVH/orZf4XKNAwn3WrOi8SsadThGAbRAEAI01Wx9F+nLvwPrp2YramMwvDCmwAjZs2gDsh0Fw0AhDAdPbpJ3Z5/YdLRR6qMwNBz5ZXl5xumNZc6JNNZNAAQwnSzYUsee2JGtrrwj+vvrRqb20pl/gGB+DjAtCupgzJdRQMAIUw3d85V+Ll/4+z/ZpWxBz5FfknF9dTnBKSjaAAghOmkqtP+Tpn9v1BTU3CByrwDpyEaq/x5xLT3U4dmOokGAEKYLr6xVG34C+sc/fcqcw58Du3MigIeXE9TB2e6iAYAQpgO7lqidtnf1dHXqMw3cBa0LSv/svtegGnXUwdo0EUDACEMsuKGv+fnexD+ce1w3f3Z7VVmG2gChlnxUx5ir1GHaJA1Sip/fbY/bzQAEEI/eXhDHnt8mrq3/U81Gdf/ojLPQDNoW1b+LSNmT4nErAbqMA2i0RK7+Gx/1mgAIIR+cc/DuWzDBPXB74a/o2/bmsj4ksosAy3AMK3v80BbSx2owdJqaNez4qxPskIDACGk9sM1fNY/3ZtZ/4mZ/7HVicyuKvMLSIIH21WGab9AH67+14jZjzXlZ4sGAEJIpTjWd8dsHvwJb4L/n7N/7U5VeQUUUNCt/AIjVtmPNwI7qUPWzxqxiiFN+bmiAYAQeunH6/Pcff1bpyq7ze+Lwj9ZU5NxnqqsAkph5+SX2j/jM90leEfg0+Fv7e4YG/W1pvw00QBACFXZsKUNO7S2tfvZ/vPzclRe4XuW4a+/mRqnZatKJ+Ah0VhFYcS0qrhvU4cvuWL7pGld3dSfIRqA4HtwTR7bs7y1O6sS+6Yh9NJXF+eylxbkshfn57jH9T5Tk+1+nr9pUhZb4/HS/ueGf1w/lkxkXqkiiwAl3WrOi5ZWXMlnwPfxIHyDPIw912rg3/fg5vzo0AAE0/rNjcejiiJLXVghDIJJR2vSx6MgkLBzombl5dGYNcwwrcU8HN+hD2h1GqZ9KFJSWdLcnxYagOAp3pjePBnBD+HZq8VlpgwIENFSy4iaVhkPy7F8prw0YlrP8D8/pg7vFgd/zK7O7z68dUt+NmgAguV7ta3Z2mrqYgphcEzG9Tl46Q98hqg5PMcoqfjXiFnxR9EgRGN2HyNmDzViVlhojwAAEsBJREFUVrk4lpiHrMNN+EUe+KP513eLOOo3r9vor8j4GaABCI6H1uWxdeMx84fwbE062qplY9pdKKNWApB2oAEIjtumI/whPFt5+D+SGqd9nbrGAuBb0AAEw/dWtyYvqBAGR6122ZhLvkldXwHwNWgAguGzNV7cjAZhWjg3Nbntl6lrKwC+Bw1AMNwwAcv/EH6hjjaasYxzqOsqAIEADYD/FXv+yQsrhD426ehHk4nMm6jrKQCBAg2A//14XR55gYXQrybj2mu1Ce2H1LUUgMCBBsD/foQGAMLTysN/1vLxeZdQ11EAAgkaAP+LBgDCT5qM628lq7Q/UNdPAAINGgD/iwYAwkbFhT4pRx+zKnHxRdS1E4DAgwbA/6IBgGGXB399Mq7NXFWdaVDXTADSBjQA/hcNAAytjnYk6WjT6hJ6EXWtBCDtQAPgf9EAwLAp3uznwf9/K8e2yqWukQCkLWgA/C8aABgGeeDvTTr6pGRc/2l5eca51LURgLQHDYD/RQMA01PtMA/7tTz47+T+K67sBcBj0AD4XzQAMPA6+m4+u1+XcrREKqH1E4G/cXSelCvNAQDNBA2A/5XdAPBCvJ8X5EoIZchn8VYyrg11dfSba6sye/E/f8eD/opUolUUF/MA4FPQAPhf+SsA2kvUzx0AAABi0AD4XzQAAAAApIMGwP+iAQAAACAdNAD+Fw0AAAAA6aAB8L9oAAAAAEgHDYD/RQMAAABAOmgA/C8aAAAAANJBA+B/0QAAAACQDhoA/4sGAAAAgHTQAPhfNAAAAACkgwbA/6IBAAAAIB00AP5X+l0Ace2VdVUXXQxpxK13AABfgAbA/+I2wPQyGdfrU46+m//1g6mqrGtS5RnnU9cBAEAIQQPgf9EApLdJR3+2NqH9groWAABCBhoA/4sGIP0VqwJJRxtCXQ8AACECDYD/RQMQHpNxrT91TQAAhAQ0AP4XDUB4TDr60dWJzK7UdQEAEALQAPhfNAAh09HrqOsCACAEoAHwv2gAwmddQi+irg0AgDQHDYD/RQMQSv9KXRsAAGkOGgD/iwYglM6lrg0AgDQHDYD/RQMQPpOOtpG6NgAA0hw0AP736MY25IEEvVbbTl0bAABpDhqAYLimmjqQoLeiAQAAKAYNQDB8fHq2D0IJeicaAACAYtAABMPXHsr1QShB70QDAABQDBqAYHh8cxu2YQJ1KEHvRAMAAFAMGoDguHspVgHCIxoAAIBi0AAEy+fm4l2AcIgGAACgGDQAwbKB+9ICrASkv2gAAACKQQMQTPeuyGWbJ2f5IKigGtEAAAAUgwYguNZvacPeWdmaPTcnmz02LYttnJjF1o2HVKIBAAAECjQAELbcg2tkH9eMBgAAoBg0ABC2XDQAAIDAgQYAwpaLBgAAEDjQAEDYctEAAAACBxoACFsuGgAAQOBAAwBhy0UDAAAIHGgAIGy5aAAAAIEDDQCELRcNAAAgcKABgLDlogEAAAQONADQF25tx9hTv2TsuRLGXryBsRf68L++hrHt/8bYo9+l//q+QDQAAIDAgQYAkvn0fzD2VoKxQ08xxurZGak/zNiBDYy9bjP2xOX0X/dpRAMAAAgcqYT+M5mFa/sMNADw82zLZ/j9eeg/febA/1zqGdu/mjcPV/vge/mnH9S1ltwA6FupawMAIM1JVemXyyxcj09HAwDP4NO/Yezg9mYG/2l4dwFj27rQf1/c/Um5KwBJR19HXRsAAGlOqiqrUGbhenQqGgD4ab/N2K5yxhqOyQv/kxzbx9jOGPn3+O4quSsASUdbRV0bAABpzprqrO/KLFwbJmaRF2PoI8ULfO/MkR/8p9JwnLFXh5F+n3uWS24A4toS6toAAEhz1k7M1mQWrlRCZw1b8uiDB/rAtoztW6I2/E9l1/+Sfa+vLs6V2gCkHH0KdW0AAKQ5y8a0uzAZ1+tlFq+Da9EAQO6eSd6Fv0sDYy8OIPlen63JkbwCoFvUtQEAEAJSjrZLZvHauzKXPnwgrS/09Tj8T1B/iLEdP/b8+31sWpbkFQBtAHVdAACEgFRcq5VZvF5ckEMfQJDObZ0ZO/Y+TQMgOPgkY49+x7Pvt4G7brzcBiBZpf2Bui4AAEIAn20kZBYvMRsiDyFI595ZdOF/klf/4tn3q+AMAJaq1jpT1wUAQAhIxbXBMotXXUJnRzf5IIig927/oZrtfk3l6N7G44U9+J53LZH7AmAyrh9LTW77Zeq6AAAIAUlH/53sGcxby/EeQCj1/MW/z+GVwZ58z9tnZktuALRnqGsCACAkrKjK0nkT0CCziOFOgBAq9vyLg3n8wgdblH/PRze2YXUJyS8AxvUHqWsCACBE8AbgWdkfAxzegO2AofK5a6kj/1M0MLatq9Lv+fWlcrf/nVgBGEpdDwAAIYIXnWrZheyVRdgNECrfHEed+J9F8bkAW6fKXf4XrnayfkBdDwAAIYIXnpjsQia2Rh3bhFWA0HhgHXXcf5Y945V9vwdSsq8A1sUJgO/X1GScR10PAAAhYs39F7eR/R6A8OWFWAUIjUfepI77z/J+Utn3K/vlv0a1RdS1AAAQQlKOtll2QVtbrbsvSpGHE1Tst/2x/e/THHpKyferZPbPTSYyb6KuAwCAEMIL0CAVRe35eVgFSHu3Rqij/vQcflXJ97ttuvQ3/8X+//qVY1vlUtcBAEAISY3TslOOflxFE7CvtjV9SEF1bjWoo/70fPyS9O/1rYcl3/x3UkdbTV0DAAAhRhQhFcVt06QsdnyzD4IKKlJ8BHCcOu4/i7gXQOL3KT7OWj9BQfiLFQAn6zrq8Q8ACDG8AeihZHbD3TkXHwWktUfeoI77z/Lew1K/x6dmy9/336h2eF3VRRdTj38AQIhZNqbdhSlH362qCdi9DEcEp63vr6GO+8/yZpW07+91yWf+f3L2r0+iHvsAAJCRSmh3qCp04tjU/UmcDZCW7r6bOu4/y/O9pHxv4q3/NQk1Y0JY62idqMc9AABkpCZf9C1elA6oKnbiM9SP1qIJSDuf/QN13H8SsS3xsYIWf18fr89jGybKf+v/FJdTj3kAAPgHybg+SmHBY5snZ/HC6oPQghJty9iR3dSx/0/2r2rx93SYh794VlWOhVRC/xn1eAcAgH+wJpGZk3T0D1QWPrEzQMyu6IMLSnP3PdSx/09e6N2i70W88f/IFLXhn4xrm6jHOgAAfIakow1ROvNxmwB8HJBWPt6RsfqD1NHP2EcvMHdFopnfh5j5P/qA4vAXR29X6ZdTj3MAAPgMNTUFF6QcfafqJkB8vipesiIPLyhHP7wM+HzPZn/9B3lDKhpT1c99ytFmUI9xAAA4I7VO5m+UF0KueMN6z3KcFpgWbs1n7OOX6cJ//8pmf+37k63dWyw9CP9D4gIu6vENAACfi7ihzIsmQPjSglzWQB1gsOU+/RvGGo54H/5H32FsW9dmfc2vPZTrblP14jlPxvVy6nENAABfyIqqLJ0XrLe8agIem5bFPlqHjwQC78u38ERu8C786w/xxuPqJn+dxzblsaceVHXC3+lm//pj4uM16nENAABnRTKR+Vv3pSWPiqRYht2zAh8JBN5d/+tNE1D/MWM7S5v89Yklf7EbxavnOhnXPqq7P7s99XgGAIAmwWcuYzybJZ3w6ZpsdmQjVgMC7cu38x7gqLrwP/Ze4yFETfiaxKx/5zwPZ/3/mP1rA6jHMQAANJnU5LZf5kXsCa+LplgNEHcINGzxQZjB5imW5g+/Lj/8P9zK2BOXN+lreWdla7ZR7cl+Z3I5YxnnUI9jAABoFqlxWruko+0lKJ7uuwEf1GE1ILBujTRezlN/uOXBf2wfY6/+hTVlr/+Ha/LYEzOzKYJfvPT3wqqxua2oxy8AALSIukT298U2JopCKhRXsuIlwQC7rZixt5zGN/abyscvMfbacN5MRM/6vycO9RFXUdcRPa98rOyrrWoVoR63AAAghWSV9gc+q6mnagLEdq3n5+W4xZ080GDzfPS7jD13DWNv3s/YgQ28IXj7U2lfz9jh1xh7v5ax10cw9vRvm/TvP7whj70wP4etrSYK/sbwP5Jysn5EPV4BAEAqyYR+G1lhPaE4QOiZOTnsEFYE0kdxg18TZvifVtwv8cK8XKXX956tvEnuQz1OAQBACXyGU0FdZBtXBHgjUJPNPqjD1sGwKrb0iY+H6nwQ/K6Odjv1+AQAAKUk49pQ8mJ7ilunZrO3lotdA1gVSHePb27j7hBRfXFPUzxxXsYg6nEJAACe4MXNgU1VXDIkjhY+hNsG00qxHXR/bR57bk62N+f2NzH8+Vi4kXo8AgCAp/Did7OXpwU2xcenZbszRRwqFFzFLX2iofPkpr7mhL94KdbRr6cehwAAQEJtQi8Rx51SF+MzKbaCbZuRxd54KBc7CAKgeKfj5YU57JEp/prpf0ZHO1TrZP6JevwBAAApjecE6LvJi/IXmdDZ49Oz2eu8GcC5Av6wfksb9l5ta/b8/By20acz/dOE/666qswu1OMOAAB8wcqxrXJTcW0LeXFugpsnZ7kHxuxdmeueFU8dhmFRNF/i4xnxBj/pnv3muT41TsumHm8AAOArNo7O+wpvAqb7oEg3WbGHXHxUsGtxDns/1Ro7CiQHvtil8WxNjvuiJvXvutk6WgLX+gIAwOdQ62jdecE8QF6wW6CYmT4xI5u9sijXfQO9fjN9kAZB8cb+wTV57I2lue7NjkSX8EgOfv39ZEIrox5XAAAQCFJO1neSjr6OvHhLUqwQiMuJxGfVYjYrthritkJxCl8btndla/bSwlz34h2/bdNruVrtqkTOt6nHEwAABIqamozzknH9L7wROEpfyOUrwm7b9Cz24oLGpkC8wZ6uKwXiZT1xu97byxvD/smZOWzDhHQL+38qdrYkE5k34TpfAABoAeKN6ZSjbaYu6l4oth1unpLFnpqd7W5ne+vhXPfIWrEF0e8rBuLrEzN68ZHHm8ty3a//qQdz2JYp2f45btcL+bOK2/wAAEAS5eUZ54pDU1Jx7V3yAk/kmmrdDdPtM7PZs3Ny3IAVn5XvXdGavc+bBPGy3NGNbaS/gChWJcSBSOJjC9GMiFm82AopDtkRL+aJpXuxI8IPl+nQqr2ddPS+YuWKerwAAEDasWpsbquko42nvFo4CIpmQSyxb+HBLO46EIqXEk+6Y3a2u43uyVn//HtiF8PJf1YE+voJOkL9bHS0I/x5HLUqcfFF1OMDAADSnmQi61940V1LXvxhqOXN6ILUOK0d9XgAAIDQkazSfsmL8CPUQQDDpraltirrJ9TPPwAAhJ5UQv9ZMq4/Th8MMM1dXxfPuor6eQcAAHAK7ouCVVnXpBz9MR8EBUwTG2+s1BalqvTLqZ9xAAAAX0AqoV3BC3cNbwaOUwcIDKbiRdNkXFuSrMospn6eAQAANJHahPY93gSMSTnaQepAgYHxDf7MVIrTKKmfXwAAAC1k+fi8S8TJbElH3+aDgIF+s3Er3xzxUqn4KIn6eQUAAKCA2uqsDmKGl3S0veTBA0nlof98Mq4NXT1ez6J+LgEAAHjEsjHtLuQzvz+Kz3lTce0wdRhBr9ReSjr6SPFSH87qBwCAkLM4kfNVsb2Lzwin8nD4gD6koOzQd98FSWhXIPQBAACclo2j876SSuj/6TYDcf09+vCCzfHEuRB/rbs/uz31MwUAACBguFcSV2UWi8+Jk462Kl2vJk4HxTsdYusnD/4+qxI536Z+dgAAAKQRYjdBXULrJi4kSjnaLurQC7O8KfuosSnThqSqtc5Y2gcAAOAZK8e2yhUNAW8GEqm49nTjqXH04ZiO8pn9hyLw+c/67+Lo59Tktl+m/v0DAAAALqIhOHEc8TjeDDyKjwxaoKO/yGf5s3hjNbDW0Tphfz4AAIDAkCrPOF+cO8ADrLv7Fnpc34rjiT8rb5TedLdj8tm92I2xdmK2Rv27AwAAAKSSGqd9fbWT9YOkk3UdD727uStFAFKHsDezem1fMq6vTTqaw7/v/nWJrB+nEjmZ1L8TAAAAgAz3BcOqzH/jIdmDB+T/peLadP7nRv6/95AHd5Nm89o7/Gvfwr/u2TzsrZSjX8///OmaRGYO9c8YAAAACBQrpmZ9TXyUIII0VaWV8nC9Xawe8D9n8ICt43+9Q+xKSDr6fkVL9Pzfq73Kw/1J8d8T/13+1/fwvzdYfD11jv7zVFVW4foJrb5B/bMCAAAAQktq8kXfEnvhRSi75xi4Zxnw5kG8Pc+trdKvdncvVGX9x8m/J5bjT/6zotlYc//FbVYlLr6I+nsBAAAAAAAAAAAAAAAAAAAAAAAAAAAAAAAAAAAAAAAAAAAAAAAAAAAAAAAAAAAAAAAAAAAAAAAAAAAAAAAAAAAAAAAAAAAAAAAAAAAAAAAAAAAAAAAAAKBZ/H9Hdffbd0M2UwAAAABJRU5ErkJggg==;" vertex="1" parent="1">
          <mxGeometry x="350" y="335" width="30" height="30" as="geometry" />
        </mxCell>
        <mxCell id="zXSD_kcFRXYyIfpvOB7h-47" value="" style="endArrow=classic;startArrow=classic;html=1;rounded=0;" edge="1" parent="1">
          <mxGeometry width="50" height="50" relative="1" as="geometry">
            <mxPoint x="493" y="289.5" as="sourcePoint" />
            <mxPoint x="663" y="289.5" as="targetPoint" />
          </mxGeometry>
        </mxCell>
        <mxCell id="zXSD_kcFRXYyIfpvOB7h-48" value="" style="endArrow=classic;startArrow=classic;html=1;rounded=0;" edge="1" parent="1">
          <mxGeometry width="50" height="50" relative="1" as="geometry">
            <mxPoint x="493" y="349.5" as="sourcePoint" />
            <mxPoint x="663" y="349.5" as="targetPoint" />
          </mxGeometry>
        </mxCell>
        <mxCell id="zXSD_kcFRXYyIfpvOB7h-50" value="" style="endArrow=none;dashed=1;html=1;rounded=0;" edge="1" parent="1">
          <mxGeometry width="50" height="50" relative="1" as="geometry">
            <mxPoint x="320" y="246" as="sourcePoint" />
            <mxPoint x="780" y="246" as="targetPoint" />
          </mxGeometry>
        </mxCell>
        <mxCell id="zXSD_kcFRXYyIfpvOB7h-51" value="" style="group" vertex="1" connectable="0" parent="1">
          <mxGeometry x="350" y="410" width="120" height="90" as="geometry" />
        </mxCell>
        <mxCell id="zXSD_kcFRXYyIfpvOB7h-52" value="" style="shape=note;whiteSpace=wrap;html=1;backgroundOutline=1;darkOpacity=0.05;size=19;strokeColor=#000000;fillColor=default;" vertex="1" parent="zXSD_kcFRXYyIfpvOB7h-51">
          <mxGeometry x="40" width="40" height="60" as="geometry" />
        </mxCell>
        <mxCell id="zXSD_kcFRXYyIfpvOB7h-53" value="plot.png" style="text;html=1;align=center;verticalAlign=middle;resizable=0;points=[];autosize=1;strokeColor=none;fillColor=none;" vertex="1" parent="zXSD_kcFRXYyIfpvOB7h-51">
          <mxGeometry x="25" y="60" width="70" height="30" as="geometry" />
        </mxCell>
        <mxCell id="zXSD_kcFRXYyIfpvOB7h-55" value="" style="shape=image;verticalLabelPosition=bottom;labelBackgroundColor=default;verticalAlign=top;aspect=fixed;imageAspect=0;image=data:image/png,iVBORw0KGgoAAAANSUhEUgAAAOEAAADhCAMAAAAJbSJIAAAAWlBMVEX///8AAAB9fX3i4uJQUFD6+vr29vYuLi66urqPj4+AgICxsbGlpaXb29vY2NgjIyNqamqJiYldXV1LS0ufn58RERHu7u53d3e+vr7m5ua0tLSWlpZkZGSrq6vkmxibAAABnElEQVR4nO3Zy1JCMRBFURBFBAF5qqD//5uOOihSuZQVicG1p5y66TWm15MkSZIkSZIkfW3xlFre1T7mV1r1D12n8Jaw+Qjbj7D9CNuPsP0I6zVcP2Y799q/Kxz08w3P/A5hvQgJI8J6ERJGhPUiJIwI60VIGBHWi5AwIqwXIWFEWC9CwoiwXoSE0cWFg2mu2eHuZoWb/N27NGxWeJ+/e5SGhIQRYfEI05CQMCIsHmEaEhJGhMUjTENCwoiweIRpSEgYERaPMA0JCSPC4hGmISFhRFg8wjQkJIwIi0eYhoSEEWHxCNOQkDAiLB5hGhISRoTFI0xDwgsLt4Ns2/aFi/w1z+0LH/LXjAkJCQkJCQkJCQkJCQkJCQkJCQkJCQkJCQnzwml/nmvTvnDW8QghISEhISEhISEhISEhISEhISEhISEhISHhD4XffpxeXviShq8dj5/7X+Bn4eSo3b7jkV1avuWHy1EsR/P8chzf3K07Hn8/Pncy6RQ2H2H7EbYfYfsRtt8/Fa5qX1Wyk8L9zRV1UihJkiRJkqSafQDhqWCZ52YeoQAAAABJRU5ErkJggg==;clipPath=inset(6.44% 4.22% 8.22% 1.56%);" vertex="1" parent="zXSD_kcFRXYyIfpvOB7h-51">
          <mxGeometry x="41" y="24.77" width="38" height="34.41" as="geometry" />
        </mxCell>
        <mxCell id="zXSD_kcFRXYyIfpvOB7h-59" value="&lt;b&gt;&lt;font color=&quot;#ffffff&quot;&gt;1&lt;/font&gt;&lt;/b&gt;" style="strokeWidth=2;html=1;shape=mxgraph.flowchart.start_2;whiteSpace=wrap;fillColor=#330000;" vertex="1" parent="1">
          <mxGeometry x="418" y="66" width="20" height="20" as="geometry" />
        </mxCell>
        <mxCell id="zXSD_kcFRXYyIfpvOB7h-60" value="User Input (Functions, Test Duration, Test Repetitions, Virtual Users)" style="text;html=1;strokeColor=none;fillColor=none;align=left;verticalAlign=middle;whiteSpace=wrap;rounded=0;" vertex="1" parent="1">
          <mxGeometry x="447" y="61" width="213" height="30" as="geometry" />
        </mxCell>
        <mxCell id="zXSD_kcFRXYyIfpvOB7h-61" value="&lt;b&gt;&lt;font color=&quot;#ffffff&quot;&gt;2&lt;/font&gt;&lt;/b&gt;" style="strokeWidth=2;html=1;shape=mxgraph.flowchart.start_2;whiteSpace=wrap;fillColor=#330000;" vertex="1" parent="1">
          <mxGeometry x="500" y="113" width="20" height="20" as="geometry" />
        </mxCell>
        <mxCell id="zXSD_kcFRXYyIfpvOB7h-62" value="Process functions input" style="text;html=1;strokeColor=none;fillColor=none;align=left;verticalAlign=middle;whiteSpace=wrap;rounded=0;" vertex="1" parent="1">
          <mxGeometry x="529" y="107" width="130" height="30" as="geometry" />
        </mxCell>
        <mxCell id="zXSD_kcFRXYyIfpvOB7h-65" value="&lt;b&gt;&lt;font color=&quot;#ffffff&quot;&gt;4&lt;/font&gt;&lt;/b&gt;" style="strokeWidth=2;html=1;shape=mxgraph.flowchart.start_2;whiteSpace=wrap;fillColor=#330000;" vertex="1" parent="1">
          <mxGeometry x="500" y="169" width="20" height="20" as="geometry" />
        </mxCell>
        <mxCell id="zXSD_kcFRXYyIfpvOB7h-66" value="Create test scripts" style="text;html=1;strokeColor=none;fillColor=none;align=left;verticalAlign=middle;whiteSpace=wrap;rounded=0;" vertex="1" parent="1">
          <mxGeometry x="529" y="163" width="130" height="30" as="geometry" />
        </mxCell>
        <mxCell id="zXSD_kcFRXYyIfpvOB7h-67" value="&lt;b&gt;&lt;font color=&quot;#ffffff&quot;&gt;6&lt;/font&gt;&lt;/b&gt;" style="strokeWidth=2;html=1;shape=mxgraph.flowchart.start_2;whiteSpace=wrap;fillColor=#330000;" vertex="1" parent="1">
          <mxGeometry x="502" y="259" width="20" height="20" as="geometry" />
        </mxCell>
        <mxCell id="zXSD_kcFRXYyIfpvOB7h-68" value="Save test summaries" style="text;html=1;strokeColor=none;fillColor=none;align=left;verticalAlign=middle;whiteSpace=wrap;rounded=0;" vertex="1" parent="1">
          <mxGeometry x="531" y="253" width="130" height="30" as="geometry" />
        </mxCell>
        <mxCell id="zXSD_kcFRXYyIfpvOB7h-69" value="&lt;b&gt;&lt;font color=&quot;#ffffff&quot;&gt;7&lt;/font&gt;&lt;/b&gt;" style="strokeWidth=2;html=1;shape=mxgraph.flowchart.start_2;whiteSpace=wrap;fillColor=#330000;" vertex="1" parent="1">
          <mxGeometry x="501" y="320" width="20" height="20" as="geometry" />
        </mxCell>
        <mxCell id="zXSD_kcFRXYyIfpvOB7h-70" value="Create plots" style="text;html=1;strokeColor=none;fillColor=none;align=left;verticalAlign=middle;whiteSpace=wrap;rounded=0;" vertex="1" parent="1">
          <mxGeometry x="530" y="314" width="130" height="30" as="geometry" />
        </mxCell>
        <mxCell id="zXSD_kcFRXYyIfpvOB7h-71" value="&lt;b&gt;&lt;font color=&quot;#ffffff&quot;&gt;8&lt;/font&gt;&lt;/b&gt;" style="strokeWidth=2;html=1;shape=mxgraph.flowchart.start_2;whiteSpace=wrap;fillColor=#330000;" vertex="1" parent="1">
          <mxGeometry x="432.5" y="396" width="20" height="20" as="geometry" />
        </mxCell>
        <mxCell id="zXSD_kcFRXYyIfpvOB7h-72" value="Save plots for each language" style="text;html=1;strokeColor=none;fillColor=none;align=left;verticalAlign=middle;whiteSpace=wrap;rounded=0;" vertex="1" parent="1">
          <mxGeometry x="461.5" y="390" width="130" height="30" as="geometry" />
        </mxCell>
        <mxCell id="zXSD_kcFRXYyIfpvOB7h-73" value="" style="rounded=0;whiteSpace=wrap;html=1;" vertex="1" parent="1">
          <mxGeometry x="90" y="182" width="180" height="71" as="geometry" />
        </mxCell>
        <mxCell id="zXSD_kcFRXYyIfpvOB7h-74" value="FaaS Platforms&lt;br&gt;&lt;font style=&quot;font-size: 10px;&quot;&gt;(OpenFaaS, Nuclio, Fission, Knative)&lt;/font&gt;" style="text;html=1;strokeColor=none;fillColor=none;align=center;verticalAlign=middle;whiteSpace=wrap;rounded=0;" vertex="1" parent="1">
          <mxGeometry x="80" y="182" width="200" height="30" as="geometry" />
        </mxCell>
        <mxCell id="zXSD_kcFRXYyIfpvOB7h-75" value="" style="endArrow=classic;html=1;rounded=0;" edge="1" parent="1">
          <mxGeometry width="50" height="50" relative="1" as="geometry">
            <mxPoint x="330" y="140" as="sourcePoint" />
            <mxPoint x="190" y="170" as="targetPoint" />
          </mxGeometry>
        </mxCell>
        <mxCell id="zXSD_kcFRXYyIfpvOB7h-79" value="" style="group" vertex="1" connectable="0" parent="1">
          <mxGeometry x="191" y="120" width="159" height="30" as="geometry" />
        </mxCell>
        <mxCell id="zXSD_kcFRXYyIfpvOB7h-76" value="&lt;b&gt;&lt;font color=&quot;#ffffff&quot;&gt;3&lt;/font&gt;&lt;/b&gt;" style="strokeWidth=2;html=1;shape=mxgraph.flowchart.start_2;whiteSpace=wrap;fillColor=#330000;" vertex="1" parent="zXSD_kcFRXYyIfpvOB7h-79">
          <mxGeometry y="6" width="20" height="20" as="geometry" />
        </mxCell>
        <mxCell id="zXSD_kcFRXYyIfpvOB7h-77" value="Deploy&lt;br&gt;functions" style="text;html=1;strokeColor=none;fillColor=none;align=left;verticalAlign=middle;whiteSpace=wrap;rounded=0;" vertex="1" parent="zXSD_kcFRXYyIfpvOB7h-79">
          <mxGeometry x="29" width="130" height="30" as="geometry" />
        </mxCell>
        <mxCell id="zXSD_kcFRXYyIfpvOB7h-81" value="" style="endArrow=classic;html=1;rounded=0;" edge="1" parent="1">
          <mxGeometry width="50" height="50" relative="1" as="geometry">
            <mxPoint x="330" y="290" as="sourcePoint" />
            <mxPoint x="190" y="260" as="targetPoint" />
          </mxGeometry>
        </mxCell>
        <mxCell id="zXSD_kcFRXYyIfpvOB7h-82" value="" style="group" vertex="1" connectable="0" parent="1">
          <mxGeometry x="220" y="279" width="159" height="30" as="geometry" />
        </mxCell>
        <mxCell id="zXSD_kcFRXYyIfpvOB7h-83" value="&lt;b&gt;&lt;font color=&quot;#ffffff&quot;&gt;5&lt;/font&gt;&lt;/b&gt;" style="strokeWidth=2;html=1;shape=mxgraph.flowchart.start_2;whiteSpace=wrap;fillColor=#330000;" vertex="1" parent="zXSD_kcFRXYyIfpvOB7h-82">
          <mxGeometry y="6" width="20" height="20" as="geometry" />
        </mxCell>
        <mxCell id="zXSD_kcFRXYyIfpvOB7h-84" value="Invoke&amp;nbsp;&lt;br&gt;functions" style="text;html=1;strokeColor=none;fillColor=none;align=left;verticalAlign=middle;whiteSpace=wrap;rounded=0;" vertex="1" parent="zXSD_kcFRXYyIfpvOB7h-82">
          <mxGeometry x="29" width="130" height="30" as="geometry" />
        </mxCell>
        <mxCell id="zXSD_kcFRXYyIfpvOB7h-85" value="" style="shape=image;verticalLabelPosition=bottom;labelBackgroundColor=default;verticalAlign=top;aspect=fixed;imageAspect=0;image=data:image/png,iVBORw0KGgoAAAANSUhEUgAAARYAAAD2CAYAAAATfqh5AAAAAXNSR0IArs4c6QAAAGJlWElmTU0AKgAAAAgAAYdpAAQAAAABAAAAGgAAAAAABJKGAAcAAAASAAAAUKABAAMAAAABAAEAAKACAAQAAAABAAABFqADAAQAAAABAAAA9gAAAABBU0NJSQAAAFNjcmVlbnNob3Tj6FjKAAAB1mlUWHRYTUw6Y29tLmFkb2JlLnhtcAAAAAAAPHg6eG1wbWV0YSB4bWxuczp4PSJhZG9iZTpuczptZXRhLyIgeDp4bXB0az0iWE1QIENvcmUgNi4wLjAiPgogICA8cmRmOlJERiB4bWxuczpyZGY9Imh0dHA6Ly93d3cudzMub3JnLzE5OTkvMDIvMjItcmRmLXN5bnRheC1ucyMiPgogICAgICA8cmRmOkRlc2NyaXB0aW9uIHJkZjphYm91dD0iIgogICAgICAgICAgICB4bWxuczpleGlmPSJodHRwOi8vbnMuYWRvYmUuY29tL2V4aWYvMS4wLyI+CiAgICAgICAgIDxleGlmOlBpeGVsWURpbWVuc2lvbj4yNDY8L2V4aWY6UGl4ZWxZRGltZW5zaW9uPgogICAgICAgICA8ZXhpZjpQaXhlbFhEaW1lbnNpb24+Mjc4PC9leGlmOlBpeGVsWERpbWVuc2lvbj4KICAgICAgICAgPGV4aWY6VXNlckNvbW1lbnQ+U2NyZWVuc2hvdDwvZXhpZjpVc2VyQ29tbWVudD4KICAgICAgPC9yZGY6RGVzY3JpcHRpb24+CiAgIDwvcmRmOlJERj4KPC94OnhtcG1ldGE+Cm59WpoAAEAASURBVHgB7L0Hl2THdSZ405e37aq9AbrRaDQ8QBiCBAiSEkmARiApzUoazWgkjdFoz57dmd09Z8/8hpmzZ8/OzBE5Z7gjajgypERSdKIRAMIRQMOjG91oV22rurzLrLT7ffe+yHyZlVmVVZVVXeZF1cv3XrywN27cuHHjxo1QAU4CF0AggEAAgQZCINzAtIKkAggEEAggoBAICEuACAEEAgg0HAIBYWk4SIMEAwgEEAgIS4ADAQQCCDQcAgFhaThIgwQDCAQQCAhLgAMBBAIINBwCAWFpOEiDBAMIBBAICEuAAwEEAgg0HAIBYWk4SIMEAwgEEAgIS4ADAQQCCDQcAgFhaThIgwQDCAQQCAhLgAMBBAIINBwC0YanGCS46hCYzeTktfMj8tqHo3J5aEa6WmNy1/5ueeRIr/S0JVa9PEGGcyGQzRVkeGJWro9mpalJZN/WZklEwxIKheYG3gA+oWB38/psxTw2pU8l0/Lm+SH5+vMX5cX+tORTaQlnMhIBrsaBtH09zfKbj+2Xz9y1XbZ2NEk0vDGReK22YC5fkLHpjJy/PiUnzg3LmYEpSeXQBqGY7GgLy4MHOuTI7g7Z2t0szfGNNcYHhGWtYmWNcmVzeRkFsv7q7JD8+YsX5NS1Cbk6CSKTi0hTNifxfFZCYpYwIiAknW0xObg1Jp+8dzcIzC7Z3d0iiVikRuqB93IhkAcxmZjJSv+NaXmrf0TODU8qcUmmCpLNoGUKbJ2YxEBf2iMRaW+KSU93Qo4dbJXDO1tkGwaAGEaG9c7JBIRluZi0SvEzICiD4zPy0ulB+cnbg/L6xUm5Pp6STC4LRAWygqWO5kXCoCnkS0haeOUhRYtIHtOjuBzta5dP3LFdHr99u+zf1iatiY01Sq5SU5RlQ3NGnObMzGYxzUnJ6evTcu76jAzgeWx2RpJ5cJJoiEg+IrFsBHeKNUHY2UhooXwIjYZmiDWHZUtnRA72tMnhHR2yb1urTmk5CKxHIhMQljI0WVsvNMGVBhdyeXgaMpRh+f4bl+WtixMyMpkFMgMzQzm9QoW8EF0LQFi7FGtBTkKSjYQlDMxO5DP4FpOWlha5ta9VPn93rzx8a7ccAhK3YtQMb9C5/kq1KDnHVDorQxNJuTI0LacvJ+XsUE6GZ3Iym52VSCED6OdBOEA8UAgS/CjaLAKORQphDAS4of1yYbs4MITyUbRjXDpammRHV0SO7myWg9tbZVtXi7Q3xySxjqZLAWFZKcxbRrqUnyTTOSBtSt4CQfnGs+flV/3TMpUBggJdo/geEiMqgjsRGGiJXyIsSAyxFu/kWPRRy0K/MMLE4BeV1khGQFfkqw/vlifv3ifbOpvAwUQkCkIUuLkQICxzICazmbwkZ3MyODqDthmQD6+NyzCmoqlsXLKhuEYMSRokPqvEhG2JlvI4FCUxGqb0U0B7aEthAIiizeKSC4FLQfx4OCMdibzshqzs3oPbZH9fp7S1xKU5EcZ0iYLfUipr7SkgLGuoRcgyc4WHMpTnT16X//ZcP+bp40BadPYwkI34B9QLkX1WdMWdz/TXEdCIiffCwD7nCEYJG0OgOiRUhzAt+sK9O+RLD/apwDcRM8T1Rd6Uj5zm4B/TzbykMd0hMXnj3Kic7J+RQazw2DRUG8UoOBqIbeRagUBj/DwaqETga4ESQ4NvQCilUfAGk7ByMvv7uuXuQ01yy852aQGBiUIeQ1naWpsuBYSlVjuvor8iMNBxBBzK37w6IN98ZVDevDoteQhiI4Uc5uXgSjA8GXISkUlQgHCYAilh8crK74bmSmUqauAIS8mbI2Qon8AUH8gZmZGd3U3yybt3yFcf2SlHd3UZwpaCb5onEgO6XD4v18dm5G0Q9zcvjks/pjzpHKY4mMqQfBihJ6+ozQECUHL8pu2BH5cev1obot3KnCMqZZ4IqykjElIuRDGt4nfGDcnW9ia5Y28cnEyHHMB0lrKY8Bpa9QsIS3lbrvobWeWrw1Py1y/1y/dAUC4O57AkiRESc/QC5t8qmCXKYopjoxixHldDCAumPhAqhgsxdhNkkZZorAChYVQ+decW+TKmSXft65EYlq43i+OqzshEWt67NCuvnp+U/pFxyLmSUoCQPMSebb1bCbgRCUKGXEW5awRhKaYIohIqxNFCmAtHh5SgRfLN0oS/OPCiqz0uR/Z3yfFbOmTXtrWx6hcQlmLrre4DBX/9Nybkz549Ld95a0hGUlHJZYCeWUpKMD/HlQN25jHfNtmJDlc+4sLy4gtpjFd0kpzFOTdSQsBL2YzKbdhJohAUxqWlLSePHmqRf/zoITm2p0c6mhNrel6/uLqXQnOqMzk9K/3QMzlxahTEXWQsAzkX2iJXyIJugEuBoJXEQom6khWl7R4HUkrLwswhMx734cKR66jkWty3uXdySHqRgIVSCIAWL2BliRfbDf9REH/I4GV7e1juOdgpR/b2SE8HiE+Cg8bqu4CwrDLMJ6DUdubqmPztK2flH94flHNjORmhUDYSh1g1jKlPHhfn6kA8YgSGxTxY4rzH5qLBfCVeLmHxJYXMSgjIaRcIGjoTZIXShxHxdszpv/TgXvnIrVulty2u0yR/7PX2TOW1yZm0XL4xI+/3T8jFG0kZxWpbaiYv0+iwuTAkIwprwpsXheXlBIFEvdKVE5YSRG1a40KXp+N8a90tTcjDgAvkWvmuOIHkyTV5TJT6x8HltkfT0t4Wld6uTjm6e4sc3tUp3dBnaoLsbLVkMQFhqdWaDfQnfo7OZOT9y5Py9+8NyLOnBuTC4IRMQ/chB2JCJNGpDsJxrFMuhMQFz7wUDfGBPiQs9DNHOYuF4TseG+iYC4SO+OVaUlM0JD1d7XLvLdvks3duk/v3tatMJhpmide+Yz1yTt9keEYuDk7J2euTcnUkK+NJgYDc6hABsDPouXkCltJ0dR4hqIOwWHgHE9dSvLtnplmNsLjvloK/NY2wEC8sXS0agruZWWlKhlyAH7FCSgljKILJUqwFWtdx2be9WW7Z0S77trRKN6a6FNCvpIpBQFhcO67APQNWeiKZkXPXJuVHb9+Q7755Q65NJiUJtXsiFxeIiXAczaiRSUfUIXKEcTnkIgI5QZ4hmSE8nxnLYrrQ8Gio49SIZcWyKVTRC9EmaPPG5WFMkb56/w45vrsb2qJguaFj4crR0OyXmRjBmMLS/ShWca6CoHzQPykXBmZkZDotKQjFuVjPJfo8LptykDdhu8BpGxCujrAQ7t43PLGDV3d+wuJBpaz3cwG6lE55K7oUS98dYTGhsYU2nLA29ydNnzAE/gUQQU6jqddEvxDq19aUwGDQhjZrkUMgNDu6mrDSBD55BYS+AWFx7digO9nnNAgKuZHLIzOQoVyUZ6EpOziO5Umd3qDRwa4SbbIY7dnwmPxo7oaORAzryP4ikU/x8yqVRIVha+K5P6ElPJvSHfVFqZtBpEXng7ZoS1NI7jvQK3/w0YNy995e6cS8qSkOYbCuZiwhoxWIQqLy+slheeHdURmamtXlfPJh/KPyGutCjpHkk8RbIY/VILYMCQvhTD0TLhnrC++eW5iwuJAkLh6BUS+2folwVCcszMfyYhnMOYLFMpmPhvInrd6oBT94/qydRSCuYUoF1YUuyF6OYwvB5x7aiSlT4zeqBoTF2mfZvyQoVO1OQQ/l3YtD8q2XL8rPP5iQa+MQhUJ7NgoBoITAb0NuwdGE7U705UhpowqxwJDN0NtDjmLJiPh40R/DGA9viiGY5ko4lpNYSoGy1gNvWXAvJIy8t2EvwcN7m+QrD+6RT9y1F1qicWyCRPibTGDIcLx7dkS+8+I1GZgCMVeAgViAU2GnI6G2kb8EOQ0DwsIpkXIs/KRhSYRIjPDuudqExYXgnRF8kfQTE3dEwn1jRs6PgbQAuJfKVv7dUMH/lbHoiCIkLDoUEQhwRpwMh4hv4VxMWtF+9x5IyFc+tV85Tg3YoJ+AsDQIkLOZrLz4waD8xfMX5MXTozKcwuIghIAcCUU5ELK/bG3e3bOHVN7cWYuiGECkImFxSKdf8OMRF8V0v7DVvldDMhezUXdDVhJEpIjysXOyO0RQrwiUtW7ZuwV6MPvlGWwZ2IIp02oJC6vVbwrT0K//9IJ8cG0KOkEk5uxxKLPKTtg2fGc1PO1lrxMWSFiYYFHG4nVzhF08YalWMvo5IoJE1bH1nB895hIWDkKLcw4jLA9HCI3IQHcJWWxtC8mXH98rdx7curikFwgdEJYFADTfZ+qgjGOu/sKHQ/JnL/TLiYuzMgOCQiFhHntzoPxAvMXAR4LCRuZlRMOfrkMt83NheIejwFAJjx+pGKM8FoN6Mfi4go4C5Ll5M8MC5+pRbLYDm70T8/ffeWSvfB76MLtgFoA7dlfb/eKdQfnbN0ZlaiaJlTa0h8IsjCVkK0mxGh4xR2fQD9oBfUTFlZvhV4awVINNIwiLK7ndywmLQSMaKWBDapP88VO3Y6tA4+RkAWEph31db1yqvD6VlOfOXpO/ePGK9F+YkaEU5CqkARgRudLDZmNDRhA2jBHQliqZPBGGV8mVoxWRm9897C8GW9uEhex1DoTF9r1AYxh7WVogLOzriMpv3L1NPn/fbtnT2wo1dAhnVtiRPgxgqef//v4ZuTaaIa1Di2AKijYJQaAZEBZfAwD5mpqi8gVs53j82PaGqREEhMUH44UeucpzdSQlz71/Q/7m1DV57cqIpCawcxg7WrPoVFlQf45oKo3HNIgDIYkLdVJs0kBi4b8sx3LCQj8/YWF4hnAXv8+NQV+GXB1Xnj85GBV8wptCUa4i0bHWIczjW7Gj+mBvTD5xS7t8/t6dUEHvlPaWxgsMXd3ZTt/+1RV54f0JSSZnIawEScGlfywr4QdglbgPvLCxlGPRr8qVKSPjEsWdHIsfxuVQ8AWs69Ef2z27OxNwg08pRytZXYlXDeRPnQG0ymwjUN7ujpj8L5+9BSt8iYYQl4CwVG2CkienO9zRemFoSl49e0X+/sSQvHM5JUPQS4HtHiUacQyBtGLAGQuRlV0rRPkKvysaG3LY8jLT5rv58a2ywcu/M5wL4edaGLPclVIs91/pNy6DklPhnyupy5MrLhTwIoR0xzNyqCciHz3aJ5+86wCUt9ph6CjaEER2+ZGbvAQdof/8k0swuATuMQtVfArMqfDGtiH3yNLgxXVd7WHF9jBf6oxUIywun5W5+9u3WLqVycqlCqTJAlGzqO+nYWnwGawStWCX+3JdQFhqQJAIOoOlyutjSXkRMpRvvXYZQsAPJTsNCp9pBQVJoMNADAuENfLBhIisQEj+EYvVi93ddfnKOwPM7Yxzw7vu6u6MN9e51Od+WVkf41hq5241xHddDYPhhjAUtnp75HP3dstn794le3ubsV0gquY0l1vSSQhs//KXp+XND2cx5YHejf55K3EkfmhXbS/cXImtqYpvWgTVcnVeXqFcky63jLXj+9u3IvPakZb3BdlkAZNYJCHdTc3yL57aK7u3JJYtEwsIS0Wz0OZGChzK8GRKfvz2NfnWq9flJGxupKDNGA4PS3MaS6npHiBos8zCpkkWl0nziQgcl4kcJC109FsYQXxjp8Yq/yHh8o9k5V/9bwvn5A99c56p+Mfa5LDCkY1EZWdvp3zmji75rQd3yYGtrWrVLoal6qU46g+9f2VU/uPPTks43QT5Fld+0ALkVihjQbIUpFOdSAXqXibqX5Ehp7Ab3xmuks1OgMMO43770R3yWx/tkU5o5y6tFQxqAWHxsIdTHuqhXB+Zlu+9eln+7vVrcvIqjB8D4BRK5rHzNyKzZv4xlwBiYtMgEFZNCxaboJIAKFpXwU+vQYtfqrO98zWsw3t3Z1LzhS9mdVMfjJPjtCkXzsosCEg6jKkQEHp/a6t85shO+Z3HdsqR3bBgTzMAqFC9y9WEwwBMdX79uYswDzkrCcxNo5j2hJCXKsKRxJBjqUZYELeSG9kchIXIgGVn2EuO0MgUVQaaI/IHn9wtx/Z1LsvoV0BYAFpulb8wMCF//cJV+TaIypUJcCJAdlWkwvcs5ATUPyE/osMd3smZlCMjiYqfQBgiw7PcaSQX35ECfzw2tfYBjedClCeCYsADRdQyoL+UOX/8sg83/aVEWPI0yUgCo2rnlMGEMWqGpTOel0dvjcvvP35Y7r9lB/a61GfzlQayfvnBDfnvL12XPOaonATptgg0i61UgagQMGhrcix+HRX6E4T+9txMhCUMO7xYdwDd5dpeHrKvuDzzBAS5PZjyL9FtasJCA8jnsBntWy+el5++dUHGsbsViwggKlgSBcKzh3NlQ/eRgJUmOeDoZ47YSEwlgSGmeoRFvyualsLpE8NYeMbjhMD2/zCZCsLCRmZo7+4lVLwxdUdU+MywdK5oLq75rtFf1Nk0em366GRS3LcSwfb/Zm4X2NMm/+Lxg3LPfmwXaE3U1OQlF3IWA8M3nj2L5WUsdedApshlKgABDQcggiIgLFURgqAiMSWBaY3G5HMP98kjx7cu2RbPyisVVK3GzfWcxNb49y6NyP94+Zy8dG4a6t7jMIB8A7ITmGTM9IJqt0gGUM5FqCFrjh3YRjSHpdp94cu7bwrEQC6IjoOOaHjhPWJkqdqvIwh+v8pn5u+c/1lT9Xu4QGv9Du6Ef+YUuoAWiAHAlYFdminsfnj2w0kcb/KWHOtrky8/sFcePWLnI9EUo9/NwAbtiQ9HZBj7sTit4vSHZh/UIailTm7JxTLupfTu/DfvnWhJTOVgN56Nyi9PT8nenW1yAMa8l+I2DWGhDGVkclbevTQuPzsxIi/CoM+FiXEgMI5nCCdxmBfV1ClP8RBRkRfQJg4DA4GWBl/vRmx1glqLUQ38LjC/+Z+rhQ38yMcRvaMwrkS7NPlZyLzSBWwezMh7OPTrnrf65cnbtsnjR3fKThyTYQQmJKevTMg7FyZhKItEhXAEZ4n2Vofewk7DN21FPAQtYaCp/CVRIYyy0PW/iMWL588M44SAxJKOidnwUyEenzEKtfu3+8dgumBQnsNO1yHsOk5jysMjXvIwioP1Y4ydhoGhPC2t01q6TYUUPUlYFFE9rDRPCALZNJwK6QOeefeuIva6b56Hciwunvlh/KRHmWOSxSTwpSwMPmguuFeG00Qq4pYlvKZe/DV0BePk06adro45IDwF6LSQ2dsUlodgC+ZpLFPfA8v1rc0tMOt5Vd6BTdo8VvQwkVWgsIMYqEtTToUoGk2by90RQwmPB1NXis0jY3E15t1IewawTgP9+2AO4/cf2Q3buh3+QHU9b0jCwjn3LJYeSVA+xEmB3/5Vv/z0/SEZnEb3zCrKecAh6gIZIZjVrutRbMNIsi64AGynSaoISXmIYmy1TsHg2h3wYK4oP9G0nC/jluJTXuJ3+pXJwJW+sdOUHIugWcFro3UC1l9bRgHh7QTHM1uOXgkcAtYdTcnde5rl0TuOy5lBwX4gGrlGO4ZgtQmOq0kKO20ra0f9gB/ihx9mSljcR+/u/17xaUO/cgCjBjmJSwJWDe/c2iZ/+Kl9IOAQfC3CbaipEBGGugxUbHvtHDYGvnRJXv5wWCZgh4NISYsiRpP57Hf2bmE8usHP9AaGs0uXEK0yLgPO48oIyjzh/J88ouL3qnx2RGWRpalMZk2+V6u+wb80KExCHnYCJiXHcgOyvXsbdldTCExuhbIUdA+9WD0HoWqprsnq3/RCcTUtBiG3QGv5+mBSPrgwJvfctkWJdb2F2xCEhUhEONB0wT+8d12++eJlCPMGZTo1i6VissKsJjViSY8dovHuIRs7v3IiHNlKqGjfSwhpXIKLr0Hn/ugI6QvDdNVZ2nMj+IlWta+1/Ryxc7mVSlo7znr94upIpKdN4ASMFe3u2wdzmV1YAQKnkiPXSVhzwZSQMGhwtcn4HJcCuUDqHy0d7usVhvWUmwMWN86yx/A42PRMRJ57bUgOQ6+Fh6XV69Y9YVGhLDiSn8OW7J8/d1ZOXZmR6UwEtlCgxAaCYod7AeGKHd51vxLyVQdW5fdKwgAi5dgGLwFnOrCUnsuLPo7AEMFLSF5JvCxuZRjz3ey/HBg4LYVqIsxjNsPyGVbwsIu6oFMgwBft4ZatHWEph7VB0BHkzQ7PyvoTnQkb3hVDcceCm1yfCMlLECU8jjOn6j0KZt0SFqreXx+flp++e1m+9st+uTIuMg27BRHuiQei5UFUuORIAJFJVmjxjtHOnL9zm48iHKHKIA6y+okvRhiUPllw/c3rXiEmb2HmpopgRa4Fzzo1cmXwJTQnDL+Z6QVfqDmPVfObE2p9emh7AF4lOROUFLFa1AQZwLauDrU6r23rqkfYavtShuIGAkKI0yO2ET5XAIzv9Ker/Ga+K/3LzCsKtdJZ1kif9afo3IkMVGwAlYuR2Vn58VtJOX6oC0fxNquOUI0kit7rjrBQhtKPVZ3vnrgkPz95AYK7URmZoo0NnJ8CyGCKjXYi88sGcztUiWQe9sy5e7BQRERkbWf+uMtDSF/jk1Nx3ErxjvARqP+XnBef5Snm6Z7V04IqQeE7w3uuWg9w3zbh3aYyJBZcqytIR2sztvljuZkyFbSL++413hwIUeZCCOuFZwfppRES5AbiBtEw0gGWYaq9VEf7weTAzESpH3eWmuLy4xlMrPcYPNM4vggGzWYK8uMTV+TLj+6XVh5gtIBbF4SF0x0aRT4DXYbn3xuRH5y6Lu8OjMhkchIkFs2CuWAY9mSNxWVDk1Mx2mvoRCj4OjNRq9iXHcq5MPjmfaaPc8Xgnkfx3WGp51/2ikD6zsCec6Oje7e7h+wuXJX8Gc59Lo+7Cd4UHhAooqqt8Zhs6+6SZp6Ro0SC3RuQIbEnKPSHD4SWe3F3+vvgCG9HXBS25cEssP5yisWwDGVkjEQNloyLOfgC1/eIskeor6PpQC6kBEpLUSM+Czff9xrRluyNvBRZkS/ulGu9e25cHjyclEN9kQV3oq9pwqKHSmEb/MUbU/KrM0PyHZxr/MHljIzlU5KJzIIxwR4H8Mna3ORWtJnrAL4GIcAAdYdZvkazFGu3iEYrtnMpv6KXL6obAYpeCK7tVfSwB6fez7dSiqVA1fxKXzf+k65UwLxlb0eHdLd3KufC5rZpEiHPC46A0kd7IPEx5+78XB2a1X296LgZcWEW4J5wrrZZ97dYLnXFHcr2lJuiLydrxtXoIXT6Rh4FhBL6UzSZGYK9mpzEMRSibIwCAubwweGK4yHwdXUdqqf0FIWbhrrGz94YlK2dCbQDTsWcpyRrkrDwMO4pnCA1iN2q3wf79ZevXJUrAylsLsvAVAG5EVBMbjMD1O3oS9aeteSPr7qutYsAcB7uzuCAWNkUhvF934txF34gEXGIwNBLS8Xlw9i+ujjvTXS32pPzRIsDsE049rUbp/vFYuBd1IatkQiFM378sC8HE7kZ/BXBWXwoD1bjzdJlfJSEgxkuck8hlgEfWQo9eQFTpAJNNUDJMgTZBIlBwZtiK3nB1Kc5HoJsCLo42Nkdwx+3NWSAzdPYn8Zjd5PgzMlx05y3EhoUVYkK61ejfKvhncMqHIne2avj0HTulPuae3QHeq281wxh4ZIxORQqtl2D6YJv/fKM/BCHfH04lIV1qyjUvNF8qByBq3NrNKKBmqMBLsUubUq0NUPRg2E8xwamIpxiiQbGB9dUfHfP7l6M6B6KIexwMQtnq07FIK4YuPM7Lk26VA6+KgHiV7zYRjzGL4XhGx2nc5vZUVBL1X4qvsVjUelsb5OW5uYyuBCGJDyOxPBdR30PcEUFRfeOO6fMjsi4u6KFD9j+d4cRiIZ8QOCamuSuQ7slDtMPlLQo1wTcymJ7yPBoUq5eC8s0UI2kJQycjoN7acERKTtxSNih/dtka1cz5BQwVQDiQmJF0jk1m5cbQzNyrv+6nL88ADWJBFY2o4gJkgRCxloyf5vu+wq6Co9UNuQgnkV9J1DZ505ehTGoJtmztR2lqu7WDGHhYs5pHHn5NdjT+N4bV2ViOgXKT1CSP8FdaQdQiF6sjtYIP8AMhxyeZ/WaarNo5BrfA++1BgHrStCpwD6u5jgsnLV3YKQnt4L9GIoAdbanoxIeroAUeFModtj5sUYD+MKQgMWglfrJB3CGdQtsybgAxC8QQGyxkZ/gHKMXziRlEmu1rYU0NlF2ywO375B9+1tAHMmnYGjEVhPdKEkuCFGRpIR2t8nsPdvk3OUxeeHEWfkQ9wmcDJeCxT0uslMTi6TtZrgI6hYtTCH7qFy4kZHXz9+QHd0tkLWUIOAv100nLNOptLx/aQz7PWBc6Z0xGcGms3SGjURVegdEG498FAR1IJB5gYtxwUh9ajlV23cfGa/SkTuojO/yKIV1WekXvoATsnl+aTRxYYqxlB22Ny1rRfYchUqcSzHWpn5QokIuFRwLj2/dgnOjedIi1v88uBCI/vaqhLo2ThGG+ubB3bVX8aPvoYRLPk886ooj7uSAyGPQ3ovZfGF5eBF/8tLZFJf7b+uWUxcGIIeIyPGDmDbA7MOuLZ0ChttKzHrRTjLSCIGiqByInBnKR3Ozh7e1yZZHj8or7/XLy6evy3VsV8jAIBZ7AXdu+2uNTFfc6cBNoNGcCNQrcjCi9ebZCTm+a0puwYHz1dxNIyzj0xk5cW5EvvX8OXnjAtTuoeE3ge3yWYIPRIAApLMbGVC+lKYGNprRs7qz2L5vHlL5fOp+dGnxXuKO5onOgPPl5xJcIJg/B1+Uovd8WRQDrdMHti87MI/t4EbDHp4PzY6JlRSbIrL21aDiKsxv3nfelgEsDxUtYRIWeFiSSFSnKaUhEF1f+rZE5JbehBy7a58c6GuWFlrDg+CZ0hTGVP0q+MFXi6hTdw4+SJR5RYH/vS0R+fi9B6SpvUd+AtUK7nMjEbKKMPfVdVnKWEIdqHtKiezoMM7TOjEgu3CkSzMMole6uT6VIRr4TnCMY4rz4ntD0EO5Ia9fnpCBiSR2GlPxiXNVgpqhSMsBSJ0ssyEMKwycHoagh3tPNUvI8CVCYKH9ccoQZoHUmI4/PX9c/zMLwxFFi847PXzO5e/uLoA/DX7jVRlX372IDM/3Yjq+PDbGoxGWFiDtdoz2LQlCFVMgr95ad+3UfHLOQcT5uXdyBbUh5b7428ClyLthGtNylw1wynFoC7gULEQsFpJf+/gRaYXd2CiWxRUfENfWggy3TdDjcV/Eb5SPM38+Mr8ItnK3Qav4+MEeuT4akldOXsEh9sbV+Mu2Ws+qrwXip9rsQO4MzFmeH8AmX8w27rilF+UuwYBlWjXCQnuyV4eT8rWfnoIW34Dg1EuZgR9ZS1r7KqiQDiVSrgQAxHvJGYIUcUNfrTGMcymvVDGeBdFXh1iMSjcXiWqkgbCMo5cvCMvi0vB5F9GMfi4vPJa5yvAM5/crC4wXcqFKSHyBmP/NEORVlm1F3r36ol/Jlm5MgdpwBhHkKlxhoSDTYEGJAwHioOegzbuHOxqQJWTXNgkF32q3jH2t+qsNjnR1Su1wk0SCaVtJGI9v/Ont9PbVuGJpx7NhMw/cVqEy64kUGJt/VkKv8kwGXE4nOJdjBzqkH0bCL42O22FrCOJqzexWwxHSNGdR0HkknlC20VRG/uGN67J3B9qovfycqFUhLBy9J6CP8v/+uF/+/OUbWPlBAQFoD8wAEqg5eglPDDQ2l3dzrl3cm76XYO+FcrfyWP64jigZMXDhXLyF7y6+P6Timj+Tso94WXw2mkK1aMzLXwarhz/DjfPMPsgD5VuwrLwVspU45vU6gECAaM5ByA98+vFyRIUhnZ91fvrQlXRbSjCdH54uHabNy+Xr8LREtJSwMBM44r1dGOFx8sMslpOnUilJ5nCIGjgSrnC1QCZDOzOc5cQRnmVT7gAdl3oyPLBgV28Eltxa5MbYkMxgAkVi5nBh/nJbORrx6/JxJJSGt7GQJZdHCvIOFOceuXOb1sHltSqEJYN9PW/3j8r/ePUC2Dk2JhsKzrvZi0IVH6uIMdlAXhzd6KdcDcMjAQdhJuKeHRSYhca1u+Xjb3rzqed3bjpzY7nqIMti3Zzf3NAln3rCaJKacCnexn3CVABz+q3gVjqwtBsLwRgXOxw6FLWwqUtizgGEd/fMb3h2r+VI5sUr3XyoUvKc88QW8lqJuIdIzqdW2zF7mP6BXkpektDJOg15Yv/VQZwCMYqlZCyfJ6DsByt4D9x5RLb2tkkzqYvnSFgywG2tMTJoxzRw/46EvH12VlI4IcLIK4dlZIDvjht38VfrTihww+/P3hyWo4c6pbs1rgMC818VwjKRTMvfvnkJhqqpdg/FH8Cw2O4eFGo1ULFBq0KLqfhTYiq1U6qaxAKe/tQXCBp8bhAECPMYVPd7u7txcBZb1Ca8JC5uxGRWnFL4XWNbfuGU/djGZ5aGF0lEFj9TEJqcujwuL752Va7hdMY8NGzzIRyrAUKRHZ+UC1fH5PL1k/LRh47IPdjgp6gLqlHA8jqJBvkhHpxGZbr9WIou5McgNujEAkezDbQA1MrVGZWYz3Faippm0QaDKRzqd2ZEfu34diw/W4lWh7CkcvLelTTEJ9RXJMiQucd1sBg6aqCgNg3itiy/c6BDNQDI8m9IzX3WKERJXuaYLr9r+p4fla4WcqUUvHRwo58/nWppaJhqH7z4NT4t6O1kKdWWSSvLumBi6yRAPIGlZWpZo71YRyMpHJHQoCAwqn7mDGZrnYBXytUQIdi1/e1sKWgw/JTjjPMtv8/f1h6hA8b6CZ0/hSTUJp57Y0Refue6jMFmbyjcDqLCZS0sUICDL4RaJBSLw5B7Xt48NYj9N+3S1kYqirAoP/80dVYXCBDFqQVd2Fk8NYm8MTgrPNCHqKzJGq+2I05y2sbd/Vw4HxiFZry2i5WELbDibhwmIq8OQ+EN7B25FXNs7IUcQeZdilCVICxHGCVWSrAWSjf4vtYhQPu1BWpNwnHFwbqPwwcrvVmJ8wiKInU9OGVxG/FbrUtz2CSvkZpJyQcfXpKxGWjn4vhSJSrETSjM5fMQRKNnsi+kUW5Ojy4NYEOtDnrYsQ0/dlyTppAIQQMZkuztfbCUF8YeHezkZ79Y3dpWQoykjeXEhfL1QFnQD48V51iyQJCBsZRMw0K+0QYAHgUxEuEfVfwFL0cg+2IUiQCv12kqiwg/X7r15tug7KoWpd4yVI28TjwJPxKMLKwBcouHDizgZss5kGqVqcSZ4ghWLfAS/ZAmy6Lc9dwkmKNXYtAIPEEWRAzngMoVFasDQ9AXF4qsO/ehbjE8MiX5/e2q26KElNXR1KyP0I/6PCFwNNxHRPJlHD7D3RznihhB2XZ0NmGaVirHihOWaQDt7YujktGVIFBp8JiGAgAwYc+ywI/gdu5mCaNc/sH9JkMAhIX4ksXphtyxx05l4+PNLJdiKgpg2LtQSVDksoHUuBFHUIxYuDRQXaMhTJsbYotztVKvsFwNDjSxwCUOhLy5Tgk+pnYo3DYSFlbacytOWMaxzPwmzkBOY7jNw2YKHQmHFgE/CjpHWIoA9QiOV0gvFN5KgLZPriLuXowQPKxrCGB8hw3b1Gxacm1YjmXzljW9v739z6x0WcDGQKGYpMexoFPXcq40jMLVHdVXUW6FHAt8OR3SMnqJaueEF/VztJ4kLF4QxOcLe0spXRAVj9BaL/HSQcjVdjS7xfWfpmiTbGmHZbnVJCwDEyk5NQT7KWgLNyczgBiofLREQUjgOCCWAwoAVEDTl43DUGzo6qEZKnDrFQIkLJBTQO8jiykFu3F59/G3uf+Z9S0P2TAIEM8U15hfZZ7Vc+HZ1BRu2pSlgqAUcZm186fp0i7Vg2SFobhCRGiQWzFSw7ClcNVLsVK+RjRJTNohaO+AlrGPrqzscjPnypdHkjI8kcb2d24iNwAS0E5JSdeClAIDAJVwckRDo1U0DAPrd4LcOYYJ3HqGAJuaiMDVDipSpkFYosAPRQF8WbgbOXxYCVxwpbBSalGr/aCQLKdxFqwNy+KVRzmWikjEY4frVSvoiQ+wLGhPVkfSpiJ9qkhypV+tuDjoL5aX7VDg88tXmPeKToWoGHfu2rSkcNh6M7RqM1xu8wS3bBqFIX4IJj7rO+7GiegDfjxfsozaKF6jas0WaGCXRHBfVxDQVkV7zyRT0FbNYJMbmh7EhfK5Eo5wBHdEZDWqV8TYIkraQwUO+gtYrViVZUZ4S4G/uBi/ahogKUqAWGfqt2BILsatltFK+5kAOYKD43ZubdUi+yGxoi0ziWXmC5encNA6LG7hUOQwbDnQnsPcYzIccFcaGEH66wYCkAgmYR1+Ng05ixbaj7Y3oxaux7M3V+35cwpF7oIh5yu5rQDV1w2NpJTSY7p1FmVO2ZbnwZytdtFQXLa3d88hhivKsYyBsFwfngFBASMYhvUKKAcpMJRHwRNfCHr+67OrLtfu3bPvTmpfxkqy2XgFbiNBgIqAijNo25ynIGfKgeioFHJ6Tc6Dx9zI7epvwlL31sC7sgfIWDP34xyeK16ZK72oOkadFP7pyrn6lpeJqiu2rE5BKCrOf6K5CixcJ+AKEAIiOSUuuPOLg0N5iqvxxtpheor+mMAspLcNLKXWzZV3hadCl4cn5crUtKQh1qdZSdI4N1vWjVYKAxaGBQ1cAIESBDiwsGOmczRabVMgw51SmLlPK4RHZSjqk5fMLUBVHyMA85UNGTAPXvM4/YxkmN4CQedJpTGf2JcprY1jsyT3CBkhLKVNArgijoLbDwYmZAS6CHmcS5JTCuyYw8osUUhgkgJsPvgzGjFO2ZmbDdrKOgTvjYKA6zjkVmYzONemBk4YBvCjuxpVgkal4+GoUhY+V7tcXp78yIvifP13+4S6anr+L6v/rIJpaAO3N4ekrcqB8Ss2FaJR7JPXkzKVATgICGIH7vZnIC6BY+GxyB+29Bw8bUQIsAORVNDaSRKERTcbEoUqOp31L4ZcTcdCVBSkRvY2jFYvn474Gg9psV/Ukaxy+Zj+GQmqnm6NojTYm7IjTM9g73ZHT0KiNJxT4eb6VARY6uv4DAS3MF+XzhJiWF5W2QhlJ7zgg4ug8V9LzSuItzEhQDOlJCwZqPc7Z8TEva3S3d+H66EAXrE0GgusdmRMQc6U5kwDnX0Aaxrg5q0/aDT2C69vlGrnSAn7DtLTPmR9qRRm9Z9imAbtwopQ5TSIJVkxjmVwPC1DE9xQZUc4GJBtLZ9CNzqdHdmjvgc/AQQIAe2L7GwgLJwKZbAyFKb9BKwUsdP590ytGqHR3o7Mi9OZetvKCIGG1k5AIkJDTXhBmiqxYV1xeZ+rJqycPuKAJCEaIcPQ9mtlqhpthTzJr+SgcRuSLTi4rJpbMcJy7mpKxmF+kgwtGSc2CU+pNem+FaWEQPbuRxjzCX43NwRCUJCjnAWTInRCiOq0O908mBCLl+GU0yBxJGEw4kIJgSMq8xEWy9UjLIQCB+eFIyyjsAtFLegxt70wcl7NrRhheePssCRh4Entn6h8ZW72SmRuKnDmlinwufkQ0IEIOBOCVTUOSSlo4OZJWPBsG1RvBptLokJkJWvhCIz3Xi/InHIcORYvjk1t+FKSutRMjtmSoJAwuQRqBl75D83xCIycc5l8rlsRGcvMbEbevzqM84FSuu6u7EpF3uRWyKG4Jqr4HLxuUggYPlivIXKyA6WxEEC+9+ZiC8vkXUTeBR2IIIqsu3xIUBxRqYjHWnG/Dbe2zOc0ZwJDKQqIkFeE+WPNl+LyvrFt2rEa1JSozptU911enjjSY1auQDkO8nyPslr1CQsHEGbhwabMb5lZB9HXIQTIofid2TeGH/5z6EipTMazTg880o5FfCqP44+/Is9EXEVe5uvyXqhbV373v/MZF5NSuW5pZVSzqqiEZg0tO+6xc9/VryLcSr9iT6UyBM2Qr+xob5GYz1avP+8V4VjOwVrcGOwfU5ZPppWXNoVrk4q7B2J/uYLnTQcBP1JY5elDQ0gzs7Bsr8vODij+Dur8VvDuz45TEcXoefIrhmcN6ByGu7vz4xeb3hXliy6Kxqv4wTcSFuX0XTh3rwi6Iq/MHwlHUIZmHHq/rcO4rWp5rQhheefSOKx384gPcCw+WPph4Lx5D1wAgUoIEC+sA+H8QBydkcRRvJSzGGpXhl7Zdz/e2rPzqbyXykExK/qfj2N3ZTdC4uc63JciI6TJuLQtTYUHHp0tI2cdoJTjaj4VJBHPSncnS1XdNXwqxBHm7bNDKsmnJQoq8jtHvHAAdX7BPYBALQjozjLsRaEWdyqdw3QIsgjuFYLBsNWcBhCDibvUHocRByCx61AeL67v8CuhOoggXmmzl0FccHInTAveGkXDU2jLB3ri5jkT71r6DMFP1BchJxDRjUcIr/F9kVzklb4j3wTM7na1VV8RYvYNJSwE2DQsxvVfHoNZQdtWLTiv1g9wZqrwwF2BTI/AbWoIsNP6ccK9kHhEIPQM4yGLQGnuztN/25Snnc1FXCEIardHh+adauy0Nxv2NtMyS5RMf617syLsUhEtL4zgKUkoyZBIKOAQzO3w16kNvaCjQ1ELktZNiEaRvPCI4GAUwZlEPOGczvLUx1X5IXkLq7IfjDu1tOCwteo6LCxMQwkLuZXLOEZ1eAxToGxCEYJAcIAla1upx8JCrDaAmGfgbi4EHB6QLujorcUBprAH4V+tpeEjOzQFuBkoWtIKIY/jjSIMV1HYKTX4ihIXw15yKzkQNlpvi8aasAQOsw4oELkI6qQQhyOoFKcqehJFKAquBTwXP/BYVi0jX1g3mhABiWL4fA4nIYIjw+lmONlDcNQzDmiDqV90TdRUo5HgQHwtoTg6MriVSAGGxpE+d3qvnmPdsJsZm0LT4bh048ynZrItNVxDCQu3f79zCVbEMzCsyzUhnpGCxufIQwRwziGD83N4QcITuLUEASKuGzVXqFzAi7Jmx7viC7oViQpfOKXmNCgPxFYZAzqWqorh80rjDHkUloGQyIETwWFAMjGTwUHtNGDGkiMEqAdLSwU+hiuEo3J2IgRiiM4PAmK6Jygsa+puqItzrNtEsiCnr08jk7QkEK4ZcUHCNG0StRSmVddwOHxOj/6g7oiXENPUZ5faSt1JxEHgWWysCHW0xbAiVF2HhSVoKGHhwe8nzk3DXimmPzEAieQaAHQExFWZiBO4tQ6BEuKvZEkVF4gmXiaGG5a3aqfCnxrbPPc4DWtyrbTaj9C8VqdDkXiRTzHViTTYkUmcPPH9X5yWaJ5HcaDzk+BoaUgCKYuJSAqnFU5B4EyZkHE0KK8SRg2qP+TaaE4kg8H3vQ+vyul+TnEmlUBF8pBfFHDioeNaEH0ahq/SOPRPc1FWqJTWajzRGH4aFKOpBYentceUe6yVb0MJCzmWDy5elZkw1ppRfZ7mFrgSBCoJbOnLwk8rRow1YevW9suu4TkWWNlt++K8S2Sg5FPrabnlNhISkhkcpj4xMS1dsU6zr+orZq28G+VProWELAowkGPghv3BqSwIABX3oBWMTm7lNJtDfFfZIn21nPwph6HDBcZjT8kkkQ4IlrJgAFqBXFkep4cyb41KHo3p3bw+xTJDdCodzWHpaDGjbbVg3DDCQvnK+OSMXB28Lim1rAu2tQoX7UCs8K5Vqg3rX45ci6vmSkGMZXLlcnngrl6+Oz2KRMiFr6cGLs3ysM5XU2LS7IHFZPmAd8+LUwUa1k4mk1hp6dCR0lDLC1eedMPf2PlZOE7rIxi1KQei/WbdBYdysywsCcMV5R4IW1LcZ5GYhnPGb/HNERh+N86nSadPerQGaQiN0BsoNA9HqB1P51Jc+TvLT8KZlbZIVrpaastXWJaGERaeeHhpcFLGZ5IQXmErNQpRAl+p2gQMgekAVPqykZ6IZg6V7FnfgWxEv/odG5MXnY5XuLt39Vz+j8712SVMfqHpO2zXrPjjyl3qQvPXg3FcOVnuuaOsa3/LCmHLwMLyWL4EmeYKbjiPqbZL2fsKPOJT450/WS2NwolQonzHSqHHpiJre2MFMJXReiif4SuU1xOKRXUPrtJ2DwEooTynVf5u6cIADpaRpVvy9uWzco8k/OzTUXBSu9oT0o4p6XzOX4P5wi34LQ0lprc+HARoKSEnrV7lmi9YwtUJQBSiwI534oH+csihA0gInXqcjsgIytDkBi1afXHrSd/CWGny6LQ6/0cm5sN86IfbnCzpSTfng/q6cltk/CJ4BGrfOexS1vQ0VP0/7ODMkRDlGUNYRJEwhIfMp3oJ6k+7/pBoTa8NrV0dDGqlYNyKYUCtMM6/lJYR27lE2IVcaUG1y6fWXfOHUHlHd4vEuXw1j2sgYcnJuxdGdb5pqKBdrGrWNxtAVQvVAE8iuhESjDqQ7odxAHghEocf5fxwXiepJyumFcHSKo1zpSC0pDFy60rIAb2V0F2OYwroqqAnHAKysHmSkngcbDgVKfSYT46cyFyHbty1FxOZ2KVr5W3lKo7XSCuNYTYWjUsO+30cwfWXuzYuQFjqAnpyhQyoShYEikVabdLiirKYe6mNCDwF4GKir7GwbFtIg2CVv6cDhGWeFSEWvGGEJQUV/g8wFVJ1IRWuEAk3m8O4ik4QjUbllj0d8sit7dIeggDOcSwAh47oC4DFoWAenSgP/YbXTt+QtwbTkswvt7lARDAsciUjhJGnKZ8E6z0rPfGCPHbfQdneEYUMwXVnVwp/YfnNXX5/+iI8/sMgempRHp+ngIQ3Ci3y3JsDMjSOvIkSoArUpF2Msxwh1wDwaK5S81pMAkHYhkCAhCURiUpXa5MOevMlulxM1bS5GnRjMinnp6G4g1HWkG91mdX5Krka32wERc3RCzi1OH7LdvmDp26VHs6bvQK4Lum6lbv7y8ewRZKMAGmYoBgff0nevzGKJczldSpoQSB1jvhRPEH4iIzackl55rEH5CuPH8GmMiwh+guziGdXN4r3OBHmvp5pENS/PTkmz4OwFDgVIoHlv4/QMosCp2LzOMKEUxFyLJOpJFYkeAA50kE0fgvcakGgoPZXWmEqobINK0vQEMJCC1+nB6ZkNIuDydDaNiApOpRaXlnqyuw32rt1EI7ICdgD7YnHpItgcNiPO8HguBbXndyd0GDHtrks33D8BfkLTCW0U9JrGc7O4AHHEMbRpdGMTEur3NkTki9/7LAc2IIt8CizK+pis2EdeJH9D2ElIwv25PyNrHz3R2/JyOgEis86WKpzOBb6+4Fgweb8cho0Nj0tW7oSkoDchrCqI9qcdAKPpUOgrTkiTfGFh5+FQ9RRhiQ2iL14ZhjTIDLBmJsTURxL7TCujnTWexB/p4yCuGCGAcz3yIjvo3tUMFVU2vnp3YMdbaT6+JiKGIt5hWgW8hPqX8RkFvoIUfndz35E9nY1SxwcgTZZWU91jVfmWTNDlpn82SyIyhXYzfj6d1+V05dHYKiJnBYHHLtqJrDAByrKzdAGLopDPDPeiLkGbrUg0AuutrmGcSd/GRrCsYzBIv+pazBwq0tlDhmZzeZsdI77FLBSoarM+cBhnbDsa82XymRqBlzgg1mDZ9cvSC9o1efv2y2feXCPxKF3hOKWtxYKWBKfcrXI5xCWZVImFA/ksLhUSpcFgRqFotcPfnVB/v71MzKVbwOHRNV25otEfTDQCIv44YyJh8QrYQGxZT1YEhMAW/7LSH4RJdkMQQlJ5T8BYbYbsSEvu3ubILgtw4aqwFg2YSHCjE3PYh9DCtmjAJtiylMVlmWeRQRXYUDZp+KLC8M7u4V7LwZo4APTz7MH4qKW0W0dcfmTT9wqrVg21OmZfbIZV5WCVJaPOhWU2BDFSFMov6FgeCYdkjPXJ+WbP3tPJgtx3ZEcoUylMoFF1s2KhFwwHUpBvb85kTB4eWU1ImNlWWTSQfAyCBCgbC+PqICAU9hfwCJEU1NIDuxoxpS5LELVl2UTFgoqr48lZWxqFgI17mNwI4lDuKr5+jyJcbzWtyNVZxM4xxpxlyuZOK+p9JN79tfa7+fiN/yOTLJY/o1Aa3L/lmb555+7R/ZtSYDDIGcCAsFCwPnLZWTD/Iu/CKCECB5cASRh0bjYwTsLOwFnLiXl33/jNTk/FpV0DFDBtEiZGRIXL49iWnU+kPtzLo0zhq4NDGLU3CZtTXGubxl8bckJ6g4W1rgYFyu41wcBjxPxYKnNhWkztY2jkYR85JY22QtZXLUDyirT91Kq9K7/ncvMZ6+NYQs59zQQkVAcFkwLt0RMqj/7NRuSNedV3lGtuK6bOOA7KLm79ZTyqrk45b71v3EzXAyrKp1AkkeO9skjx3cod8I8OQDxXsx/gWTZd1l2xjOiAu4FwtkLwxn5bz84IacvTUs20iK5CGyXINHFpL1A1nqA+vjkNGz+XJMJnAuewcBGwqhoR+IVuGVAgMfz8OL+J2JcDrK4lHTHxuULd2+Vrz60W1prWOWvzHTZHMsEjvh4F4adiD3+kaUyo836XuLfjDOo1snYSR2vU9Y1vMDsNMtx7G9UtotD8Pnk8f3y1Y8flQ5wEyR73JxfdAjnZalerkzF776HCD6SaOhWetyHU1n5zivn5fnTYzIb4WQLanfgYCNAVJU9++Iu9ZElJkdcALqPTyUld3VQ+np7sNO2VZpi0MHRhE2+xbKTg2T/WC78llre9RiPjAHhW8BmSwr5+9oS8vmH++TYrb3gVIw7rKdeyyYsg+OzWFbkLkwiJWfd1ryWuaHC3IL4kHnuxw3ho/BQFp5P5Y5QoZv7xfz56+8MLnzpa31PlINQYS0EBMmAszyIKdBT9+2VIz1xtBLbiimjLXibrzCVnxkeF3V3OPeezcXlByeuy9/86roM5lqxSZDklJ3a4cJ8JApp1e2skGp0CTUYm0lBZ2hI5S7d7W04iiIGUyE2JaX5RpO7LFCxuvPeyAFd+xjhKAA3Etg2cQhT5Wce2anHqFIVYTFu2YTl8khKBqZYMDYkVMS9Oa4VghhY4bTH1IHJFdHW5ythgg6mhXd6F+Xo7prLf/f6rfZ3PpNAVIHkgiDRERsxI9ArSQBZvvixO+Shw72wsO7oiNfxXeYVKc7xLhYCD2xnXGlo8D578rL85XMn5dIkttVDYAvJDQgaRH5AizJ0qEh/Ka8KUWWBQBAhwJqkke2RYUnBxEBPR7t0JJokAeJiRpc4TSpNlVytl5Lvxo1DRQCAEkKpKATjPGO9BULaO3Z3y6fv3iU7e2of8TEfTJZFWDLY0Xz2xrSMw5YEnY5gHAEdNvmEbsVCECkUQeegbTHIxnlgRbWyuLtRAfUHpJwvoeCe8ajP/lh+zoXf63XMgYpqPGOXeXz89m3y63ftlB4cMmWQJ1Gp1QYsAUcvu2ue/kKqZBRcEDiS969OyZ/+9G05hS0H2UzCltiBnKxJjIRFIyMlhxP6vrwfG5uMOlKAPI7peLowrvIWCJGkC8QlpjI+Lx8tz/Ly3Hix/W1vS/Z5GMTsSITlgVua5fHjO2Ur9gTVI6itBptlEZapVEbODI7DVoYZzFazgSgvR5VSd/FjpPP3V6pasTaSn6u/q7O9+2er9HFf/TV3Mf1+9T9TfYxcQ1Z29LTJHz51jxzoadaR3OiFl2O1jDUT5l6rZLbTeACH0v3FC6fk7SspmYLNwlgho/NyrY3HNVgdLJNGERfFLwqOOEaBymDWA84FRpcKM5LFMle2IyRbmyB3UbtA5FmYvyPs9UNwI4d0dJ5EmrhIG8NtbS3y2G1d8vgdPdg2AekbYbxEtyzCMgLFuPMjk2DVqXNLoRoKosMJS8NCuXk8nzlSbzbn6l3eQenLSx0+sf2K75636waMWQSp922+G9uAnKNq/CLhJkj4/6cnbpej2yCDYEfjJ39+lRmXJe59ZCHo+IpndmTQFPnOSx/IX730lqRm2/AphpUh1oVIyh6vMeDhHrz3hty8cvFoEE0ppIORAAA+XUlEQVSPwsaClik9npTpGWwp6Alj71ObxHGwlsqZCJcVKUtDKrT6ibCNFIzYNQYpfEdzSD53f4c8eOsWCMI9I+DLKNWyCMvloRm5hl2rOYEwkC0M1lt7SbFA6ok3DxGK/nzgt2r+ZYE2xYuDkr+yDjI2pfF/me8ZJAUbDGmMKFxIAWEi8tDtB+XLD++XTrUVWwviLEEV55oIhXFl5MpfCmcpv3J5Sr7xkxNSgK3CMDovVxEKsMdqavbGI1RJsbpXjeyrBy73pfEhls7+TDN3HJx0//AI8DIvWzubpQmCSG6xCFGGwJA0DbGJHYXqegEWtH6wFWr6X/roTrljb6+pDzQANssiLGeuTsgIbGZnQphbY7scuZJydpcYybmwD3OKc1+Hqg2oxZpOgiTCyIRBwd6LHAle7asjtcZzsEpFqBF+KieozfXx2EvqDuWhPs9VE06DeuIz8q9/84uyFdJa7UpMUNPi3ctV/fjMB78rFYxJ0zEqFpewfQNKcP/9Jbk8gwEF6VCNnwRFOy3C6PTEyTW8yCoidAlZckv+rbYbmmy7kQ3eYSZ1NinpQRzNmu+Qnb0dMKeIqRrHPdYFLJdybQ4GSy7J+omo9dbicmYBh7pTyH1kaxxC/T2yc1t7EQ8bUaslExZa5H/74g2ZzMK4UwQat1i6CJEX9jslIoppqIjrSv4AG/2ZXY1dlt3Oum4FhIoA0Mb2wriQDKsXOmSteC4BchJciaF5giR2Q3d1b5V//oltcqybinFMBzmwI2lncrl5sfmqGTh/X26aN97ZfEi/H1s3/uNPPpA3L01JJtaMQQV5opdSw9a0XYuJuaKt2l27jEe8SDhmoBB4dXQMXFxednZ1SjuIbhz+BgKUU6vJ8rp6r1pRVz0jwoMui1PdqfzWhrOB7t3TK08/3Ctd4Fi8zxaoAb9LJiwjMJz94dCEzObHJYR1xXyuS8J6ZAFbzk9EvCIXOZUGlHpdJcH6lzeb8/GjM/347v/mnuupLo04h7CHIIbpaBMMTd0HezBPP3wrDqGYhYIaLdjh+3wJKuYxgOfco0ZC2UAZRycz8t0XLshP37qOPUAwg4DSsqUp+FPBPSqgXItL42beUWAu089gZ/VlyAHT2Lm4t7tHtrS2AU8xdeMRNSCUxsLYzXW+m1nslcyb+EXi3wkO9slj3fLRo1t0hztlLI12SyYsA9gfNDiF6Q/m1mFwL0Rc/ja+iI2u8s1Pjw3snP+Zfv53ZRI8P7+/i+u/04xAFsLZBDrMHT0x+ZNPH5TuFhAUCG+VX2ICaJw57TPHg6labuREuJeISDKdzssP3rwif/XiB9i+AT/4c0pCuqPbODR5r5QlvpuJ3SQHSgjikkVZclCLGBibktxsXtI9OVjKa8Ppg5gckhtbCLA3qfSNzNa4WQoqQrKtMy5P3rdd7jrQI+1UPaja/svPfcmE5fzAuExC+h7JYgSAdN4mrWylTdBSi4A72821nZsOMTqh5P9GP79zkFTi4iVQG7IgAGDz0YNkZ0dBnn6gT+7eipPqQGiy5GSQsE5TvEzBX/iz0rK4tE1SwdU8aMBAPpZC0BxG/VdgHvOvXjon/VCG5FoMiQ7bnLZibDhxafKNQ0ylm+tTGWIl3k1FHedy4nCxgXFY4UtOYUl6q/T1dKmMwQrqL5urx0qUZvXT5MAiWLVtApHd2d0mn35glxzZ2wljTbQCt3LlWRJh4dLeu/1DUBPHImOeLDGQS6c/REg2kmuoFSz5ysGksSk7UDBVDxz04qO7SDz8kPJD0EWfj01nGLL9LbAK97H79sinH70FxzNggwX8KFKn4LYYH37FvLzE/fmx7fidpCHH0R4Jn8Xq35/94m1558o40sMREFS6A6LSXKRxK5ai5aGl8WVSzA2prqazynGapvgInKVsYTyTlAtDAxBy56SvvQNayCSzxm1b6Vx5PeCsZpEbmBc5MQ4SBRxzHIfFsX3QoP38R/bJvh0duuengVlVTWpJhCWD5cbXz01KJhtXBNOGU1RkbdhNfK6I0T6/zfLox02Hr17d+YkXuRg6D/2Lz+6d94qoGqb4g4/kEFpw+uSdu9vlSx8/LDs6cXg4kIrxSFQq4zNf9fM+8ObKwxicOnECNYu2zCXz8l9/+Ka8fGEMgnrLS8/ToQY1HQiMc2S5bYDh3XzdNMmFWe07dVisdoASOOssaj4G0wu5G8PgxPKyowPEBSZEWVzWhJ3RHOOtX8d6cwDgnp9boJ7/xYcOyo6uFmv3VajWogkLuZUbk7NyYSomSQi/QmC1iNiKR2gLVY5yBVey6Y3HDtPct81w9zqXVhWwIQgq0dWhMcP4g/O5FNYJRw31SbytAzMWV2PQQcCh/NPP3inHd7bbYSPoRAxNwuLcHNaXGRQHAiMQ7FhsNpZrEj/f/cUp+eErZ2RIWjDljao+iPLQCEOuhY7TLFc3fx30Y7Gj8svcrxZmZX5tlQppk7viDfnTgHgGHzAzwuZZEMuJpGzr7pItnR1mnlOLwsqVt8DKlLARqbJmdAZfvrE/st1xbrs8eNs2TH8OSBvkKavpFk1YCPDzQ7MwnA3qj2fdfb+aJV6PeXn9yaFArSp4JLjY/QxVgCjEcx9hZgfh1IcuDAFqPjUlX/rU/fLIwS4sqRqK2a+uBXmdysLX+rW8YJQAavlcLckVEvL+laT8pxfOy2i+FWcD8cgQPxmsnpLWEYm58qniZPWgq+xLImhA4xSO5xkmsTQ/OJ2Cwt8IyalsJ3GBXIowJRkq18la5eLWlR3L6SnnYPNnvoBzoQDwCM6z6m7Lyyfv2i0P3bFTEpCnrLZbdI7kLN+9DCEYl+zQHORg2Agc49x81sN5E/AVu8lqV21t5kdIVTrCq1qXpb/CskhU+AZhLDlFJKQGeXKz8vFj++Qrj+2Xbbq/ozwHnWczjsbET6XDaM4drRzltBkhsJ3NReS9SzPyn//8hFwcxXQX8bnniCmTqGmZWACWGvEdETGuxeNfvWJ4t8pcV/3dg5yucHFZnqXkXwZ1m5xNy5XhYQAbmrrt7br1wY63MI7MA8yql3nBDJXbxECAtqDmcx5qBZSq7YJZjC/cv0OO7umWBNXzF0yo8QGWQFhwgNY5EJZsChUicXHo1vjCbYQUizShojIGNZKJkqOfHwn4bBenQuwM2v2VgEcomY1kpLM7Ir+LvUC7sYwY08iuK7u7pe/Pp5gjw2swfMVAwdyymO70j0/Lf/nua/Le6SEJx1uwNQCBOIDo9MDFZkTNUD2MqCAYvHgp3cEXR3T4Xgrt0ljdO/OHfpgSUubMd5YVi14gLim5NMqTJvLYYwTigqkktZltfxHrugadAhptx3KieFGQySM7E/IbD+2AuYPmm0ZUCKlFERbi1jQO0DoJVf48BF86ciIRQ3cmh2dW1jmHXe59k96roaUPSta3ARu/nz4zoj8yYOuIC617tYFb+d2H75MHjnbpmUAk8v40DNyMUdtpcyEPtiWFm1cm0/LN5y/K82fGyWRLB05LpC6Lqu2XERavaGhjl/7anzoYjItoqQU3DouW/0exDWB2PCfTEMDsbuuCoXEaxCI358WrDcZlf3Fl8nefhRMlUUnoQIOTXOTOQwn51D19OFsZZiN4Nu9NdIsiLDkg39XRKbk+OQVmhRuZSNHJDjvUYk38z3z39wy+B85BoBJSzr949zCaEKw8lLwJRzDcs2ubfPkjXFoGZ0BVbcDe+JpiCniYS1hci/DOKRizobBvEsd2/PzdIfnrVwdhCa5Z2mNYqiwk0YJcX6BaAcIysJeA3bxfrzJlqKAx1vqPERaSxwyuZHpWZsC5QPEFU4otWDHCNBBVcKtr1iSos1ab7I9XP3/Fy/wIYb/jsjfztCmkpoe0XBSG1GcDa/kH54fYll0YXFVCOuNxuf/WhDxx7w4Yu+Ipkf7U/Hmv3vPiCAs0bE9eG4X+CrQZcI6wcSoGFbdC4DrA6lVhbeekiIMiEid48b2IH3j2O/edfi4M74QpNxZSD4PEvAlEZEdbSH77C/fK7j4cNpZPQcXextbycaocwTQtX4bunbLKHJZL3rs0Jn/5i5NybQr6KxDWZoC9cbS5FlqTYoszFhzevSd9KD7zk/9FA6/VHxBdsuGojNrSxTNhMQvD8NfGxiHDhkC3u1Nam7DHCGrvXFfh+pKtMTGaa02kw2dXb4UVXx203AfCAauobEs8GXEocXyMz1mnF52BvTRdPubFX/CXMAEq0o1d6x8/2isfu7sblt8W1Z1Lia3A06JKkgGSvX4OB5MB8PEcZqOEpUKBP9zcRLQmyAy9iWD6eQUKvm6S9HDKgYmvfpjw2Qsyp0r0JzSVqCAUCUsequhd8bx84u4++chRWtpnCHIllamW3hmCrjIfl/40VkemsD3jv373hJzpH5FQrBVJRiQDHYgCNqvlMGbrgIEkmY+1eSlBvjs/bXMkXMpds16bP16heVMBNeRWpvciUKXIyvVRyBIx9d8Cg90tsKfLDYzcykDZC4lLaZJUWT0SC4M26ZbCX1+xYoMpSkdzWFripg7AcBQfMEZJtFCZ3tx3Knl0Yz35yTt7sS+sV+I4H2otuUUTlhMXYMAY0KIdVTKIBFpxbg0kJ8jdiMUGIzxxK/rhcfM4Vt4BAI+Eg+KXDwLOz48WLhqD8TvVungVYPU+jU5+64Fe+Se/frv0RHDcKFY4ciDoei4zAO+P60/TpeXyd8SGLTaLEeI//O1pef3suBZQ7bmgLdVoNTYblhETlxDuXr+kjzptZzy5Oz1dfhpgDf6U6sBagrB4VIB2XjLA8+GpFEyDDEgU041IhFbVCGvUkBXDjXHmdeBONIRyNDjTG5TpP/zeMbllO8w+kuWA88NogdSKWZHroW5KS53HcRQjrtJD3YSFxGQKhouvDI5JFmr8BRj3cQREKS4BB2dM3iqVfq1nQ5D4MMWPQK7oxONqBIDRFOnxQEEtmcE8ELuvNSS/fu9OaFFCaAchYwQdn5qwnFe77Gy09DAfvk5RzHUiVw7mPQvPr//dq/KLdwahWZsAR8QTF+yQDZYx5CG/S5t+dMQH5mjqBua3Ln8dkL3COw6Q5BwLccB1rJSBU88nudwOrhyeVBRUaAMGtR1CYPqkUyS0DTcQE2LkX66MTMn9hzB1Wa5+CZNbo65uwpLF5PP8SBLGfYDEgGdJo7MS5dZoTW9msTwEmA8NqxYPERSBAW1OR6JQXnvq2Bb54t3bsAQcBQ+Dr0D0ohJaHYjmglBxHyeVyo9OX5fvvXRaxpJxyeA8oAJ0IUI4pIoW9im03bzOm54AYDxPh4QUS6GktICPsjVlg0Z1OLH1kAApFKPjkbKwd3Ba5GfvAZmh2skGdXVjDgVab1wEt4IdtE0UQAEgnPYQutZhACg82ABgPsrRwINhA1eCgEHH3g2OpW+VsOJ7JgqNSkw9j2yBCcGP7JetLYb0PFNXTS5qCzBVXMUEvJTZIJ6f4zCpCEbzkh/0T8nXf/S2XAdRyYMrymEXLOUGao0OdxthiwkWC6ndCllVcisM6fLw17EYcT08KAJbQbX+WhHDdKsTIOQquVB9CHpEUq7Fgyft5py5OqMC4oWir+fvdROWZDoHwe0wRrJpkBOqEdvyoyEfQWBPBnz7RSD8bW7nw1MFhIOMg0rlO/0dzFQniHN6YOf2joj8oyeOyu27WyFAxCmDiKgduRgeHi4xl4DLpHhnAO5YxqrHVFa+9pNTcvIijs3IgusBu84t9m6ELbVrMbI+uCws99Jbeaj1/OYDHqpnNaQfnrzpfmWbzldbhnU7lVT+CAhfujGlB9sXsFTsJTlfEuvyG1mOutz0bFbOXp+GXgM34pM1JLjKV/eZEJvAf9FvszsipyFo/ZBQGDISMK81OyEPH+yUT925U7qazUwFG47HnOrgWUzcQb5KPloIsPI42GsCR2X84LUr8vMzN2BZLYq2xMoTewDlJrgK2rZMCx80nj1WPrvc3H3RlaxSzLXrhVoWK7q4UpLDc1xeBBrONyZScmUI51vDANVGdXURFs4vR3Hew7Vx6K+Ajabaty0tEyyENpxHxpX1AzKWI7wFCX7rh4DCTzs2jGKHpuTLjx6RXe2Uf3COT7mK4ynY8/2uCvYXg1C7Fgd8wUDXK+9dlRvTE3qSYU43sGGQQDgk67tIZMovflTFSL1bOxfb3F+M4HkOBNgyUSxjJ7M53eCZgnhho7q6CEsaptkvDE7gUCjoJlJ4BQGUCbCKGLtR4dOQelXp6jXTZdiSA/OMEe4zj90v9x7cJs3QtuVUxdoAsOfyPiJ4NB13TmdKsZXo+95VJwXC2R4c9P3Mw0ekBToV5FRgBxCRIM6lkBHp6zqVChzrQg9/hsHzvBDgRl0cSoJ2+wfst5tMgYPcoK4uzJnB8sEb5wYwSlIpjoQFc3Fc3IRITUJl9AAsk34jySJS+rB6gwJwoWoVR3PSAQSuvNgA/ssoA0Lhn0SC+hOHD+3CvhUQcxAOlYF4H1UoiHXMAi41EUnCgm9cLLaLucF5NwpmebXiGM3Hbu2Uzx7dKR3QhQnrejRLQa6FlxdBIwc/jYIAocoVPC5pnxwaleGZ2UYlvebSITYt6MZhs+LUlRs6DSpgmZPCRJs1gpiQoBjf7kvHdZVNjqAEk89Vg0bRryKsRsPHsi0SDAPiYd+MO3Haz3rHBwbxX35mmzG1ZTCN4RGaf/ylB2RPS1qasYytBFAT5k8xZNEneGgMBEjw6UYmJmUIJ11Urqw1Jpebn0pdhGVgEnZCx2EmAQhnoybx2xCcSOyQ26rjT9IhqIW9+dVd5RJUVJuwqnT+jq8UwReAnR1rQjrK6Tem50AKMJN74aSUf5wk+Z0LWuan6bHtoKGC07sObU3IVz56XLZEsmYZTqdCbD+Xlrv7UwmelwoBrgpxA6IUoIM0jdWhwRkcAFcNK5aaw9qJ56cCVUuVw5LBNZjvG0rxwEoT5JUF9HBvY4KnrKZLfyGMiE+LTIEEQ91iI9bIh6mpPRLcQ9BZacZJZs88dqvctr1VqBnObHjp7lvNukEZI83AEQLoPxwtQMAL6YicvZaCGRKKEjaeW5CwpGB4+OzwlEzDIj+PfLA5vIeE3pzeeo3XCYro6dA0QM660IbgcxcjFMHm4FolFe+Ti2atwxYqwb4Yu/jg0qF+TEj2dMMw0JN3yBbYtIzAcj1t6dreL5eGCx/clw8BEBa2DWEMven3Ls/I6BQswG1AtyBhmYT+ysmrsMifww5XAECJCwiMEwS682WsV/DXENuP3L5esgFBuECV0KH9XdQ9u/sCsUuf5xAG/6daMKe/z/FFPdjs1IeBlTS8P3ysTx492oMT8igvo5IcNwt4Qnlf9OBx+RAg0S6AWyzA+t+V8VnsG0ouP9E1mMKChOXGeBLWzDMgKNjYQIEABH/sKdU6hhMgrsF63rQiOTjxvmjnybEWHW++CI7SYHWPVIZNuqsrJr/36aOQufCQdyw+Y/WPW/jnCuXnSzj4Vi8ESFzIs4wk2bcmce75krCj3uxuSrgFCcuVoaQMj6FsEDjZmoIrJ6Macjofh7PuPbgvEgKVVGhBfHMRLB9yibbQzHt5a5WVxNdQJCx8PdbXJZ+4fat04ixubhnQ1YvisnN5O5elFbwsCgLapJCxRDADmMBq6+lrIzKb3Xj6LMSYmo4at+ehxj+NeWAU+0uIru6iDMpv7YrIST8fztZMd7N9WDJMFKgEbCXEAGhyFOAscLo5Ji0MQJTlNSdwZeSyd6rG0XEH75ceuU0+dWw7jnSBOUpwNHowGb4FnKiCqGE/qsiIaWgGyo/kWCZnNp6cZV7CMgPNwLOUryTTEsOuZhq44TZ9GhWiog8Ji7sColId7xQuHpwYwk8r3LPGJE3wO/fR3f3fmAqIfh5LlRlYPePuLc5QjUdhk5Jc8D5v8+K7lccRl109rfKFx47JARwfEaNuCwiVk9JYZ2BhArccCGhzYlBgc3Hj5zAs941NbzxFuXkxb3QmLf0jMzTRDtbN1MmLQAVxMTu3AbIVYVL5UEEsqkGqmp9jOiqi+1LnmkJIBpI5+bNnP5AZbLmgFTmbAPlTZAq1U/ElqCSIgtxj+7fJJ47vkm6ZUENSbk+YmU2sLy1/usFzdQgUvHX/YZyK8MGV0eqB1rHvvITl0sisgGEBW+wx2MU5d6nGRGN3lXyDp0ZAoGo3BmvCTbFDOOb2T//uDfl/vvc6DAdBHQB2FCgvKXdIoUqblYcpvYVhLa67JSFffPSoHN+ewLFFSaRJk1AkWZxwzc2hFDt4qgcC5GDp9Ia2GU8W5P2r02ZIyj5tiN95CcspVHhkmqMhkBarBYvA0Q0BnGVXghTXOTxXIxSGYC7QwvcCZF2j0xn5uxNX5G9eviiXpyLy7Rcvyg2YTqSNlrm5VMu1ej5chGqCxei9W1rk6Uduly0w+kw7u3QUCgeEpTrcFuNbOQhPZcLy/kBaNtpO55qEhaYo34LFuOl0Egdpw7qYblSrH0kXA+wNH9ZPYCoqOx9EXTSGoayWlAn0Q14+MyR/+sN35dI0zpCBRf1fvn8dm0SnJIkpkfEtXmDm5YZIPs/rNBeEyMFAc0ieuP+IPHTrDkmAi2E5TP+C93kTCT4uEgJpyMguj2dlBLKWjeRqEhZu6T4DiXUyCx0WbjSEc0cj6ItuPqQQin+K83PuGm6z/1R0xEpYGSyrA8lFpWAWjAps1Bbknf5p+ebPPpQzg5iaRNsgRA9DHSAt3//FG1C2mlbL8jy/1y7mVrOJfZkyHJ3dqeKypSMm/+STd8nexCxU6XIQs9HuLg+ps5DBbwMggIYNY2VvbCYl1yc2lgC3JtZdHUvJEIw70XaE049oACg3XRLshyTLRpqXVn02Eo8APT0wK//pR6flxfPT0pxISAIHlXF1rgDDQS+fvCrPnhqQCXA0PBMREnclE5rvgsSAAUzTlsQjH2qWWDQm9x3skKdvb5bOcAYyAJ4GYNOipdUiiFUNAhS6TyRxbPElnL64gVxNwnJ+EAJBHNbkVPOJejzG08wk2HLZgvi6gQC1ElVxHAk7P3VFdM7hPF2GGNX4NwTk+/d/d1KexbQni2NAOTcq4OKxt5wATUqz/NVzp+XtSxOQtTAREhZrPZdU9Xt5K7pikDWJNeXk9z53h/Q1pUDEDBd4aBpJV3ms6ikHvgtDgKtts+m0nLgwsqFgWpOwvN0/LDM4R4jssaogg6gQmdy1MMiCEA4ClbTC+c93t+5rBGcSUtW/fuGCvP7+OZkCEmYwynGvOS8SJK7XpEJNOP52Wp5/9xrOf0Jszp3gNO95C8Cc6IgK1FGCagHHD9xzOAWxb0un/OEzn5BdONI1WphFetRnQvI0MFXXNEsTD35qQCAMwpKBIbW3+yfQbhtHUa4qYclAGe7EORhaBhKrcWUlLiAqGK04GJZdNQAWeBsEOMDzUtk3vObt4xrFOBTX3XM4puMXr1+Qbz/7pqQA+BCUTXJqMQ4dGwRHtWKRKFd0MvmY/Py1C/LcW9dBV3CgGfOu2RDMwV0MxJDe5UUi4YhGI/KxY9vkrt1N4IlSUPQFYWE8ZqjxGTdwS4UAdcGwJ1EmJlNyeXh6w0C0KmEZGJ2RS0NT0JfAWOj1DM7b9exg4JNT8SZaBm4eCFQAyOuv83T2Ulquy6czGXAqF2UQS8yTOIKFZihp2tDOcTbCwgR55C32Kkv/jaT88OVzMjwJTyJtKUk8GdEqERR/ARkSl3fTNNUHB6N3ROW3Pnm77O5qwdQrJlmo6sZweFew/FwG3CW9GN+Xlmx2BjK0KU+DeklJralIVQnL2YFJLDNjjg42zZCQ2MagPqxz1aBX4FYMApFIBDoOUN0HkcigDWyCQwJRIg8k9OzkPEk7k4vIW5dm5KfvDyO8F8i7GxnxExN+cG3K53KnyIHg2NUiDxzaJp+674g04fDxND7EQMiCpi+H11LeSFgIxySWnd+8PIk+V9k+S0n15sepSljevTKuS5taPDfv0ReHhCWUIhgYJHBVIFABlyWhDKYckSjOyuYERNuilI9rGk5RSVhoAZ5P/VMh+ebzF+XqGM1dIFcdIGyQMIFuRcHmIxEMiiQ6mqPy2Xt3yYMH2mGyBUfAII51iVJ5gqelQAAtV2iG5nQHBoRpzBKWhCVLyXhF41QlLK/hxMO0HqZErOJcnmWoRMYVLdfGStzAuLQ6Ia6zzs+JDRuMs9NKZ/IvcDIIMBtJyOkbs/Iczg7StRwlLlwlovocCQIdU3KXetT4YfvzCNaIHN0Vly8/uEO2QHgzQw4KQmT2g40yytYAwIp5s19lMXBkoISYQ3+7cGlIeCJGleZdsTKsVMLErDnu3Ss4yAoCJVIUsxIPlMazbTp0iE0/W0WohuhzEg08FAJEmsUgjiPnetwq4iqRATLqvZgQRj0osGWJoJpLDoe8p+Qb339VLo+BmJBZoYSQKzrI3aWpQRf6QR6c9JCAtEBp5mO378KB5nskhH1EFPK7IpC4BARmIWCWf9d+Q0E8LlB8yU3n5cpwakNwLVUJS1sTjvhgZctQcFHoWA7BTfzGUYn9mtdyXJGgIJFqLUFyQSPYKm9ROy0ZHPYekh9jlQjbvTBAsKmrxZy/VCy/RkPasNoCQS42KX78Npwh3YUd75hqQcAfEJT5YTjvVxBk24cF3jKaljZsp1h8K82bw035WJWwfPTIdiwz8hhVcCzkrR12Kddi5SS13QgAuClQX2Kmfng7LlHbgW2hrIMhJXUj6MYzMfmzH56QDwdTsFJGC4BMgQE1MO4LO8YgkpjNlojEcK7UsZ1tMAp1WJozY8hXWdsicQk4l4Vh6g9BlQDKxiKxrPTtCMvWrmYYOfeHWJ/PVQnLF+7ZKZ1tzTBRGMayIs6gQeWpz6Jat149baZOBOUVuNWEAPGuKu6B8KtwFh85DqZgTvTKtMi3nzuFg+A5bWFzV405b/EZS6dQwAcer9sej8in7tklj8JuSzwOrgV7kyi9ITlb5ERr3nw37kfrPayfwhZdqBWzhGc+ckgS0Bsid7reXVXCcue+Hvmjj++XHbDNEc9DSQpLYVzKNCLiiIm7r3cQrGz5iSL+7rxUlOEUp7IFmJZeaAqnDOf8WCuOBWkIXn/53jV5/9K4LluTp1kSs02WyCgMziAqyMGemPzG48ekswUCZWplM2OWRu98Dlx1CJCoxCQdhaIjCAilXommhDx6qE8+d9cBPZKlerz15VuVsMRBNX/rob3ya3dsl7amdiAoNp8BS6mYhVk8asgrcAtCwNFe3HXK4kVYTN9jEnTsuKqYiDufeblpkCNcSly8vLgTHapsCJiXc0MQ5P7sjFwcz2AfEVN0R3s4UqVZzPPjKgAxLjYk8moBG/vI7X3ysdv24LB6nOCg5Ar4oenPk1TwSWFk63MhiUVwNvfuTvnfnj4ifd0t6GMbA0BVCQur1tvWJP/yM7fJfYe3Shg7abniwOVKZeJ4GDzNJgRudSFAgoIcedVyxEte1MSNFmCrGLZr09hH9NNzOfnpO2OSgvYuNyiW8z94rcu5nIE2oahsaYnL7zxxh2xvT0CsC86Fsh1PvhMIdGsBNA8Rw5S04SDAFoBrf2er/K+fPiRHILfaSK4mYWEl921rkT/+9V1yeFcMS2IRZbeJPGV2WTYSNBpdl1UYfZiFCQDL76wKBwFyNlmYOxieKcizb1+SszdS4DcpyHVEop5CMkzpYkwOK+DmYVqhW7744CHZmvB2PyOcG3JIXGgzdzPLXdgGhIi7CHedVUIprrMlLH/05E554uiWDTMFAlqom5ewMMQ9B7vkTz69W3Y0pyQOJR5KsJVrUcR0yGmJBb81IOD1ydWCFvOh/lEOgtYMOAvyKC3pYXnjvQ/le6+el3EYR8cmAVWeM4JRo9xFb1dyqwh/mao7aeqfPblf7t/XCo3cWRAS+CJfJWt8hjML/0Q1xtzcjiqO2RBmAE15+UeP75YvPNQn8Q1o5mZBwhLF2tcTx3bJ//6526UDqwGhMNhoFdZxNFQU3tyYssjarwTEVLCLPmvjIjkE4xJIWHipnkQMAkNplefevCqvQ7M6i9AkOI5kzF8NIyilMKYDTM6VJKS3NSFffvxOuQUnKSZC3NHE1SMSFU6PyEk52Vx9uZXyWb9Pfg6lVAvjIAtYrXsaK2q//egt0oHp5EZ0CxIWLn21NcWwT+SgfOGRAzgQEfZAotgrgpjG4gaj0HyIoUJXBHDTg/nCNvQb9I9IYNg6SljwMBsJy5nhCfn7V07KTDIK4S5GT3wnganPWWrGebi0DQsePMxjQ/ZIJ0wrqFU7TL8YojQxqi+HDR0KA3E6kpW7DnTKv3nqsPSpzsrG7D8LEhY2dBjEpbstLn8EIdMjx/vA6SYgu41hrlhX9A2NK2u1ciRozrnOzcFgCjzGCzBh+V7/FM9/V6JC4rIwL8EEfYnyDXhhGFDAsSExefojB+WOvlbJpaGWruJcTp3JrSycuivrRruz7gZ/wAKc/t6esPzbpw7Knl6a/9y4/afumkUx2u3sbpV/+2v3yh1bOqQpzCVGsNqYKnE9fi7abTQUWQf10X7vn6KyQ1undkvVWbRZ/3hE/stPzuAUPsjLMJ2xHUb1dv7yllbiQkVKjMaHd3bJb3z8mGxri2IliuGopUFerd601wGMF1lEU9fHXvBwTjpbo/Kvnzgsj966Vc1PLDKpdRW8bsLCWsVBXO7bs0X+z89gzb0NS4wwXZgHQ+1Oy1tXNV+lwrJ7Ecja5333pWbv50SUWCAhRz5AUnxyL5+vysIgcMWmwSiOZZ3GgeTPnh2Sf3j/ClaHsUZEg1519X1HVFxtvFroa07acQ7RY3fsksdu2wZTDzzdYTOTFHJz5Niy4Piz0tYSkWce3C+/8+gRaYa0diNo186Hw4siLEwoAg7lk3fukt//2B7ZGotjvwjm6jh+Fcq5es2X2ab85vVvdlzXHd19qfDQDuslooJbsNg0dK7HtFC/yH8hExWygjOJg4DEsaqH4VPGYBDqGz96ToYncBIDiA0VIPG/JEqgzAn2EIWQ7o6eJvlXv3FcDrWZveR0mAOP7TRaan3XYzyTPBmhT4CQ3L+/V/7kU7eDqBBO67FGiyvzogkLk+e06B8/sVeeurNNtsPAchvMJ3LDYhZEh7hJtwlgZxWd75c9lQpjXodtNEz8BIbF4Codj2uxc6A4BfGITLGM1j60DJ/HkSFnBmBp7tVTODvKBL0sp2u/YpS6Hpiujs/gYnOyryMnz9zaDl52FgLjqJ5JZB2trsTWbSB/+xKOsyCqyWizHNq9Tf7dl+6R7Z0UH2wOtyTCQtC0YqXoD5+6Te66q1syca4EkKX22P4ixvtBvTkAOreWHlXxPiwFIpziVHPKBeGTU5AzSZcRCU5Py6eoECHCjwvEqvoP0p+SDvn/fvyGnB2dlZRH/5iVac26ctd7t8GEBIS48dtP3iG3QlDJ5eelkqtqdV4vfuwCVEzcu7VD/vgT0Kzt61gvRW9IOZdMWMjO7cYZv1wpOrJnG8R0MLSMDW9hbFqM5WHPBVbiQ1iv3/S8i5lYY28FA0ESMfdv/pbUnj5/kDq/mn4LDnlH43G1Zlaa5OJUQn70q7MymeQOZRQTHA94TzxhysRp07wXqREvymh4okPapl3hJtmxo11+98nj0hdOqeFtLmyTp1HLvCBwG9GRE9SBA6ul5OB3N+flXz2yU548tkNFCBuxzrXqtKwWjuIoijv3b5H/+TOHZSd2u3K+T54lAplL2FuKJrJuBsfJgJ/dR3dT5Kqn7o7UVAtLy3GV+24cp1IMrzorNs0p+rkHxGezcMnTyohnNAqfqdo/FWqX7/7ytJyEIedpTI/yWIMueNbmbDFaa4IUeAehKbsqv4Eg6fQPZxDFQvLr9x+Qu3d3SDMOKuKxIUqEUBjCaePhBYHKmhGGOC8h2ipffWCXfP7+vdKaMA1kAG/TuGURFkKJQPvoka3yL5/YIT1NENg53ZbQLBAUbDAFiZvNkZ3jpk0ltAt3IXZ96/7VAaVCVe8TiUI1Z0TNOmx5EC2EF4WhjMDQ1whNWK5NinznpQ9lgEfq4o9L0tRDKUB7tvyKVbyT++HFcPiGU57tHbWB/7aOuPwWpkS90IGSeDM42himzEgdl79U1eqz/vw82IMohzHgfvLoLvmdxw/Lls7mDb8CVK2tlk1YmGgnlKO+8pH98qW7e2GrAwdnQbibjYCohHnQNUe5zeW4lBgCYUH/RO9FF7JebHcPFPV0LBetFvT0u0dFHBejtomrZejL1/ELJDLc+5Xi8vPpEfkVlqCnM/xKIkELPCAa4EDLL/rZhdhMQS+YA/MIjCOosOODLw8d7cOxIbdKItGsMgcSlSgu8i0byxEONNIUlbt3tcn/9fRu2Q0lOK6ibkbXEMJCzdweGIX6N0/dhfNnmiWfiKvlceNVNhoCzYMmyqJAfkFkAnGl4mABqyJc3oUyAzqe40wcybC7f0LhOA/mQsjx3em3VuZsUxof3dJpD9JkOdxVGWnOu5XxCmy1fBdcy8UxbNnQdHzpIk55iet7J6fVCY72sw/skcMQXkawQ96I1JxCrFsPay/rRmGsAm1ra5f/4+nDcmh7M6zBNaR7rUvYNGzyF0FH2grbEv/uN++Q3//aObkwArYawqyIn49flyCqv9Dsy/9/e1cWHNdRRe/sm0bSaCRZ1mrt9ngLke04sRPHdrzEsZ2VkM1xkVDZyEYKklBJgBSk4JsvPvjgH6iCoig+WX4oKlVQBYEiH4RiScgGhMSytcyMOKd7nmcsa7E023szt1WjN/OWXk53n9d9+/a9lg58MgvdkP+cRyfFGXMaRxKIJQt8MYGkwfNF8nXudc7k4WJ13vqALzyz9IHPmWf4rxCJE9fST9izHHHwAT88G/72rf/K93/9V/ncoUlpw2jLdAsnIyWROPHyknPZOcfb7HkQFr7MQHemPx2Sazb3yF/+9bFMQ7DPO3gPV6e8G1AGvCjof5JjlTAmkK0wg/Dk0SHZDzMINJbWzAEa3ZXv+T9+/W15+QdvYO4+YxrPcnKBRgOeUwu+wfx4Mw9AZyGTDkprYAb9iI2wMG0wKyJ2enFRHmWmBhaNIlboqnwml5W33v+fvDm9IBcwuTAjkQJwdtm42EEdTdxSXEs7fOl55ztHEDZgyorEe9rCsqM3LqkAVonoN8SRmeEmls1Og/AMyuTL0yEa6bKYCpe0KZ+h+QSj15Sdh+nFqPzj3AL0ZqblkxnGi1TNc4WkPXcgahTS+owRLf7qhO3fu3d1ydfu2d30pMLqrAqxzM7n5Ns/+6N875fvyYfTnE9fqsvAZujplxWRWyoYQTVNBsDkIMoczZ/HDAgjN8MWnBpZcmHntOOBQofkknQhFLuoPTE/R1OQQewox/YJdNZKE4uTLo9mWI8OH0Q5gsgzc2VGYdytiF9cRzJLSiRKvo9wL492pMYYEMwPOwpiGXNYaYrH4sg7ZDZQP+Bj9AlOcvFScLAgmVMRMQjLfKTZWT9kR6FWuWGsVb57ZlK64d9aA+31VCFEQgH5LCTib7+fk5/+/gPsTWFDwnoDW1UjBy77Uo4CeUoW1HLOl0BHiqJT2ULnjEMxK2coJRY2VN5SXEBjx8VvxIUxthGwmq66DHxO/ExlMTHZlFf/b0dUyDtssM6BAGdBCvYcpmpmzlIgFSOMB8U4pLKoTk05kE9nNOXDVoNzyGAAcRo9D1zzHqmAQgywJFfkH9hwCkml0BA+O3oj8tod45Juja0OdJPcURViIXYpbFJ8/PiI/HvmgvzizQ/gjY97Rxjwtoa7zkvecvZCQ/w37c8owqGTwgg51AVBGDhLwoHyIP+c6YTj3dApuNMp+ZsN2MSFI93B5+liw4wceLXygW9fktcCld1st8F/Lk0jx9wIZq7iUBg1kVgY7MjFfLX/WFTEZZXF+Dw+IB+nS1Zh5l2SeDW+mloxEVvDZiBa1GUOVuDoFme4u0WePTIkYzDj2qwrQEuhXjViIcjDPS3y2JFxee+jC/Lnf76LRsaGGEFTw7JcgVmcN8FSmfPmOb6SSSochYBEyBAInA2RUqwchmfY6S4PvO/ygM6OC7xknlnynsufWtsZG6nPEAtToeAdRTGE4uQUR1NhoA5zu82TyZiTWKEALCefJsnwaD/OTV47msLaUgACvic4teuCfs7Z6wflwOZOiYVIyxocBKoiY3Ei53F6Jis//8M78uoPfyfvfDSNBompgZmBOY0VjXPp3lQajee+g1qQZ3Yr+2YvFsApd/HM6t9swzYDH3xdHIPz2961emwr3oHIbN5XvMtcdEhz6Tsrkpulo67xWdIn+dTaHrJTIDgmkPuuGZCnj2VgCS5a4xy5P7mq0yw9vO3P9Mj9ByagJBVHBUXwcbqC+wFabw5NY7yMVBgbO9xaPzYXNUENWTMCWbDGaseVy2Hz3Aj/OVq0IzCQC2RFUUxN9w345HFsLmymHctrqcuqEwsz054Iy5n9I3ILDAgHaHnOCDltNu1UaC1Zbt57ObBbilwcmmpeZKpbck5radOG2FPJb3NHWF69e5/0pZPGbGt1U/dm7DUhFkJDm7lfviMjE0NY5ghhgoBa4moDl2L5XYMi4FYEODWkvAwNVtphEuLVe6ZkaEM7SKZm3cet0Cybr5ohQ7V/rvF/694t0jYI558QdlGVwb4Nls2fXlAE6o4ALfcuQJdoQyIqLx4ekj0TPXCN2tyatatVSs2IhRnBpk9s0ErLa8e2S1c8DsNQ2Ki2WLa5Wo71uiJQQwQ4zcxhZB2Gg7GjmaTcu2/QaNY2gZiwLJRrSixU+KJB7iPwQfPwPphZSIYhDKMbOJ0LlVWL+nCVELDSqyhm77uHk/LkiS1GXqiksjrcNSUWJzvtsaA8uH9Ijl6Vkni8oOkAbuHeEgalGQcpPdYLAepZUXs4iCnPNuzM/uLxrVCGay7zkuVgXxdiYYZ74AXukYOjsnsoiu3lWCiCENdsWsPrwFGeK6dg+qwisFYE+ELjypsfpELlQEpR+lNReezQuEwNd6pm7RoArRuxcFo0CQdXVDAaTAWg+J6VCEwNcFHPWvvXccsa6lFvrQACJBVDKEbzb0GS8AX0CLxRHN66QXcsrxHfuhEL88nluqlROEA7vVW6YL+ifQabFfE3h1eFLkGvsSb19jIRgNoDNkxm4b5k3p+Fj/Kc3LZ3QE7CZm2jOm4vE7AVH68rsTBnUeyEvj7TJ2dv2i5zsGkRgFZjOIe9o3h7GGkLhqU6NSIWGqqLAEbIxvYMN8gGZe9Ylzxx0wTs9qq6/npwrzuxcEqUhDD3zI39eEMMiT8Yx1sDYnjYCwjkoliOZsVytlv3rK4HX33GAwiYd5jJJ/ad44023BWUV+/KwOhVVDVr11l/ruit3AlNMwvP3JKR7f0J4zqCO6ADOVh1h6FnH8wsaFAEqoEASSWLKTmcQYJE5qUlkpdXbs3IeE8bVoRUzrdezF1BLMx8EOQy2Anr5qcnZKjdB2v/sDznpw0SmD80f+stoj6nCKyMgLFdCxJpaYHf6WNb5KbtAxIJ0ceyEsvKyC1/1TXEwixy5LIPynPPHRnBMBSCtNCczOGz4L/UtOXyxdErisD6EGiJRkAoPXLfdSMSbRLH7etD6sqechWxMMt0OH96akhum9ogCbxBZiFvyUNK72xbv7Ji6V2KwMoI0AocbYHS+FYcbjqmBpLy/M1bIKxtHsftKyNU3lXXEQuL0wId6ocPbZHDmUHIW1qh9g+jzUWDsOWVWJ9uagSo5210vckrNHgO/amdENa+eHxUNnUmmhqbShbelcTCAvamEvLE4T7ZPxyGvTldFapkpTdrXCQUuh3hJwAH9lG4VulNLMijh0dlz2i3ylQq2DBcSywsY6YvIc8d7ZNRqP/787pZsYL13pRR0crwHPb+UBGuJfuJdEJf5eHDGBlfNSABXQGqaJtwNbGEUNlTI9TM3SKd2KzomEK02xYrioNG1gQILIBQBH6eAvAJFIOO1KG9o3Ly2lGJw3iThsoi4GpiYVFj8DJ/w7YeOXtwg/gj57CnaA5Kc1kMZ6mBoMuBlW0OjRUbzZ4Wld+gvQD7P4F8BPoqcdm9rU+eODEJX0CqBFeNWnc9sdDyXGssLA8e2Cyndw5KHDZH4fqqQCmlzaYa8GicXkaArSOPvT85uOqg8zUfVhfDsAQ3CrOSj5+Gdf2OmCrBVamCXU8sLDf1W9LJOGxi7JTJwS6sFNGNJXwTVQkUjbYxELAmEDCupfF2tBY/1PW7W/3y1LFh2bmpA0pwqtFdrZr2BLGw8NTMHe9tlS9A3TpN/7h481ALQYMisBwCNIEQyQYlBPe+dGybisbkgev65dY9/bBZq6+l5XCrxHnP9cwbJ9Py6MEeaW+BdB/DWxso79dpUSUahNfjKNIFRin4QWPtAte0lM8enEjLQzDaRCVMVdevbk07PbO6qVQwdj9GLvffMCq3T3VISxCq/j7YzsCeoqDRT6hgQhqV5xAwpiSx8GNdw9K5mE9mQvB6HfLJ7rF2eeH2rdKWUM3aWlSs54iFoESxQexJbBY7ubMbQ1q+mXIYvVA7V0cttWg07kuD9mnh8QEfHgNc/eFABd85lt3cG5fPHx2X3rRq1taq7jxJLNzm0dkKm7lHMrJzqA9rinGZwWqRNWlZK+g0HTchkEObmIUslh+8YmBuAyOXfFB60U6egivU3cZmrSebu5tgvuK8eBZpjlTGNybluRPD0tedwrA3Bl/DQSP9v+LS640NgwBNmc6jNWdxpCe8eQhso61ByFSGYbO2VxK02K6hZgh4lliIUCwckF0j7fIsvNP1tKBFQWfBZ6ZFsODCBqahaRBgdQcgqA0vQFclj+EKNLUPXZ2UO7EC1AH3vhpqi4CniYVQtULcf+vVG+WeXR2SgM1cvyEWDodtUH4pANHgB2pih2ArOc4Pan/vWEpegS+gHtWsrUvNe55YKG9pi4fl6ePb5OBYWqKBmJlbGyfeughdl0ZV+0QptF/ALngETIG6+trla6cy0tcWN8L92udHU/Q8sbAKqfbfDofdX7ljSkbS3ZJcCJu3Vw6bzhw3Itbqv1Z4oyLAEWoWqvuJDWk5c2pYtg93KKnUsbIbgliIH9X+RyDM/epdA3CAdgFkM4t3GJcbubPI6jbUEWdNuioI2JEKo84GguJPheXUnpQ8cPUmo6ldlSQ10itCoGGIhaUlgeydhMP545PSnYpjNyss/UOXIYRVArMbWq3QXVGj8MRNqEsflCODMIEQzeWkA4L7Y2Mt8syhSd0D5IIKbChiIZ6RkF9u2bVJTsJ4T1sE8pYcLNBhkSC4kMNRRbkuaHMVyYLx3ABBPUemEZDM7t6YvHBzRjqTsYrEr5GUh0DDEQvhoLzl7I2j1ucuhLmQwhgbLrH5AI5KLuU1mfo/zZ3KOV9I5n1hyWEKPNyXlEdPZGRTV9LI2+qfQ81BQxILV4qGuhPyyOEB2T4YlTz0u3MoqZ0S2SmTVr3XESC5BKUt1SFnj4zLLriNoS8gDe5AoCGJhdDSzEJmIC4v3tYnG7t88nEoJDPhGWPvVHcUuaPxrTUXVHq0A07KzHKSwrT3gWtH5OiOfrjpVfOSa8Wzmvc3LLEQtBgcT+3EsuNTx8dlIZmQ6egM9hOp87NqNqjqxM1XAVUH8jIfpN3anIBT5MhEqzy0b0DSCSWV6uC+/lgbmlgISzIWkVO7xuTMblie05Hy+ltKPZ7kKh5Xf6A4wCU/Oq0L5ufgfve87NgYlJfv3CndbTG1rVKPulklzYYnFpa/JRqUl45vkX0j2IwGoZ//4kYiNljbeC85siFrqD8CUBWAsR247PDLLEYqQewDSs/NSX/SL9+4Z0p6O1qM/lL9M6o5WIxAUxALNXNTWCn6+p27ZAwGlCOQvxTXhuwwezEwtf7N/DifWqTtpFXEoXqplqa1nvQC0EMKYWOhzzcjLW0Ref62/bJjE0agal6yepVWZsxNQSzEiJq5Yz1t8vJntktfCsNnu7MEYxPuhCa5lH7KRLXMx9fT+cpM0mWPG5+FqBEcAQbx8OfDUCNIyV3XwQzC9o0SDsKYOpf/NLgSgaYhFqLPlaKp8S558MZh6UnCv4xptTQLZK3P8af9WLIh4RTPOdcqcCxpCuway3WPSqVdkpxJa6n0DK1eLH8ZZSxJbF1lI5nQpS5s65j6QcbyWFaOReJyw0Qf/Ettlda4CmtLYHbl16YiFtZAAmYW7rimX05+qkfasEQZoK1cNGX7h/aMe4rkUvjNcxX8IKpVQzXSW4pQnIyYMuNHuekuy5JOQoXjsunAQDoNdtH6WyRL3SOfhIIRuOtolyeOjclGemjQ4HoEmo5YWCNdbdDMPbRJroGB5RjlLWjlZuXhkm7l+rpr4AzCdi32eQVRL0HUTF97SB6DMa8MNGx19uONam9KYmHVjGxIyDMnJmRTZyt+RUEpNYRiiaEDzTo4n1o0HSetWtgfZxorp4cbMB214yWu0mWhr5KTc1BqjCXz8qWbB+UA3L7QbYcGbyDQtDXFlaJtgx3yyqevhq5LghoSoBbqTOCDdu5z5gaXjGLYAcr/mGkXEjEyHMR38Te/mZ5uMlCRtJhfKysqHPH74jl+t4WtXFql6fG787v0u1NGnLN6KthMKPzAJzd8cwtWf2aDs/JxNCAPHBiQmyCsjUPZUYN3EIA/J+Nd3Ts5rmBOWfLp2az86PW/yTd/8oZ8eD4LA2Sw34ILnBrZTl6ZBE13doSjiJK/S8Mlgk72N1w0fb70pjV8d9KjCvzitBjNZek5aa4hjdJbycNmzLFMeqVvMIdXnHNEmxtFGXyQeflgAoHbfu7cMyEvndqMHct05M57NHgFgaYmFlZSHiRyHuTyp7c/ku/86u/ym3enZf4cTCzMc/RSuWA6OtND/3G+L47dSc8hFE4fnHOL713pN+NnYGenpQjntz1b/O/EbdIppOWcK961+jcnfpPWMuk58fJoyleSniUWW9YodPWH0mG5/7puObB1AEvMMHsBOZgGbyHQ9MTC6uKgLQslrA/Pzcm7n8zKhZmsVcStcF2aDrhMxytNynSjQm8tp0sxCpLLasGMIHDTFdy6YlQXZ48r3LVy2WBlH/op6WRYulrD2OsVUmHtCli6+ZISi5trR/OmCHgUAWea69Hsa7YVAUXAjQgosbixVjRPioDHEVBi8XgFavYVATcioMTixlrRPCkCHkdAicXjFajZVwTciIASixtrRfOkCHgcASUWj1egZl8RcCMCSixurBXNkyLgcQSUWDxegZp9RcCNCCixuLFWNE+KgMcRUGLxeAVq9hUBNyKgxOLGWtE8KQIeR0CJxeMVqNlXBNyIwP8BzvJRdhEhxIwAAAAASUVORK5CYII=;" vertex="1" parent="1">
          <mxGeometry x="227" y="216" width="38.42" height="34" as="geometry" />
        </mxCell>
        <mxCell id="zXSD_kcFRXYyIfpvOB7h-86" value="" style="shape=image;verticalLabelPosition=bottom;labelBackgroundColor=default;verticalAlign=top;aspect=fixed;imageAspect=0;image=data:image/png,iVBORw0KGgoAAAANSUhEUgAAAHYAAACKCAYAAAB/975zAAAKrWlDQ1BJQ0MgUHJvZmlsZQAASImVlwdQU+kWgP9700NCSwhFSuhNkE4AKSG0ANK7qIQkQCghBoKKHRFXcEUREUFF0FURBVelyCIqolhYFBW7LsgioKyLBVFReRcYwu6+ee/NOzNnznfPPf855//n/jPnAkCW54hEqbA8AGnCTHGItzs9KjqGjhsEaEABykALOHG4GSJmUJA/QGTW/l0+3gfQlL1rNpXr39//V1Hg8TO4AEBBCMfzMrhpCJ9F9BVXJM4EAHUQ8euuyBRNcTvCVDHSIMIPpzhxhkemOH6a0WA6JiyEhTAVADyJwxEnAkCiI356FjcRyUNyQ9hCyBMIERYh7JKWls5D+BTCRkgM4iNN5WfE/yVP4t9yxktzcjiJUp7Zy7TgPQQZolTOqv/zOP63pKVKZmsYIEpKEvuEIFYRObOHKel+UhbGBwTOsoA3HT/NSRKf8FnmZrBiZpnH8fCTrk0N8J/lBIEXW5onkx02y/wMz9BZFqeHSGsliFnMWeaI5+pKUsKl/iQ+W5o/OykscpazBBEBs5yREuo3F8OS+sWSEGn/fKG3+1xdL+ne0zL+sl8BW7o2MynMR7p3zlz/fCFzLmdGlLQ3Ht/Dcy4mXBovynSX1hKlBknj+aneUn9GVqh0bSbyQc6tDZKeYTLHN2iWAQukg1RExYAO/JEnDwAy+SszpzbCShetEgsSkzLpTOSG8elsIdd8Pt3KwsoagKn7OvM5vKdN30OIdmPOl/MMAOfoycnJljmfP3IeZ4cAII7M+QxrACC3AnBtM1cizprxTd8lDCACOUAFqkAT6AIjYAasgB1wAm7AE/iCQBAGosFSwAVJIA3pfAVYAzaCPFAAdoDdoAxUgEPgGDgJToNG0AIugavgJrgNesAT0AsGwGswCj6CCQiCcBAZokCqkBakD5lCVhADcoE8IX8oBIqG4qBESAhJoDXQJqgAKoLKoEqoGvoZOgddgq5D3dAjqA8aht5BX2AUTIKpsAZsAC+AGTAT9oPD4CVwIrwczoZz4e1wKVwFn4Ab4EvwTbgH7oVfw2MogJJB0VDaKDMUA8VCBaJiUAkoMWodKh9VgqpC1aKaUR2ou6he1AjqMxqLpqDpaDO0E9oHHY7mopej16G3ocvQx9AN6Hb0XXQfehT9HUPGqGNMMY4YNiYKk4hZgcnDlGCOYOoxVzA9mAHMRywWS8MaYu2xPthobDJ2NXYbdj+2DnsR243tx47hcDhVnCnOGReI4+AycXm4vbgTuAu4O7gB3Ce8DF4Lb4X3wsfghfgcfAn+OL4Vfwc/iJ8gyBP0CY6EQAKPsIpQSDhMaCbcIgwQJogKREOiMzGMmEzcSCwl1hKvEJ8S38vIyOjIOMgEywhkNsiUypySuSbTJ/OZpEgyIbFIsSQJaTvpKOki6RHpPZlMNiC7kWPImeTt5GryZfJz8idZiqy5LFuWJ7tetly2QfaO7Bs5gpy+HFNuqVy2XIncGblbciPyBHkDeZY8R36dfLn8OfkH8mMKFAVLhUCFNIVtCscVrisMKeIUDRQ9FXmKuYqHFC8r9lNQFF0Ki8KlbKIcplyhDFCxVEMqm5pMLaCepHZRR5UUlWyUIpRWKpUrnVfqpaFoBjQ2LZVWSDtNu0/7oqyhzFTmK29VrlW+ozyuMk/FTYWvkq9Sp9Kj8kWVruqpmqK6U7VR9ZkaWs1ELVhthdoBtStqI/Oo85zmceflzzs977E6rG6iHqK+Wv2Qeqf6mIamhreGSGOvxmWNEU2apptmsmaxZqvmsBZFy0VLoFWsdUHrFV2JzqSn0kvp7fRRbXVtH22JdqV2l/aEjqFOuE6OTp3OM12iLkM3QbdYt013VE9Lb5HeGr0avcf6BH2GfpL+Hv0O/XEDQ4NIgy0GjQZDhiqGbMNswxrDp0ZkI1ej5UZVRveMscYM4xTj/ca3TWATW5Mkk3KTW6awqZ2pwHS/afd8zHyH+cL5VfMfmJHMmGZZZjVmfeY0c3/zHPNG8zcL9BbELNi5oGPBdwtbi1SLwxZPLBUtfS1zLJst31mZWHGtyq3uWZOtvazXWzdZv7UxteHbHLB5aEuxXWS7xbbN9pudvZ3YrtZu2F7PPs5+n/0DBpURxNjGuOaAcXB3WO/Q4vDZ0c4x0/G0459OZk4pTsedhhYaLuQvPLyw31nHmeNc6dzrQneJczno0uuq7cpxrXJ94abrxnM74jbINGYmM08w37hbuIvd693HWY6stayLHigPb498jy5PRc9wzzLP5146XoleNV6j3rbeq70v+mB8/Hx2+jxga7C57Gr2qK+971rfdj+SX6hfmd8LfxN/sX/zIniR76Jdi54G6AcIAxoDQSA7cFfgsyDDoOVBvwRjg4OCy4NfhliGrAnpCKWELgs9HvoxzD2sMOxJuFG4JLwtQi4iNqI6YjzSI7IosjdqQdTaqJvRatGC6KYYXExEzJGYscWei3cvHoi1jc2Lvb/EcMnKJdeXqi1NXXp+mdwyzrIzcZi4yLjjcV85gZwqzlg8O35f/CiXxd3Dfc1z4xXzhvnO/CL+YIJzQlHCUKJz4q7E4STXpJKkEQFLUCZ4m+yTXJE8nhKYcjRlMjUytS4NnxaXdk6oKEwRtqdrpq9M7xaZivJEvcsdl+9ePir2Ex/JgDKWZDRlUpHBqFNiJNks6ctyySrP+rQiYsWZlQorhSs7V5ms2rpqMNsr+6fV6NXc1W1rtNdsXNO3lrm2ch20Ln5d23rd9bnrBzZ4bzi2kbgxZeOvORY5RTkfNkVuas7VyN2Q27/Ze3NNnmyeOO/BFqctFT+gfxD80LXVeuverd/zefk3CiwKSgq+buNuu/Gj5Y+lP05uT9jeVWhXeGAHdodwx/2drjuPFSkUZRf171q0q6GYXpxf/GH3st3XS2xKKvYQ90j29Jb6lzbt1du7Y+/XsqSynnL38rp96vu27hvfz9t/54DbgdoKjYqCii8HBQcfVnpXNlQZVJUcwh7KOvTycMThjp8YP1UfUTtScOTbUeHR3mMhx9qr7aurj6sfL6yBayQ1wydiT9w+6XGyqdastrKOVldwCpySnHr1c9zP90/7nW47wzhTe1b/7L56Sn1+A9SwqmG0Mamxtym6qfuc77m2Zqfm+l/Mfznaot1Sfl7pfGErsTW3dfJC9oWxi6KLI5cSL/W3LWt7cjnq8r324PauK35Xrl31unq5g9lx4ZrztZbrjtfP3WDcaLxpd7Oh07az/lfbX+u77LoabtnfarrtcLu5e2F36x3XO5fuety9eo9972ZPQE/3/fD7Dx/EPuh9yHs49Cj10dvHWY8nnmx4inma/0z+Wclz9edVvxn/Vtdr13u+z6Ov80Xoiyf93P7Xv2f8/nUg9yX5Zcmg1mD1kNVQy7DX8O1Xi18NvBa9nhjJ+0Phj31vjN6c/dPtz87RqNGBt+K3k++2vVd9f/SDzYe2saCx5x/TPk6M539S/XTsM+Nzx5fIL4MTK77ivpZ+M/7W/N3v+9PJtMlJEUfMmR4FUIjCCQkAvDuKzAnRAFBuI/PD4pl5elqgmX+AaQL/iWdm7mmxA6AWMVNjEesiAKcQNdiA5Eaep0aiMDcAW1tLdXb2nZ7TpwSL/LEcdJmiHhXeBvAPmZnh/9L3Py2YymoD/mn/BdOgB0umdQWZAAAAimVYSWZNTQAqAAAACAAEARoABQAAAAEAAAA+ARsABQAAAAEAAABGASgAAwAAAAEAAgAAh2kABAAAAAEAAABOAAAAAAAAAJAAAAABAAAAkAAAAAEAA5KGAAcAAAASAAAAeKACAAQAAAABAAAAdqADAAQAAAABAAAAigAAAABBU0NJSQAAAFNjcmVlbnNob3TDlNveAAAACXBIWXMAABYlAAAWJQFJUiTwAAAB1mlUWHRYTUw6Y29tLmFkb2JlLnhtcAAAAAAAPHg6eG1wbWV0YSB4bWxuczp4PSJhZG9iZTpuczptZXRhLyIgeDp4bXB0az0iWE1QIENvcmUgNi4wLjAiPgogICA8cmRmOlJERiB4bWxuczpyZGY9Imh0dHA6Ly93d3cudzMub3JnLzE5OTkvMDIvMjItcmRmLXN5bnRheC1ucyMiPgogICAgICA8cmRmOkRlc2NyaXB0aW9uIHJkZjphYm91dD0iIgogICAgICAgICAgICB4bWxuczpleGlmPSJodHRwOi8vbnMuYWRvYmUuY29tL2V4aWYvMS4wLyI+CiAgICAgICAgIDxleGlmOlBpeGVsWURpbWVuc2lvbj4xMzg8L2V4aWY6UGl4ZWxZRGltZW5zaW9uPgogICAgICAgICA8ZXhpZjpQaXhlbFhEaW1lbnNpb24+MTE4PC9leGlmOlBpeGVsWERpbWVuc2lvbj4KICAgICAgICAgPGV4aWY6VXNlckNvbW1lbnQ+U2NyZWVuc2hvdDwvZXhpZjpVc2VyQ29tbWVudD4KICAgICAgPC9yZGY6RGVzY3JpcHRpb24+CiAgIDwvcmRmOlJERj4KPC94OnhtcG1ldGE+Cqu3s+AAAAAcaURPVAAAAAIAAAAAAAAARQAAACgAAABFAAAARQAACG+DJ1ndAAAIO0lEQVR4Aeyc3W9URRTATz+22y1ddttCCxbYUijlQ7DwoJFgSIiaaPx+8E0Tffdv8Mk3n/wHTPTNGCX6YGKUBAV9gwpKaYHSpTS0pR9b+t3th+dMOaS52Xt35t65e+fe3klgej/23pnzmzNz5pyzW3X2s4sbEJfISaAqBhs5pqJDMdhocoUYbAw2ohKIaLdijY3BRlQCEe1WrLEx2IhKIKLdiqTG1lRXQaK2GqimkqyrgWxDHdRjTaWqCq/XVEP10+viZIn/1tc3oLi2Dhsbmz6cpZU1KCyswDLWVNbo+uq6qEt8PNBTkQRLAJvSSUglNkG2NqXg+YPN0JZNCWHXIfQ0gk4kqh2FXyyuwyyCXEF4VMYKi/Dv/SkYn14Ux4vFNZieXQYCblpRAsua0FBfKzQglax1HPk84heXV8VIX1ha9WWEW9tFUAlmA7aPCv19sqNZ1HTMYOvKgF2xgCWgN4e2gCUNnluGhUXsF2q23/2ktssWJbCsCbnWRqEB+3ftcBz5POKHJ+bFSM+Pz/kywq3tyrWloWVn8hnYOtTczI4ETsWboKtxKq6tqZKailfXNmD92VS8CjPzRVhBTaVC14qrawh0TWi23/2UhUr3SYPdgVrakq6HQ+074eiBrNCAfbs3wdqNfB7xDx/Pi5F++0EB7o08gfGZRU+ayxqabkiINjUjxGxjEnJtjVLtUhGQzL3Wfg6NzorpmqZpWpP9mqmc2iYNtnNPGnL47/ypvXBkf1ZoQEMy4TjyaSqmUb2wXBQjfWC4AJdvPILbWHtZm1hDu57LwNkTbQJoorYGaIkgzSzXLieBuLlm7SdNz5NPliE/NuvrTOXUVmmwb750QAjwlZN7Re30ULtr+bE5+PPmI7h+ZwIGRmZgCjsvU1hDeW3nNZQG2NnjbUAzh0nFBA2WBvvFpy9CU2Mdam2jmPbcCJJGcn50Dq7dnYBL10ZgEKcsmcIayms7r6EtO+vFWkpGnEnFBA2WBvv9569JW5N2QqZtAU3BpLE/XrkPt3DNdSqsqa2ZlNLa7vTMIK5ZNViXreHUF2mwv3/5Fshak3YvVAXLmnoUp1yVtd3u/UGdt2qwLlvDqT/SYK9+9a7Tc6SuyYKltbSVptlMvdh7mrqWSnW6xE20S/jr1hjcuDepZZdQ4hXy251Kgu3AffI5tL67UVNpP2rqWlpKoDLnyJFBVnNfflrLLqHUO43SWNbU4x1NcKGnHbdVGeEAsdsnl+pQmM75qblGgWVN7elsgYN709CM07GMhyhMMLe21U/NNQIsW78nck3w3rmD8EJnc6Q1dStc+tsPzTUCLFu/PYda4O2Xc3DsQFOkNdUK1g/NDRRs/8MZETflfeopBKvDk8TbCzvnvVWwboME1ud4PWbNvT4wAX3D0/C4sOT6kYGCJc8TuQd5n3oMp2Kygr16ktghwHFUa7jNKi23YT3rc7wes+aSA+fi1SHhU3f7zEDBjmLg+kh7Bk537QI3PmjWTA4ycDht4el2YglrKtYAuVVYdoH4VLIGZ5TKBxf60SP309956EXA40+WRHTI2uZyx4GCJYfFhTPtcObwLlc+aNZMmsK2BsAJLGkpaQAVes/WlBarUOxSZxpSmFAQQDiQgiP9DwvQe3cSrmA0bAjj2KolELA0Iv+4OYo5SeBqv8pT1iSO5q3hMd0pK2zUcfCBEwuyGAzZjWk2jSnnsKUqDL6fB+w/g1NwEX3q/6EjQzW3KhCwBGQCDYMkZja42a+ykUE+V4LJAW3dSWa8DeNwIacCdeAe+9zJPWIZodwp3Q4UXmL6HkzDzzQlo+tRNX5dUbA8Etmokc094o7yWloJJzprT6maHSl+uzzdxq+pzRUFy4B4GyIbLeIBwWtpJcJepYDyOXZ9+h2kcBu/rjhYFoxszQNhCqfu+49m4TYaFJT+6VdSnGy7+D5eg3Vv1/j5PKBp+/Pd5UGx1vK1cnVFNbZcY6zXuWMDwzNwqXcESFODSg6zto2OeQ3W7WDhd/HAJrDf/DoAvYOTfKlsbSRY7hBrKnXIrdlfVgIabmDN9cslSnHbb3+7A9cQsKx1bCRYq6beGpp2vVHXwK3sI1hz/Qpi9OUL8ANue65jrpisdWwkWC9GQ1kKPt7A1nLP4Rbo3pfFsGNSy9vcWMdGgnXTES0S9PgQtpZ70EX6DkapujGxXkdxM9CNAsseJT9TRnQIutwzKFHg49ePCB+4jkQBXppUrGOjwLJHyc8kr3JQdFyntfbD850CrA7PFBuTKtaxEWC54V5caDqA6HoGfR3GS3DDrh0q1rERYHmq8eL0thNGEOfJaPISjrRrs4p1bARYN8aBXedNOO/XvvYOZpxQUICmZIoxz+P3je2KEWDDagXbCdWvfW3owKpMMXbCNPH8cdzuvI9Zl5QhQilApMleiooCGKGxKkaBF8FU+rO6waosWYGCZWtYxYyvNBwv79NtHct+94naHChYtoZVNt5eBF3pz+q2jkMDVmVqqTQUHe+j3+2gnyCiNZYS4bv2ZTw9NjRgVYwBTxIJ6MPbFmxUrWEeR7rBqixdga6xUbWG/QKrYmwGAlalgSykMNbsgTqNCfEf4H72WE5PGI8yKb7+pV/8SIudXAIBqzKl2DU8DOfZA3UGjaePXu0C+tKZjmIs2Khbw1Z49BWWT97oBgKsoxgLNurWsBXetgGr4sy2CimMxzHYMFKTaHMMVkJIYbwlBhtGahJtjsFKCCmMt8Rgw0hNos3bBmzUfcRW1tsGbNR9xNsWrIznxCqcMB9vG42NwXobpjLyCyQIINMwb10369OxxprFQ1trggD7PwAAAP//uaBI7AAAA3xJREFU7d3NSxRxHAbwZ9992c31JVNMt6xMKKM8FAQhBAVF0K1jUPf+hk7dOvUPBB2jQ7cgKJDoapEFZmVtJpqZrrq+rLuuzW7tRdgv464s8+SzIIt+Z4Znn8/Mzs/T+M7feboFF6/XD6672MrdJiOf5vDw2UeMfJ5ztwP5VoNH23DrynEMHmvblU/ipj+fYHela/MggjXr4R0KltfOTC5Ysx7eoWB57czkgjXr4R0KltfOTC5Ysx7eoWB57czkgjXr4R0KltfOTC5Ysx7eoWB57czkgjXr4R0KltfOTC5Ysx7eoWB57czkgjXr4R0KltfOTC5Ysx7eoWB57czkgjXr4R0KltfOTC5Ysx7eoWB57czkgjXr4R0KltfOTC5Ysx7eoWB57czkgjXr4R0KltfOTC5Ysx7eoWB57czkgjXr4R0KltfOTC5Ysx7eoWB57czkgjXr4R0KltfOTC5Ysx7eoWB57czkgjXr4R0KltfOTC5Ysx7eoWB57czkgjXr4R0KltfOTC5Ysx7eoWB57czkgjXr4R0KltfOTC5Ysx7eoWB57czknoZ9cf8a/D4fggEf/H6f+UHKDfP5LeQ2t/DGeYrHo+fjeDvxu9ym/9XfT/e24ublPpxxnuJRq/5cP8Xjyd1LCAf9iDWEEQ75Kyp+I5vH8upGEfbx8AQ+JBcqOg7bTicSzbgx1FuErVV/rmHv3T6L5mgYiY4o4tFIRd2m0hkkZ9LF5+28HJnCxMxyRcdh26m3I4aLg10ofCXXqj/XsFfP9SBxIIoLA53F90rKTf5M49XodPGKHZ9axPxSppLD0O3Tsi+Cvq6m4hVbq/5cwxbOuoTzM3SqE33dcTQ1htAQCZn3jNI9dTWTxeJKFuOTKQy/m8aY876wnMH6xiYdUiWB68IBNMci6Hd6q1V/rmEb64JojdXhSNc+9PfEMXCoBQf3N5r33NI99cevFYx+m8fY9xS+TC1hdnEN2Vwem85iai+8As5iM+SsT9qb6mvWn2vYAkDpzEu0R3HycAu62/7ChsosprL/FkuTcyt4/3Ueydn0nrpSt5+0texvR7ClM6/BuXrjzuq4PhJEKOAv++9P4as4u5nHWiaHlLMaXl3P7akrdTtsLfvbEez2oPrduw0I1rs2VSUTbFX1eXdnwXrXpqpkgq2qPu/uLFjv2lSVTLBV1efdnf8A7D/DuQRERtEAAAAASUVORK5CYII=;imageBackground=default;" vertex="1" parent="1">
          <mxGeometry x="145" y="216" width="28.22" height="33" as="geometry" />
        </mxCell>
        <mxCell id="zXSD_kcFRXYyIfpvOB7h-87" value="" style="shape=image;verticalLabelPosition=bottom;labelBackgroundColor=default;verticalAlign=top;aspect=fixed;imageAspect=0;image=data:image/png,iVBORw0KGgoAAAANSUhEUgAAAEkAAABJCAYAAABxcwvcAAAAAXNSR0IArs4c6QAAAGJlWElmTU0AKgAAAAgAAYdpAAQAAAABAAAAGgAAAAAABJKGAAcAAAASAAAAUKABAAMAAAABAAEAAKACAAQAAAABAAAASaADAAQAAAABAAAASQAAAABBU0NJSQAAAFNjcmVlbnNob3Rq9XD7AAAB1GlUWHRYTUw6Y29tLmFkb2JlLnhtcAAAAAAAPHg6eG1wbWV0YSB4bWxuczp4PSJhZG9iZTpuczptZXRhLyIgeDp4bXB0az0iWE1QIENvcmUgNi4wLjAiPgogICA8cmRmOlJERiB4bWxuczpyZGY9Imh0dHA6Ly93d3cudzMub3JnLzE5OTkvMDIvMjItcmRmLXN5bnRheC1ucyMiPgogICAgICA8cmRmOkRlc2NyaXB0aW9uIHJkZjphYm91dD0iIgogICAgICAgICAgICB4bWxuczpleGlmPSJodHRwOi8vbnMuYWRvYmUuY29tL2V4aWYvMS4wLyI+CiAgICAgICAgIDxleGlmOlBpeGVsWURpbWVuc2lvbj43MzwvZXhpZjpQaXhlbFlEaW1lbnNpb24+CiAgICAgICAgIDxleGlmOlBpeGVsWERpbWVuc2lvbj43MzwvZXhpZjpQaXhlbFhEaW1lbnNpb24+CiAgICAgICAgIDxleGlmOlVzZXJDb21tZW50PlNjcmVlbnNob3Q8L2V4aWY6VXNlckNvbW1lbnQ+CiAgICAgIDwvcmRmOkRlc2NyaXB0aW9uPgogICA8L3JkZjpSREY+CjwveDp4bXBtZXRhPgqZeXZ/AAAR/ElEQVR4Ae2ce5yOZfrALzmMMUYYM4WsDClmxI+cdqWcNvQzftmk0W4iYUmttRLjl2qNikVLNiS7sRVN9DEq2XJMmJxpEGPC5JBhyJgZx2bf7zXdj+d95z2ad2b6w/X5vHM/z31+ruc639czZfIdIDfAKwZu8tp6o1ExcANJfhDCDSTdQJIfGPCjS6lS0rc7D0vGwR/82KYIfS/kXvKrb7A7lRqSTh0/K0OazZDHG0z2+fBrlm2T3zf7m4yNnxPs5/drvnJ+9SqGTpVvriR174mQ6rXCpWKlCl5XqPmrCImUynJ7zC1e+xVXY5lfkp2UfTZXxvebJxdzL8urSYMlvGol67mvXr0qZcuWte5L8iLo7MbDTHtukaxI2lToOWAxb7AiKUXS1h+XjG2n5KN5a5y62hHEGsgoSldY4hi3++uDrtVFug86klK3fCfJkzfLq4986LQxENe71gT5c883nOrtN01aRUt21kX9NftNQ3uT0/UzXafL081mCqUdUlalyownP5bRrefaq4t8HXSZdHfrBtJ/Ske5s1lda3O88dVv75KohuGyPfmQwFaGlXiwrJPnpENcC7mzaV1JPvOyjjPtaLRNK7+R+o1rS536BTJpzxdHdS5K5jZU1rTNHdJhYIy07HSXtXZQLpBJJQGfvr8hv5s8nz8ncam1HHWdZVR+j+pj8+NjXrbqzUVezsX8uMgEbb9fRubv23FIm1Ynb80f1H5yPmVJQNApydOb6/ZoW+Fnh+1fHpCq0ZWkfGhZyUzNFmRWjZpVrS77dx+Ry5lXpWpMJQmpWl7WfbJTqe3+Hs2FX0lB0GQSLOROYH741mqZOGy+ClrXh/p111g5lX5ezqbmSsPONS0EGaOxYZNfSbnqN0nOyYvar03nGNcpFLEoCbtRCgsuX7hRYOWgQDDI9dyZHGUJWMfOTovfXq0s9nD0eC3p5wpH0k7kO2SOVlPCdrBY4tB3tI4xzEM/V8g8dkbnhV1Z2/R5Z8onWg+L7kpJcx0W8H3AlITqHXzf38SxuPWSjh3OVI0E6+xYfU39fp+WKWHRIcpOl+WqnD2drYJ2+tgkGdZlmpoKkTWrSeuOMUoJ4zq9I1cv/yRhUSGSkrRf2xHgvQbcL8cOn5Ixj87Wn1n7my3pSmmVa1aUSpEVZM+273RPFy9cEdYDHBjR0vyBwvgFAgHLJOTC/nUn5OP5GwRNBqCV0Gg71qbLiKm9rfUferK9fPbKNt3wvQMbqXYCOd/vPC0Vq5XXcl9Khsxe+xfZvHavPmjZ8gXvDUSt+dduGTGpj7INCOQlAM+2mSWzdgyX2Hui5UrWT3JeLkhe1mVp3Lyetg8Y/aCEVCwnt9Spbu2RBmTeC/HvaZ+W9zWy2FsrvPwJ2OJGXny6cIN06dXKUuNe5tcmI5CRGwMaTJHImHBrCPJodtqflFISe78nUAUARVW9NUwRCAWlbz8hBoGX867KvX1i5JmJvfXBoSgQZhf61gIuF/Onfqo1j/+5u0uL59uAKQk/C/J3BVigWo1wy5ahHaQc3HNU8L14gNBKIa7DLLaA5Rq0qym7k48oRZ3LvCDjFvxe+4eGV5CfruQ7kFRouFSLCpfQsBA5nnHaLyQFghyzWsCUZAbaS6zofclHJc/xyOOT+6p6RuNgdVeJrCi5mZek+6gWyjpouvX/2KuyKif9orQZ2FBeeKu/NZ0xLu3sgBzEwjbsdjY9V94/Nlbyci/K4Aavq1yC7e6Kqy1Tlz6tczGPoczXlg5yennWYn5eFBlJsFJ8rYnKQrBBk4519aG7lHnOia2wg+aljdTNgsBvt2fInf9TRx7o3cavrYKoFYu+ltDKIdK1T2udBzZM23xcFQOTnD9+QYbN6qFzdi8zRsIbVlQKrBNbw0Ie4uLypSt+iwrmDYjdsD/GPTZXjh/Mkr8uHKAbhY2QMdgyUExsQj238aHQ6uVV7uBagBh/kcMmAZQDPzsgp24qV8aqwuD8ISNL77GvXAH2h/Kg+FdX9let6trH3X3hmdz1+rnuy093ys5Fh+TM4RxZMHWF1XP2+pHyh8ROMmFlP5VXyK3o9lECZQEIYdjBaB9rYBEvfvO7xnLhzGVrFtjQOMaJywdIaJUKEhV9s4ydVSDbvtlcYDIgAlK+2GON83kRiGVljDeMNHd+E4afMei4HhE3w/LLjN8VyHq++uLbvTRwnmVQJs1ZpUOod2e4Uj+081Q1WHkWfwFjyyPs3HQg/7MPNjq1s5C7BbC0sXpxYh9p+KK1SfoXN4CQK1eu6DIgin3wAyHukOW6H8aal+vaxr1Xdnuyzd9l3CPvOvldsBJyCF/NAOr/g4T1KptwRlHXE4cs0GZfoVkzR1FKrHLCJfiOswct130gJ0+m/yjTRi3yOTVytleDCUIs3R14RdLwKd2kx8Dm0iD2NmsswhuruVe1F7WkYf+uDLVtTCe8emRXScOBbwrvI3XdEd0GWg1D8q2JyU4vmMbou2tqn4hbbtbS9Y9X7ebO8EJ4E17lTVGCfSKKuZnL1ediAQR20z63u65V7Pe1b4/U0IpEFSzFPhq0LEDApGfflS1L0qRM2TKyN+WIZRLQ86mxcfrztEGvlORuUPWoKuonobHwl7hHNT+S2E5jQrgZUNLIaX3cDS/WOqz2dkMb6T6wmYChif+nZfqOExJao4K+SAzfgMCdoPJVR+gCzUVpB4RkcWgx+xr+XCOEHXLSqauJgiLQjRakgzsl5DTQcePT4sainjjk31LjtioyevpjVjzZvAms5xX/3iIhoeXliTFdCxl8pl9plAT8tq7cL41a1RFEB8+CK2Ni5bhTxNzjRrVUl8nTHn0iidjPyrk7ldefS+7tFDYlLjM1/iOp3jBMNRrGnHE9PC1YUvW4LKmfH1EWw+Cs3/ZWJzmEdo6r9oIeKOSduiTJpxM9bs2nTLq7bX3BI8eU58TCDoumrFEEEcJADuGAfrYoxd6lVK6hGLQrYRf2RmwKOWQP8WI29E1sL9n7L8gfZ/6v13161W6MJOBeP622VI0IL+QUhlWtKHnnriUxXMq+osEuryv+ghp9aTWzVZ+UREd4GMzzJuBjSBlyHTyhh5zcn60qHwc3/2q+PDTgfoaUKmDsYoKg4TADKAmj8BzsmzCKOWzwZ6NuZRJy6MtFqfLm+j85BbKeaPmK5DhOWAETfiCEQUiXcGn3+F879fdnA8XZB8G95+tD0rjV7fLwUx1UcBPWISJBxGDB7rFOyRrYfAd2fy+Ef82BJ/tzy24g6FD6aTl25JTTQ4MgE5rIOpatz+cuhFGcDx7I3CBGnro2Yt3yHeoZIKOgLodv6hQueSnuPUe83BEIdBxdNWlV3xroFklQEAgygX7Te9jrcTL1icV6mzD/MS2N9mPhfuO7BBwnMnMHu4St8Nv2bfxe7mp7m4yY3EdiWtRTJcRaGML1GzkrIqKqRw6ccEIQfd2yGw2eAN8NgBzxhT5M/Eq1CBZ41v4ceWPHsF+ErdQ39q8qj6B8HO6w6iHyr81j1Anevv5b6dCzhWUveXpWU++X4Eal8mYAkGP49ZPZm9UO0XqHqsUEQD6VNqBgjHtkzJOTW86p4oGNMCwR4vRDbvF83sAnktAEpMxgeCGk7VD7rgh9S6bu4tnLEnFrFXNbaiWnMuZw0myCe/tpjUYzWk2XBQkr5Y/tXjfd3JY+kbRr00E98Qh3kGvq1oITUjMTB5GceKD+EYTVoytLz373muZSKzEBeoxpqdTE3qAq7qm/HvApkyBFfDd8s/Hz+qvKJMhGDOmB3q11zQ2f71JjEy/8lwRwQcbBkw7WilIthm1kDwLCbquXbvUpn3wiyfWhWfj5Tv9U6iItZknOS7owG/j43a8kNztPWneKKTXhzT7WfrJNcrIvSPtuzSzqwc+cEZ8s5SPLyhsbh/sttHn+gJFEZO8/b29TXw0ynrZjiNS9o6b8oclEwS2pEF5O02QCObJxfRHXew+CBrR6TVmf4BpHXEbbmnNAE4h7ZeFgv5fxKpMgR352aP9gU0UCMoh4NsYkuQEgCFsJR5e0v3kvLbcPK5Fr9oEMwrFlL0QnZr+wTNfGygZB7DM8IrTQfoxpU6jBUeERSbwVEtH52VUkSEk6Nk4SkvrKvK9H65znfzYP7Atkn86z35bINfuAku1gPIPJqwbpGVyLnvVleOLD9i7y8lP/lM7lRhciCNPJI5IQcA3b3yo1Y24WEtPtgJZASBshiGEGaWNQ8iP80OvZdvYhJXKNLCRzjj0AGLcd45vqNS935ucj9AgeZ90OPxw6q+7ImVMFrpa9Ta9dQ5W+7jmjchfyJGz7fJ9ZmvBpwqP0I3vN25mWr/V8tbMfQrVmDdbrd89EzZYj480V2CdnieacjnbOBs141/7cez2cdB3AZKT2cYLrugFXxJmYsknVM4hznbMo9zyYyc4ldj111EKv09GfvXOA6quvfSKP7FaI5BwVhw8cV3Ku4TAav1q6R7sgu/CTCEEQSkEAUkdYl2MnhCglh4Z22eZu/kDrXh3ynsogs8bnk3dYaYqofNIWTdKWfW6SKbLPFLhZ9npP1wEhCb5+aExr1WDDJhUc1ThyAlTlgogshzzYsnafnP/Rcawkzt+BcH/65I+e9nFd9aQVok0NYAMd/S5TBfCk+MVy9oQjsWPkGutkFn8NT7/HyNYaFTDjfJXOqsBXb0c7KXjPTLzWsXa9SE0qJYjFJw9VIyqrAceGEaA4mJS8PU6CoaYpIxZpXhG5TIQwXAXptdmvXUERq97fKYSMHx/zW1UcjTvWccpPQnlEN6olCOBQXpNjbVR/VuY5a6LryQEP2Ji0VrNdENEjcZ28bOOaYF+N7jlH/SYycCcs6a82Vc+occoiUAB2C6kxaB2AMR/OXqOs8EB8K2suPPV5g/6jSVn0I2Q8P22UukJ/6fkPyVh3mmoZMOe3GoHkGrW+ae5+qdc5SqYsHWZpYtoChaAgyduiyCdjKpDQkNBtnsopM4YMOFL7AOSaPeUvIflRPYhAtsA6UAYAcnsMa6UhD+4J45SvUM5ahzrAvnZBzfX9DUgmsQRvtWWZ4YXCJu6WhzLefPEjTVJAoMOKRATtgKwiOdShDTW0CoXxw1pOmr5Wu8JiBM4MYDVX/tnWwZfc+uW+Qgiib/mQa/KKe5AGhfG5VyAQMJIIrAPpe49paf6gTXrXf9FpA0+3nSEbFu+VZVNSZOb/L1GnssPQWCuEARXBIiaIZ+YyZUilgnTb/gndhINPXA5+WNWEZJBT5HdPikvSExwzDrkHW3ctVxCJNPV8q7Js7jb93MvU+VMGzG68DRazx7+p6xU2XmUG8mJ5ToFk7xE2TtU/7GFOV9iUCWGQjYLGBHiwx2u9plm5eu/QlCaTl3uoMmXVHgkLr6iffcHCmB5GOeBsm4gER+8zhyzTDJJOA5uqsmEOACq6I7ZOoTh2QauHv3ajqSjXWNsYaiRSGMDgxMjDeCNrzhWwlBlnvkfB2Pv7mA80xc98b8Ic1Lkaq8xln5+0QAMkbphvVIKRwBEwJXnAtVbztrFF7ACF4PsZ4W3aELYkgiGoiW7aNZPpQ1jmo4SNGgPiM4tF3443TVZJANDhCVia0GpwXCAHPbGyvZ+v64DtJG8TuiKIvvaQqV3bXMwrOB5HSGMiHPvuVKGpSbYiFxutBjuBWGNT8UL4eMfO9q4TBANBzBmw4HbdiL/3yKFuYWNVoPKwII+vBBDeaKu+w7sUmqrPsx3UJqJP1zHNLQShJAjhIAeZq9jB8HGwSmTJPfK0U6IUc/P9mvnuzZ7e7Jodi1zCOTZZu7S7yiPkD3Mh74zsYg1kHA6vvY76okLQKenooUx9sRkHTjq94N8Nuk84cqrTPkLadIq12gz7UAFVQCFvDvvY+m8StNtZln79n++uh42YE8bCp37TF6l6Qrty8VZugwZBFdxmV5zP4acFKhMQ8pzxkbF/W9MIy10x8/oqEdRfLNks9z3YvJCi8DXWa3tRSbEo42EPw1ZmHkwFTAJXFguGKjdrBFoGFHQLdHJv/ZFLyC7sJF+AnURf10RWX+OC1R50meSVbG2NfCjo+EzQSjS3NRW6rFWvhuPfuThOPyJL5wi9WGRSoaf0UBGIsWe3sTxMV2zVpYqkYnuqIE9cauwW5Oco1uluIMkP9P4XAM/ZmEcPkp0AAAAASUVORK5CYII=;" vertex="1" parent="1">
          <mxGeometry x="181" y="213.5" width="36" height="36" as="geometry" />
        </mxCell>
        <mxCell id="zXSD_kcFRXYyIfpvOB7h-88" value="" style="shape=image;verticalLabelPosition=bottom;labelBackgroundColor=default;verticalAlign=top;aspect=fixed;imageAspect=0;image=data:image/png,iVBORw0KGgoAAAANSUhEUgAAAJMAAACSCAYAAABBufiwAAAAAXNSR0IArs4c6QAAAGJlWElmTU0AKgAAAAgAAYdpAAQAAAABAAAAGgAAAAAABJKGAAcAAAASAAAAUKABAAMAAAABAAEAAKACAAQAAAABAAAAk6ADAAQAAAABAAAAkgAAAABBU0NJSQAAAFNjcmVlbnNob3QkrlSVAAAB1mlUWHRYTUw6Y29tLmFkb2JlLnhtcAAAAAAAPHg6eG1wbWV0YSB4bWxuczp4PSJhZG9iZTpuczptZXRhLyIgeDp4bXB0az0iWE1QIENvcmUgNi4wLjAiPgogICA8cmRmOlJERiB4bWxuczpyZGY9Imh0dHA6Ly93d3cudzMub3JnLzE5OTkvMDIvMjItcmRmLXN5bnRheC1ucyMiPgogICAgICA8cmRmOkRlc2NyaXB0aW9uIHJkZjphYm91dD0iIgogICAgICAgICAgICB4bWxuczpleGlmPSJodHRwOi8vbnMuYWRvYmUuY29tL2V4aWYvMS4wLyI+CiAgICAgICAgIDxleGlmOlBpeGVsWURpbWVuc2lvbj4xNDY8L2V4aWY6UGl4ZWxZRGltZW5zaW9uPgogICAgICAgICA8ZXhpZjpQaXhlbFhEaW1lbnNpb24+MTQ3PC9leGlmOlBpeGVsWERpbWVuc2lvbj4KICAgICAgICAgPGV4aWY6VXNlckNvbW1lbnQ+U2NyZWVuc2hvdDwvZXhpZjpVc2VyQ29tbWVudD4KICAgICAgPC9yZGY6RGVzY3JpcHRpb24+CiAgIDwvcmRmOlJERj4KPC94OnhtcG1ldGE+CtfCtOYAADAgSURBVHgB7Z0HmFVFsscLGHKSMGRwyKMgIIKIoiRRVAyrK4Y1LuKKq/hMa1jDKorpoQ/DGlizq2tYFEVBJYOigGSQHCWOxCHH17++U4e+h3vvpBtmmFvfd+ecOaFPd/W/q6qrq7uLLVy48LDEgDZv3iKr166TzB07ZO/u3bJn//4YfCWZZE44ULlSJalYoYLUrF5NatWqmZNX8vRMscOG8vSm76X16zfImEk/ytgff5Lvp063d8uULGmPKSWK+55O/htPDhw4eMh+jga9e99+6dy6pZzX9Sw549R20qxxo6hlJd9g+vq7UfLuZ1/IlF8XSoUypaVc6dKSUqJE1DKYTCj6HDhw8KDs2rtXduzZK3WqVpG+V/5Rbryqd74/lGcwfT58hDw8+BUB9ZXKlQ0CEJnlt+/AAZtBbRn5zm0ygTxxQDVDqZQUW09uY3eBdcefrpA7b7kpT9/gpVyDadHSZdLvgUdlze+bpGrFCt6H3Uw1rl1LOhhR2rRRQzmuYkWpVL6clC5b1ns2eRI/Dqi9unHTZlm7br3MWrAorBbZvmuXFQ6D7r9LLjjn7FxnMldgeuG1f8nTb38gx6dW8yQRINq4bbucekJzueSc7tLu5NZSvUoVLyMHzf0kFQwOlMgyP/bt2yeTp02Xb8aMs/Zt1QrlpUypUl4m15rOU4/2bWXI889413JykmMw9b75Npm9ZJknjRREfPT63pfJic2aCsBJgicnbE/8MwCL3+9btsinw4bLkM+/khqVK3lCYo8BHPTN26/nuAeYLZjo4ve68S9C4opexGFNI30eu+v2JIgSj4t85UBBhRtn0GtDZMr8hUECY2XGJpn44Vs56vVFBBNA6nldwCBTow0R2PcPF8rN115tC5GURPmqywLzsoJqpFF9Dw7+p+3laeaWrt+YI0BFBFP33tfKlsxMTyIBpBfuu0s6n36aoHeTdOxxoJSxneYvWiz9HxsY1POj7qcO/UhSU6uHLXRYMPW96z75xfiOVLWR2JuPPyQnt26VBFJYdh4bN5BSW7Zvl2vuuNcWCK2Ejczxx2GfhC1kSNf0h599LhNnzkkCKSzbju0bmC5VzBDMB4Ofs85NSguQsJvv+Ps/whb+KDBlZPwudz432DPCNmfukEdv7ZuUSGFZeGzeUEC9NuARQStBaKlhE36QST9NCVnoo8D04FPPSd2qx9mHQeK5HU+Vi8/tkVRtIdl3bF8EULh8ECYIFYjhF+ypUBQEpllz51snltpJvPDA7f2SQArFuSJyjY4WwqRVk0bWbqLYDJO9/dHRtlMQmPAz4LiCQOI9fa4XrPskFW0OIKH+3v9WO9IBJyqVKyfPDHnnKKZ4YGLMbcKsudbQwnKva2JfenbrUqikkvpKjipl8kK+OACY6tepLRefdYY1wjUxIkZc8sD01YjvhDEaiPCEPr0vLRRDIwAI6cmP7uzwUWNk+86dbhmT51HgAID6swlT2bwjwFsiRV5854OglFP0v7fN+AziCyJkpFun0wssmFwJhINt6szZMnLCJFm4eo3N/0ATlNej85kFNv82k4Xsj0onBvRXmKEXXAXwm6BIjd60kgkVR6AURA/u0u6dC5ytpBKIPM6eO09efed9O9Rz04P/kPdNQ9iyPdP2NLD5iPbk+SRFlwMAisgQNBdEMCTRB0pWMk2bMcve4CKWenvj5ebFRJIrfRjZnme88eMm/yzfTg74OMqVLmVbB+KWwtFSypooz93mHIdrcrgnNrXXIr25FTxoMYLtqJM/9DrPfsyCae7CRfYGV5BQLYwoSwSYXAAxij19zlwZ+8Nk2zGgFZB5wEMHAdDjwmjf8kRpY35NG6bJeCOR/vv9GFuwX2bPkVNPbpOQctgMHIN/VNXha4Lg/+RZc7ySWjD9nNWL4ypGOMFt8WrZLoDU/hk+ZrwsNVGBGlOO6gJAu/buk+Nr1ZBTWpwgLZs3kwb16tqZL+SbiEIcbB+ZjgRS64epv0jHdqcUajCFUtWhrlF+iDqj81GpfKAjFbga/b804InTZ1owERi5ZcceqVKhjFgwUXGgjQpr2bhh9L/uS1EBROGnzJhpK37kpMkWLKq+jgBor5zYME06tGopjdKOl1TjsgA4kB7tP+YP94izyjTxVqR3T7+b9VZCj34A+P/3Z05BsXv3Hm+q2Padu2RrZqZsNZW3y5Rvp+FBhgnF3WZ6V5u2brNh1Mw+QRiM+vfbMRUGafXrWTBpvjM2rDVgaiQpoEoJMNUz8dvRJgUP6WL/YKPplCimQymAOOokhFOMqkXStGre1MaPK3D0GCqP3CP2XIGJpGtupvIkQmVr/pAUCoptxnWxz0w1ckFBbPYuk29A8duGjdZZrHMMdaoYabmTAjRt7EQljccncDGWBC+PM5pCzQzySPmglMP7Aq1cM1A+yoH/AGmtYRL2z4ixE4KC2VX6kLEqZuKBTkJoYCYKMgFBgaNHzWOkI5MYvhw30QIUl4GGE0d6Jxb3KPekn6fKLQOekSpmQgWkgOAc+0/JBQU2YSUJTL6gcbsEn7Sx6XXsloom/QMHDtrOB26dWJsoTBJxiYm20JESuXejeA5T/zbwWVlpovVglAJo+67ddryndXozadigfpD9w+dzAyA3uwBRp/RgexGfTh4SIZ2YlQOQkBoAQ8HhgoLKRyLTmFJSSkhNY26UNgApZxpTecMvGnc503NCGkBUZKlSJUWlls76+fSrb6wxjFSLh93k8lzPYw4mKvHKC8+XQW+9Z7+ZZtzy2D/pzZoI05YVNHrUjGV3hGmLlq2QZo3SPMbyDsxFRc5atMTaEfTwsLXq1KwR5HtScOkxu+/l5X711FT7GiBqbcqLlAQUpY1qKFumTEhQ6Hdyyg99DuDxHVU7xCPFsmyaT/cYczDxsbYntbQuB2b71jZhnx3atbUgUka4GQp17qo87vP/wFf/ZXt8TBzErlIiTSqNKFEkgk4UBXzN69eV9IZpggGZVq+uNdibGKC5g9luBbjnmn5ejlRyarWq0r5NK6/x+NPJKS/87+n/rnli1Y5pPPGmmIOJCmGQkImZ9LLoUl50dtccl3PmvF/l59lz5fo/XuJJIBiPfbXBGPMrVv92VCUBLlQJ9gTONSoTOwQvOd/nx31UDCBD9aanNZDmxt6qY/KJqkSq5EeaUe6yZcvY9FHvO41azy9gIjGNsirF8jv6jVDHmINJP9qrW2c77EElrjLjOVSYS37pwz2ufWfUFPYWKs2VQPiZMLSnmhisy40adYn32hpALVixyl4GKNASM5akQwHYVaVM6aloiGfnLl3ugcxeNH/wa7nSDJXJaiKhpJlfkuHvUduGHluoMup38nssnmXQY+TTQBJBcQETTEbEv/7JUGtsLl62/CgwvfvJf21gHrNfMFwhWhgOyjUmlJhuvqsmcFgCCLrCq35bIzWNGlHiPVwcCo6eXc6yBr6mucF0xzeY6e0Zm/httuDO2LLV6ympq4Lnw0kz/HItjE8OdUkHgu/XN0fXYQjgSAui6x+KIgEMUCgY9d3ZCxfLIdMgsTnde9pd57ltRgInguIGJuwYrSQ87ud37+qJfctQ48DE471sxUppYwCkpBIIg9pPGNqT58yT5atWB4GJ9AAJXW4kYeVKFb1vkQYVHwBfwIfFNQCojsHNAMw4ctcZEOP7oedJi3elGaqTPGGbqcpcuCFDNo4bEWT40ktDvW/L6j7zLSUkNMNFAL+7mT6mRD7ufOZ5+y8zgpQol44OEErrSneMeqW9BoSJ6MHGBUxayJ6dOlqHIrZOhpEMrgRqbQYQp5tWN2vBQs9A5z2VQKgnVwJR+QAUMLEYA3P5uKZERUEY/W6vUe/r0X2H/PCjkgA0lQfxTChphsSE1C47p3WLoyqx2nGVLZgyDUD8hDebGbSQbVBZ+ScPNCxsOj+RHvzzE71DCMDTGBJBcQMTqu6M9qfI0NHjrYRCbZ1mFrlQwhaBAJRbwVwLJ4FwC8Dw+ctXBL3D+6gtJBOuiLySm49Q0ox0aRT0GKlEbCs/Vc4KOCS0x02P51BN1sYxXvFQpPaPq87KGB8TBBBdyYTvSWnTtm16GtejF2kZ668CplNanWQ/QyUjTbTlc1HH1ThXqcI5FYAEgvzvIHEwkCH3HWwNVA+EK8JfifZGPv6Qnv527wkMJZAcLgc/4RJAJWp+/Pf5P5QKRKJCDL+4hEMTwm5yyQUcPcdEUNzAROEwSM9sEwAUK6owVqVE5bRs2tj+i4HuUiQJhIGOdJppenVKjHdBVGINxzDX+y6I9VpejxjySCXAgjHu79G5/h9sIZfUzmEoxCXyVzEr6tUFKzzCMw4h6VziHV21b8uxLpkoOIzuamwb7B+M8QU+o5q4JAgD3a1wVwLRm3GJsTikUwNjxCphM1DBEH4jl74cNVYeff4l8aejz7jf1WuRjozgQwAa6eonhkKUXGBwTe0cAvr8xNAKhDHtEp5uiKgBP1UxHQ1oQ9akSf/9WP8fV8kEmFgMjAC8gKpbGAQatQHUQNfC0yKRQLyHreUS7zzc/9agHqDaDEgLd1ASoNBqWfXOT4CrzyNPCC4KP6D8EkXf5bkVxi1BWVCteNNdycQ5PilVcX5gqJ0Typ6qXOHIqnz6PY4q6UKpMn0Hd0YiKK5gooAE3hGUDvmNbSqH2CUIF4FLuAhuv+IyOb9bF/eyPQdsSqTxm+nWU8GQ9hj1/pqNv1ujl0p2CQljg/HM+2569OIY+b/32ReOAhnvq62GF911ZGraKn1UUup1jmrnKNiC7jmGdvD1gM2kTtDgewEjHMnvgtp9JpbncQcThenYto21Z2CwVgbXqUSiCDK275AFPruJ3hTddT84eM9PAAaqa4xvV8qQvnar8T25pHaW38bCJkqtVEGahDCuSY9eI6RedjdNzsmvdvEjddn9XusqlSvbpPyGNp5u0tvrs5l4WN9BghcJMFFIplERgov0wHB2Kxy76bWH77OhI5abufxDBasaU7WpSai6AsTYYUp8Hwcl5No4/K82UaheIekhVTD0GdcLRW7Z/EazPk/lu702ygDRqFRl67O4ExjAplenz3GPczdygDAUHJfxpLj5mbRQgImBX43x8Y+tIfr5uYzSd8MdqTCeR8oBTsbbqGC65W46RDhCqVUCC3O46eHphvzqL5zE4llND0Bh6IeSBuwMoBTKaL6oy5n2ttpP+myXjh2kg7Ev/RKUBvLsA/cElUvfUXuK/4l+JAwlnhR3MGnhLujcyc4k8Xu29X52RwCEa4EBYIxyHdbQ7nEATMF2kaoZv8QCcLpscWCYJfB1vqHdbL/E4gntNSJl/WlyH3D5Iwe47pI7jOJeRz2GU+luA3HfcSMHEhGGkhAwwWS83+8PH2ldBEy1qumMTbkMcs+pXDzOgAcHJp5vVBbqUg1ufR5p4ZcyqjL8EkvVHxJNpZymo/aXPy3uM36npIFw+r8e3YFfNZrDgUHfyevRjRxwfXh5TS+37yUMTK1atrB5BQS/mJgld+BXC0HFQozJATj8TxjQCiCkEJKN+e8EvhHR+ePUX+wALO+5KsICMcuZWS3LuOUZSNWVf+iFSg9nsJMeUktBTOxTKDVHD097beEiBwK5yP9f7CmlREQOJARMFBjjkIXECFRjwFQHflUyqP3DJD8AowDiiNQBQGeZALmuZ3S0kZzYYRCTFiAGX/0DvKSJsVvV5xVX9afjaDYB80clFt/0p8UzxEdBOE0jjdKrfRhq2MQmkIs/2sD0FZVy9AYZr1NKRORAwsBEK8bIHD1lmgUKqgu7ZIZZRwD/k4IH5nAe6P0Vl+6ntrPvdTShv7R6lQbMyOB/hmlQV/V8YaswHcnFlg+uI5P0UVeAzK/+VGKFMthJjzWs8OSHGuAlXSXywmIPGjngBwTPkZ4dUzRjcXjKAQPgwDVALxDjHUelTosCmKTnTm2CT2o3ucDSfMT6mFAwAQgqsU7Vct60btQG6gsDmjgiWvXFJkoTGwvVqBIAEPmn9DAnjwohRDdUVx4jOZShfI7pDNBzUgejMh2JRfecqE0/4cxkVB8KNcDrPu9KvG9Gj7WgQEXuMcBhAiXDKS4o9F3A4ZKqVPea8kqvkQ48JfAv3hSc2zh/HUmCqiJkFkap/YOHHMcm/ihVX4BHf6GyCcg2GnWJfQIQ/c7HUO/oNeuO8Kk+7uEkfWvAQ9YHpOpE38lugFef46iRA5SRCaKhQOEHDqqcnzo8SUcdm8zaJeiO2CaASvq4BZDsdBRoFIwTqtTm3XhQQsFEYbF5vp06Qy46o4MdBHY38uG+X/pEYgqGukoL/D5qf0V6J7t7FmhOFKM+ry0/3ACvPseRisbGK1MyMNLvggIVylw5vNc4HekcYNMRUUAHgu9TDvxVuBnwHdFwwpELIPc83PPRvJ5wMLEb46xhH3v2T24BpMyAweuMgU0Lp+XjvERNUTFIKfV4+yWMvp+bI5WrYcEAwz/A66ZFeXqdc7ZV07gPAATuAqRyJAoFBK7pL9K7ibqXUDBRaPXD5EYChWOWjucBJnqBOqWJ5wEZ42vYUoALyYUhjmNQDeLcAE3HFHWAN1z+qXzcBvyUuBbueX2mMB7zDSa3hSWaQQSOYUvo2JyqPJVW9Kj4YVNB2CQQK6fUrVHdBvanVjMrqRh7AxUTSZrhzsD4DTfAaxPO+gN4CgohwVVNRlvK5QtMZIrlAL8eP0kYHul3w7UJa3EA+dG777B1xjkG8u8ZGXa8jshNwlKY+hSwXUpa20pBxuwRnTdHAgoywIIj0y/NTHfMfgdQhhvgtQ8UsD/UF4vIPvHCS4Jn/7brro7qpkp5BhMZ+378RG/TOxbZIlBs4AP3WhYmojW6klFVCxsHuYT7gF4fxjo2Fj6muYuX2qnmGLuuNOO9UNIMEOIUpRvOnLlElNUtU07O0SCsxtf3/oetZMYUIE6LveTU1MhJOpGeyReYaP0ElJExmMtg61/NRi0vPv6w5w+K9PFY3tMK1qN+C8bRI2LdJhX33FNp9tvatUKkANJsycrV1gmKka1AU2nGO/Tk3IFhrhVEAkg4hVlMFoeuOjZZoUWjC/x8yks58gwmPo5t4RKZpCVfdNOtMuTpAdZH5EoL99lEnivj9Kh5UWnmgox7fmmGoT/PqEwmXYYb4NU0E30ESKE2JNR80buMFuUZTGTAHUjVDCGlsCUu7neHDLzj1kK1y4GCS49apkjSjGf8z+t7iTxqg/jfV9+wcxV1UVM3T0hcyhat/OcrbJfejuuh1YwCKDL/+D+HyGODBtvLtJDCTDCcH5JWfwW1PPB6oVnb/cq/3mk97gxJhSJMlGjWS77A5EYRamaL7wlEM/I/hcDXc/a1feyyymRcW4w+H40jafp/0Ug3Wmn486b/Ryt9TUeBQQ/7mnv/bqelq33EM+oS0XNcItGkPKs5Wik2kw4NkCmAdOjMq6T4xI/kUJlAwD6F4feAmavW6suvpf+fr7MzdLWl56Yw/kogDbq6ugApTkd1QNYwzkl36CEv38tN3txn3XwixVjTU9d91Od0eITZOkrkEdKjXs/uqCDCNvrfN9+1j7tqDRAxqXN3qx5y4KdhtsPEQ43q1cku6VzdzzOY+AqFcDPNtRW1zETKy43xPe5tKZmxzAMVUgrjnBbDQC6Ld7HoO4xX5umRa5AeOccIXm1WO2F+Gwt8aXeee/S0/KQg51sse8hqdTrNPBadAgUQabMw6tRZs20wH8tih8of+dVeInu5NTm+vjChtGnDNDs8owBRnvA858oTPcKXH8aOlyH/+cy6KuhVB9Eus+bCiZ1l13k3S7FpI6TU/l1yqERFK6WYgRxNyheYyAhrFLG0DHYSVNpkfnPNRrLgwrvl+OnfSIXpX5opH4EAfrWlANXdTz9v3ikuBNSzvQaj3EgTCElDF534boDD0AiLl1MpxA9Bmpb9J8IfvrXEpDFk6Je2W3yV2ZrhqksutA0hWqCi4vHhfDzsK/lw5CjrLlEXgr+xhcqq5pHFy7BBARmRo0w8BWCEzei4Hu/jJ1tsQpaJKv1+6nT7PUDkAslqCbTDpffJ4YZZvraM1bKvZDm7Ki6O2Wj7yPINpnRTWPxLVC4ZrbhmgQUThV7Z9nwp3/Q0qTfxfSm1fpEnpXhWjUJCMpSJvKOtFaBpheQUOLzvJ97lp7bDm//9wi46dl/fG+wOj7R2t/X734/0PyBCMrzy0qt271pCQ3ICHn+a/jxyn1m54XjDffiDh97/PVRayt5M2d72Iinf9QoePUIrZllecAHQNihIkolKYCkcUE5l2UpbHzx9e2fFqrLw/Duk6oZlkvrLV0GgolBqU3GeU3KNfN7BPjtYMVUOl0iRYgcPSInMDGu/aXpqv/G/tl5W//2PWe742Qf/lid/GEBiJV9sQaRlqEq1KuWQsYOMZNb8kYdQeeS6lRoG+FAogNkbYf5YSWS+ldLmXDl81hVSvmRgFRXv8f1mPQOjNVRL0GgjRTt47+XiJN+SCTAR2aeVhAQKRai+zQZU5TM3S9qcb6X4gkn2MZeBod5zgbM/1XitazeSQ5VTZV2lOpJZta7s9zPNSYRvoXarzhsnZVf8Yu8osMgvrR9/GEsfslhYTtUeQMJ/g0rzg0jVy54WXSUl7QQ5XM9MhTd59HebD5vcWHPbVHKx3xaKbDKxWEYNiZEeVHrx4gFQheMPEsgFKx2fw6272W85LPBO+QZpsnwY77JgLeXIaZm9hCKc5AtMSCY7odKId5eQQoAnFCGp5p1+lYj58RxqseTW9VLagFCBQ4UfOK62pNRoYIGDUc97uSXe4UdeSu7/k9SZM1oqzfw6SN0CBpb8YwloFqCPxFyMXsp8ixnfYpqVCyQF0aGL7pTDjU8WOAJgsiUDNGvTqF3DCwZghxyAHdy0NtCZMZIHQNCoUqrVkUOp9c1shpZymGN2ZMBqgWmeA0ysVhxtyheYNDO6vCAqiwy7dpM+E+popVUY0IV6Pj/XkGDYcCVP6i7HT/y3lVQqpQAFi7cyFTxS5ANA6v/IAGvQqyS2eTKS5FDna+Rwu/Pyk8Uj7/oAhlSzUizryP85AuqRFOXggp89ewmzJBZ7CpKvfBEMJmMatoGuL7vm13ylGcuXAdWSbn+2/jBrQ2R9jA4Bk0JZUgfx7yeuKZDUmKeFW7ru6egByf/haPxvJF2JDUdsWcySWOwpGBUwkTEyqIR/CXulINO8pp1k3YV/81QreQVQg//9sdkq9JcgQAEkhoVQbS6Qih1XSw73eyVnaiaBzCg2a4xng9EA8L25ztJoZS3fYCIjZIxZJtpSUXXVF/8UrTzGLB3U7DLjYFVbjQ+h8v5q4nzwG2EjAaRh335vt3NV1UY5AVLxa/4Rs7xFM2FUnKp0ZgCd1/WsaCbvpRUVMKHqWLidjEKougoLJngfKcgnGOhrLrg70G3Oyihx3Xc9/pQFE6B6zAxYq1+MRyhfYQFSMdND9Ks4JnFQZ9GmqIGJOW6uqqO101srDGR7nsaAVgkFWFhjgAHTJ1/8p91bRcvBM4dvel7/LfjH2WPlQOnAOCkSFQ2CJimwYIKjqIOre57trQKLWK0x5fOCz+ysHGJDHUrv5KlqVBqbRzPUAbgs0WszXX/8RoWCcFTO/NbLPzOkr7jogpgACX5ERTKREEhnJRMC9pUwxAuLdCLPh81gqAcc8z/Gtv5v7UEzYIoPqbDQzklfeFKJPKOqY7kJdlTBxKg8PQU1xAubdLIg6fmXIPvJBQ5gKzRkpBIOWm0MTH7oe+UfY5r9qIGJXCKdiFdihF+p0Ekn44ne2+hUr0FQDuyklPMMyAoRFRv1rnUga5YZND+va+eIHn59Nq/HqIMJ6eS6CZBOtUe/kdf8JeS9Ur1usSPvfBwpy/BFYVJv9OBk/vggqXS7mSOHXRtLiiqYyCjS6e5b+gZJJ1p2i2mFxxi3BraJA2KkX6rVk+JXPBDLOoh+2p897UUH0BgIz7343B4xlUoUIipjcy43ABODv33/cKHtDWHEWoeZ6VVUrd867ACwm0ZBOGfwtbj5FTYqNvo9q5Ytz03mMTmeurt/zHpwLn+iLplInJH3PldfYXtDaowTR5P63atm9P7IsIubkeR5/jlQbPls6wpQILHiHO4aZjXTyGNNMQETmWYogvWqXWOcnkXjkS/Hukx5T78QA93aSUOfCVJv8Lt/nxtirt6U4TEDEy0BY5w4IXeJvcMmdqn5N4P1+8ljNDhgGsGBj5/0gESSNOLnH7rPm4AQjc9kl0bMwMSHUXcEnLEmpG71QGshGrPJmLeyy1vyfk44YIBU7F93eT03XmHhVvbwpTHHQ71pNmMKJj4CoJ596H67bpLaT+h0wmgLGqDm7wosE6jMKfDHLCC5+UQLXNq9c1x6b+53OY85mPgI9tOrTz3GqecMVEClfzXIXk/+yR0HbDTAy32DXgJILG19T7+b42YnuRmIC5gQtcyu/WDwc/bbroRiJkmLD+8v8MF0LtMSfV5s6QyR9+73YpTID0DqeFILu+BZpDj2WOY9LmCiAC6gsJvUhtLCNfr0YWmxODBjRa8lj0dzoNiIN6T4ly8EGdvYSEikZ4w5kSggkdO4gYmPKaCGvv6SXazU7eWh9lijALVX0EN+KUu8CWl08OVb5MDS6UESaa3Zj/faXj0TKpGUF3EFEx8FUNhQrz09wE4NhxlKAAq1l/bxg3b4JengNBM2zTjbwY+esNIIic4PwlSAd8z5izSjRnkbj2PUh1NykmkAxQ9DkZktOitWg/Xxlh/49UdJnz1Ktre5QNaa6UmRJlvm5JuF7RlAtHfSUCm9bIqkGH7Q0JSQ6GwZW9BW50sImJQp6Hdm0n5pYqBYAXbK/IVerDUtkNU6yswbK+lMnDRRkOsadyg0Y3taxtweUWcHppg4pLW/SgnCbQ2QlJBGOCPZ+PpGM1xFg0ykjaT50mNCwUQmYAY9vf97/BE7xeixF1+1ExN0JoiCimnTdc2U8tqmhe5IP0t+Nwti5GWWrxY87JEhlTiH5doxtWUzpbiRxFAKUsiASCsHEBFye+qJzWWIichgIL0ggUh5qfnV/xNyVLXHek1fv/26DB81RlhYAlJQca6iHmnVyEgrplQdrHuClK7fLEdrD5BGwglHY9bU7wOLzfy8rLUZ7NRtR5WRTwUR+9kx8q8DtgURSOS3QICJjECACiL2hqjAEVmLWNH1ZclhNT5VWpH5FNYoMN50d9kqQLe3VjPZb+a2ZdZNz5VqxAt+YuUoTBgANKvmm4Uo5siBjWbXqq3rvNkvlNGCB1WeBSC3InCbEEuvi6Jp3HZBBRHlgdwyBK4UgL/KNEDFjxm2X4z83lvYinWJFFhkVyvEzToLYZQw09SJgwZou9NOkc0tuuQKWG56OToHQGb2rEwd7q1koqDhfTeffsYDIN2g8arzzrGb96DOCppdFIkP/jJFejbu9xRUqD9a571mLtu0GbPkZ/P7dvIUmx//omBuJlWCcQ1w1TUSDJtrXfebowoqt+fFHDULdHpg5ruhGIz64sf6DMw1ZBbxZT26HbVBo5bfLVNBPg9V1gKXX7WpWLO6R+cz7driD5nKYHliluNjOzDWuNQNeCiAgsxzN5hrKhnqfj1IUo0aXNbjlny7HIhsZG6a9rxchrqg0eUFWS75xIZp0jq9mV0GsEV6c2tQk2ctp6p7rhUmcsteKPKtDCezbFlBmAWqEKIlb9+509sbhR3HWcoP9cHqbgosQIUNk/7+XXatgTz1ClFpJvQDwOAHUkbyP9PkkTjYPOzo2axRmtSrU+eozQcVNIVNAllmh/ijPAhxq+BfcoGlucXNwA+g9ezWxTpGZ5iVb78cNdauO8k6AmpvASrGBFm8IghQBigR3QNZQOKbmhYgovvOyrmXnNNd/Dt68qzmV0HEtWOJCjWYQlWEW1F6zkbRdKv/fFVvu3YAS+OoywFApX31rMy72szoyCEd/MxEPyCRsoY2MJ7Z587tvvPtY0Xi5JAt8R3ozWmmov2cViwb7TAmSG8Jd4MSU7FYZlopUpAcDka80y6QTjHq7D+vvGB3NwdACmJNr6gc4z7Qm0jGKqgYGCUaUcNgkE64EHJCe2cGryrCVq2EfpB2UQWR8q1IgUkLjfTo3+cGa5jrNY45WWSDcGOVSthITIcv6iBSHhZJMFF4pkq70olrtbev5RCejOF9iHW9swj3Q7yD9vXbBfFYZMFEZbC5sxKe6h2ZRxbcYPnkUKTrc3MPT3ySjnCgSIPpCBtyfuZKJtRcUeuxReJUkQYTm/wosdp/hYqV9F8J2aMjNMWJL0LN/TJ7TlwnOnoZLIAnRRpMbKyoXnHqhi00sqVmHazXm+dQc9+Nn5QEUxbTiiSYiEFnFV2GWVyyC6W6F0Kdt+pq9yzhFr26YRN+sDs7hXq0qF0rsmCaPmeuAcOR4hOichSFMMLZpwS/lBIDtz9MmRbzhbT0ewX5eISbCcglEoIuuvvTbDBgy0/JfYZz3s0PjRg7weuN4QEnWtNPIe0mHmrfywt0Q9Wx1Vg0iDL5eaLlVH4oT6LNj2jkP+5jc8owekGz586TVes32BCSdWZ3R8bMNFTDLRw7YFqfTkOz5WiI7Udz631mw8EpZsNFd1cmux2s+9EI52zFdWj8B/YJVN3K9Rtl/qLFdnA5tw5M5QfvaUjN4mXLZcnK1XbDH1Qxe8O5pNu0Es6b3jBN0owXvpVZHKTFCem2YeaWH27a+TmPG5hoSQCI/Wu/GTPORk0qSHTHSx18DVegUNuPXnzWGdKlYwfp1KG9bdXZddWpvHkGSKgnpdKVqwdHDeiNcEfTq2MRVSI5ARPhLd+MHpsrByb8gIhoGG02QRw6erz9n0aj/KBz4HYQ7APOH/bLoxPBT0HHeqLsFsEi/3wjnsCKOZgoEJLg6y++ErY0hVANrlRw+BPxlIrj5zKY/XuJuqQS+lx2Sbb77wImwKwOR0JHMhp2CP9d7KYQs1VKt+lqY8/tdCxTRjYyZIgmO9JGxX4sbNLMgDNgdLfTyC4Nva/84H/lyYIVq2T662/K42aLDmb6Xn5xL7sjQXaNTNPMzzFmYKLSILbcYi83GBZK8lCZ/A7v2RVUjmJlArtgh7ruMpFzrYj3hw233/pL70vlGgMsyK92YOrEmXO8d/Av/WamTYWjcBMMWPPSb4gzAYJAvVAVp+pMt4snZBd+aN71++H4wX14khN+KJ/ZYWHI51/Z9UVZFlKBrN+K9jEmYCLTTAJ48pU37OocfoYxWg9TSpavKI1PPk1SGzaVyjVqS6XUWlL+uMCOlyVSAtvLHzwQsBd2bt0s2zPWy7aN6yRj+WJZOuMn2b8z06YBoCBVC0jAT0d8JwP+5682jkkrlwpFzbq9OAARFBiXGw5jiJv1EUgDSYek0ahPNxn4gU01wOzDgn0FP1SS8BwAoiyApcnJHaRWkxNyzY+Vs6fK7u1bbRqaNsc6VUvZhWo/Mvx48C99bMBgrFRfVMEE09zdtFFl2kpgmoKo3SV/kmandZFK1Wty2SMFDhfcc/4HZDxf74TWIp17Spcbbpfffp0lS36eIAsmfR/ERL5JBfV55AnBpnrg9n62VZKOX8Wxl262FEbV+Q1xVBY2EMF4VBjg5ciGPkgIojzdhqX8SO/UQ5p0OCtQNiczLg/ccx7x84Nr23/fIIt+Giezvv/SgrNspcBsYG1kqL4vvhstf+9/a0wmckYFTK4IJ8OoNNcm0rihTpffIOlndBe/1IEROSE/QwEWvzOvuUUW/DBaJr7/Tw9USCvygHH67dU3ylN33W5muLS1hr/mLTsVp3kKp+qsLWX2U2FlEr7H3D7cBER1whOA9cCgFy2w9ZukqZKIRnVyz0ujxg8A1q7XFfY3b/xImTbsQ9uAVVIBZDoxbHKtexJHU0rlC0wKIrzJbKU1e4nZeMdkWEmZRsujwgERgPCDQp/P7dFNp4WRVgB14gevWUmFCqWCtVU+PPgVKyXdSs2XitPMmn15U8xuAHY6t/ke9pgbc873VA3zCqqoaceu0v7iq62kjSY/SF95Aj/4TRv+sUz74t+eOaCNDFNg+Jjx8mC/m7yZwgArP5RS1RTWpZ27d7v/hjx3QfTWR594gfoukGBajdp15OyHn48J0/wZUyai/tr26i0jBz0kmzM2iIp6V93yLo5Ktm/PMYVTdXjEaza1SwGRFjy4Y+Bz1oZygYt0Bti97h5gpWm0QeQvh/IDSYVJMe6dl2TtgtlB/Mg0q6mw62eT9BbS59prpF2ThlK+RCBiNBKwtmZmBn2uYoWAAAmSTKAWZxkEYFzS/7GJmAiJ7sXxV9VsQ+8yTaXRmdfealsGaWjB3PRidc63sK16PzXkqFbpfhOpxFz/FubiorT22c6fC6vqzPu7zXoHZeat9ySQC1zlh6vS4s0P1N9F9zwhy02n5bs3/8/mk7rmB/g3rlomjz94r5Sq21Q6dOshPdq1lja1q1lgwTMXWOBg86bN1hfGPRyqNasH4sKKHTZ07tU3CA4wEmftn6GvvSi7d++RzB07ZK+RVBvMy8tXrZYJ06bLwtVrrMOP3gvPu4Q0qmtsmM7X3+ZJI/d+vM9Rqxil4999WdYYY12llJsPJBTEZjslajcSqZxqowf2ZoWa7CtT3t4vtWenpJU2o087zOJkJtpyx6pFdpd0dq1yp4Dbh7P+eNL5jscKDD8Ast8UcPOMBMUBWrlOQzm1eUNp26SB1KhWVSqb6WNIoLJly8hzr7wusxYtsfW/1PRON/w8ziZhwfTgk8/YyYpqqLkzN3jK9cr6AaQtr2pqTTn9uts8EW5TLyB/ABU9vx/fe9mqPrWnQmVPwRXqnnstHIB4BhDxjW5G5TY0rg8ontLIfjDCH21kqvrC8QNg4Q+DGOZS0kVEqHvw8OOwT+wtC6bPh48QNVD1heyOfAhfUZ30VnJS914FkmluGWAghKifMfQd2bhurdfzc5/L67nyg0bVoudlCVHxucm78oNGNuObz6zkxs8FOPwCI1y6lLlnp44y8O/32UeszUSXmenMrq7XBEAfxFG9r5Zh3S4I8hUVpJaneXePmj8kBT/1ySz7YZSVVjyrzOQ8HEND8QP1eUrPP0itxumer0i/R1oFkTR/6l6BH6vnzZClUydZQ508Z8cP1OEZ7Y+E7ljJxIunX9zbAsZlYlljF5WpVtPq+wrVa1hm4aVWZ6NmiPcLI2nrhJGbVi+XTWtWyo7fN1qg7dm0QXabNQMUPPBF+VG+SjWpXLOOVKt7vFSr39DjBzwozDxRflCGdYvne6MNmZs2yu7f11t+uPWMvfTriM9FPQIemN42XXxWa0M6Ib5wMOKn8FNhZpa/LO7/ykj3Wk7OixI/aHQf3t/XdmRoZOlpDeS9l1/w2OQFx/U6u5tkbA9MmcYQ/2no+7aVwSz35715jJ24ZczN+THGBq84fh5wg14xxjrEzJzrswbT7QXzxwNTqlkK+Mqzu3hTpkHejJFDPVe/vpA8Fj0OILUx1HGvoO7BBj267mapSJc8MHGRAdE1m7fa+0gn3PCItiQlOTB6yCDPT4dUerR/v6OYEgSmWrVqSp+LzvOkEyINX0Re7Ymjvpa8UOg4QN2DAexoCKlU13i8Lzjn7KPKEgQm7uIzoMsHIdLWrViSBJTlRtH7A5DwyxHiow7tlRmbvO3e/Bw5Ckw88K+B/xC6fRCJkBghDUkJZVlSJP5Q19hJ374y0FNvjIzcf+M10sysyheKQoKp02mnyt+uvdJbEAunHLFCSUCFYuGxd02BNHzQwx6QUHMssXjnLTeFLbDnZwr1RN+77pPJc+Z5nnHGnBj9JqyBrmOSjj0OqGpzJRJ2EjRl+H8jFjgimHiz98232flbqjMBFONxF/zPo16wW8QvJG8WCg6oCYOxjVmjERYAidWDJ3z8vufpDlegbMHEi9fddqdMX7jYk1B8gAD4RMUshStM8nruOaAgwj6i+486U8Gh58PNfjY6ZBLpCzkCEwk8+fyLNijeDYRDSjHo2753H2lw0imegZ5UgZFYnvh7CiByAoimf/1pUBQm1zG2sZE+eeNl/s0R5RhMpDbazAtjxgfRlYpergMqRpibtzvDzrKo3fRED1jcT1LB4gAAWr90gcwb87UXe6UD/Ggduv/02iIZ26FKlCswkcBms5XnY4MGe3HfmgnuqfrjnPjvqo1bCNEGZStW5lKSEsSB3ZnbvGgI4sAhGr8rEKg7PNusX/DSgEfCdv8jFSHXYNLEZpn9SpiRonHgbsb0GTLIL0mJ54A2ej1qjrCL2I4M84VJq/7xNn0uJ8c8g0kTX2Q2w/nUTMtmkiELUTBnjgz7M63PJ4+J5YA2cEY5tuzcZQf3L7/wfMG3mF/KN5jcDCCtxkz6USabiY/ModOlYHQJGPfZ5Hn8OKD1wBeb168rZ5nIWvZGbtGylVSpUCZqGYkqmPy5wr5iahQzXQo6LcssfE7YRhUDce3Z8ZYZJdWrVMlR9z67tCLd/384foMM9hxL6QAAAABJRU5ErkJggg==;" vertex="1" parent="1">
          <mxGeometry x="99" y="215" width="34.23" height="34" as="geometry" />
        </mxCell>
      </root>
    </mxGraphModel>
  </diagram>
</mxfile>
